<?xml version="1.0" encoding="utf-8" standalone="no"?>
<!DOCTYPE svg PUBLIC "-//W3C//DTD SVG 1.1//EN"
  "http://www.w3.org/Graphics/SVG/1.1/DTD/svg11.dtd">
<svg xmlns:xlink="http://www.w3.org/1999/xlink" width="563.006811pt" height="424.558125pt" viewBox="0 0 563.006811 424.558125" xmlns="http://www.w3.org/2000/svg" version="1.1">
 <metadata>
  <rdf:RDF xmlns:dc="http://purl.org/dc/elements/1.1/" xmlns:cc="http://creativecommons.org/ns#" xmlns:rdf="http://www.w3.org/1999/02/22-rdf-syntax-ns#">
   <cc:Work>
    <dc:type rdf:resource="http://purl.org/dc/dcmitype/StillImage"/>
    <dc:date>2026-03-21T15:49:26.951285</dc:date>
    <dc:format>image/svg+xml</dc:format>
    <dc:creator>
     <cc:Agent>
      <dc:title>Matplotlib v3.10.8, https://matplotlib.org/</dc:title>
     </cc:Agent>
    </dc:creator>
   </cc:Work>
  </rdf:RDF>
 </metadata>
 <defs>
  <style type="text/css">*{stroke-linejoin: round; stroke-linecap: butt}</style>
 </defs>
 <g id="figure_1">
  <g id="patch_1">
   <path d="M 0 424.558125 
L 563.006811 424.558125 
L 563.006811 0 
L 0 0 
z
" style="fill: #ffffff"/>
  </g>
  <g id="axes_1">
   <g id="line2d_1">
    <path d="M 42.662069 38.608434 
L 553.770522 38.608434 
" clip-path="url(#p82225e2eb5)" style="fill: none; stroke: #000000; stroke-width: 1.316746; stroke-linecap: square"/>
   </g>
   <g id="line2d_2">
    <path d="M 42.662069 58.971321 
L 553.770522 58.971321 
" clip-path="url(#p82225e2eb5)" style="fill: none; stroke: #000000; stroke-width: 1.316746; stroke-linecap: square"/>
   </g>
   <g id="line2d_3">
    <path d="M 42.662069 79.334207 
L 553.770522 79.334207 
" clip-path="url(#p82225e2eb5)" style="fill: none; stroke: #000000; stroke-width: 1.316746; stroke-linecap: square"/>
   </g>
   <g id="line2d_4">
    <path d="M 42.662069 99.697094 
L 553.770522 99.697094 
" clip-path="url(#p82225e2eb5)" style="fill: none; stroke: #000000; stroke-width: 1.316746; stroke-linecap: square"/>
   </g>
   <g id="line2d_5">
    <path d="M 42.662069 120.059981 
L 553.770522 120.059981 
" clip-path="url(#p82225e2eb5)" style="fill: none; stroke: #000000; stroke-width: 1.316746; stroke-linecap: square"/>
   </g>
   <g id="line2d_6">
    <path d="M 42.662069 140.422867 
L 553.770522 140.422867 
" clip-path="url(#p82225e2eb5)" style="fill: none; stroke: #000000; stroke-width: 1.316746; stroke-linecap: square"/>
   </g>
   <g id="line2d_7">
    <path d="M 42.662069 160.785754 
L 553.770522 160.785754 
" clip-path="url(#p82225e2eb5)" style="fill: none; stroke: #000000; stroke-width: 1.316746; stroke-linecap: square"/>
   </g>
   <g id="line2d_8">
    <path d="M 42.662069 181.14864 
L 553.770522 181.14864 
" clip-path="url(#p82225e2eb5)" style="fill: none; stroke: #000000; stroke-width: 1.316746; stroke-linecap: square"/>
   </g>
   <g id="line2d_9">
    <path d="M 46.734646 203.547816 
L 48.770935 199.475238 
" clip-path="url(#p82225e2eb5)" style="fill: none; stroke: #778899; stroke-width: 1.5; stroke-linecap: square"/>
   </g>
   <g id="line2d_10">
    <path d="M 42.662069 200.849733 
L 553.770522 200.849733 
" clip-path="url(#p82225e2eb5)" style="fill: none; stroke: #778899; stroke-width: 1.316746; stroke-linecap: square"/>
   </g>
   <g id="line2d_11">
    <path d="M 42.662069 202.173321 
L 553.770522 202.173321 
" clip-path="url(#p82225e2eb5)" style="fill: none; stroke: #778899; stroke-width: 1.316746; stroke-linecap: square"/>
   </g>
   <g id="line2d_12">
    <path d="M 553.770522 38.608434 
L 553.770522 201.511527 
" clip-path="url(#p82225e2eb5)" style="fill: none; stroke: #000000; stroke-width: 0.987559; stroke-linecap: square"/>
   </g>
   <g id="line2d_13">
    <path d="M 42.662069 242.2373 
L 553.770522 242.2373 
" clip-path="url(#p82225e2eb5)" style="fill: none; stroke: #000000; stroke-width: 1.316746; stroke-linecap: square"/>
   </g>
   <g id="line2d_14">
    <path d="M 42.662069 262.600187 
L 553.770522 262.600187 
" clip-path="url(#p82225e2eb5)" style="fill: none; stroke: #000000; stroke-width: 1.316746; stroke-linecap: square"/>
   </g>
   <g id="line2d_15">
    <path d="M 42.662069 282.963073 
L 553.770522 282.963073 
" clip-path="url(#p82225e2eb5)" style="fill: none; stroke: #000000; stroke-width: 1.316746; stroke-linecap: square"/>
   </g>
   <g id="line2d_16">
    <path d="M 42.662069 303.32596 
L 553.770522 303.32596 
" clip-path="url(#p82225e2eb5)" style="fill: none; stroke: #000000; stroke-width: 1.316746; stroke-linecap: square"/>
   </g>
   <g id="line2d_17">
    <path d="M 42.662069 323.688847 
L 553.770522 323.688847 
" clip-path="url(#p82225e2eb5)" style="fill: none; stroke: #000000; stroke-width: 1.316746; stroke-linecap: square"/>
   </g>
   <g id="line2d_18">
    <path d="M 42.662069 344.051733 
L 553.770522 344.051733 
" clip-path="url(#p82225e2eb5)" style="fill: none; stroke: #000000; stroke-width: 1.316746; stroke-linecap: square"/>
   </g>
   <g id="line2d_19">
    <path d="M 42.662069 364.41462 
L 553.770522 364.41462 
" clip-path="url(#p82225e2eb5)" style="fill: none; stroke: #000000; stroke-width: 1.316746; stroke-linecap: square"/>
   </g>
   <g id="line2d_20">
    <path d="M 42.662069 384.777506 
L 553.770522 384.777506 
" clip-path="url(#p82225e2eb5)" style="fill: none; stroke: #000000; stroke-width: 1.316746; stroke-linecap: square"/>
   </g>
   <g id="line2d_21">
    <path d="M 46.734646 407.176682 
L 48.770935 403.104104 
" clip-path="url(#p82225e2eb5)" style="fill: none; stroke: #778899; stroke-width: 1.5; stroke-linecap: square"/>
   </g>
   <g id="line2d_22">
    <path d="M 42.662069 404.478599 
L 553.770522 404.478599 
" clip-path="url(#p82225e2eb5)" style="fill: none; stroke: #778899; stroke-width: 1.316746; stroke-linecap: square"/>
   </g>
   <g id="line2d_23">
    <path d="M 42.662069 405.802187 
L 553.770522 405.802187 
" clip-path="url(#p82225e2eb5)" style="fill: none; stroke: #778899; stroke-width: 1.316746; stroke-linecap: square"/>
   </g>
   <g id="line2d_24">
    <path d="M 42.45844 242.2373 
L 42.45844 405.140393 
" clip-path="url(#p82225e2eb5)" style="fill: none; stroke: #000000; stroke-width: 0.987559; stroke-linecap: square"/>
   </g>
   <g id="patch_2">
    <path d="M 478.631471 196.87897 
L 483.925821 196.87897 
L 481.278646 200.697012 
z
" clip-path="url(#p82225e2eb5)" style="fill: #778899"/>
   </g>
   <g id="patch_3">
    <path d="M 498.994357 196.87897 
L 504.288708 196.87897 
L 501.641533 200.697012 
z
" clip-path="url(#p82225e2eb5)" style="fill: #778899"/>
   </g>
   <g id="patch_4">
    <path d="M 519.357244 196.87897 
L 524.651595 196.87897 
L 522.004419 200.697012 
z
" clip-path="url(#p82225e2eb5)" style="fill: #778899"/>
   </g>
   <g id="patch_5">
    <path d="M 539.720131 196.87897 
L 545.014481 196.87897 
L 542.367306 200.697012 
z
" clip-path="url(#p82225e2eb5)" style="fill: #778899"/>
   </g>
   <g id="patch_6">
    <path d="M 51.010852 400.507836 
L 56.305203 400.507836 
L 53.658028 404.325878 
z
" clip-path="url(#p82225e2eb5)" style="fill: #778899"/>
   </g>
   <g id="patch_7">
    <path d="M 71.373739 400.507836 
L 76.668089 400.507836 
L 74.020914 404.325878 
z
" clip-path="url(#p82225e2eb5)" style="fill: #778899"/>
   </g>
   <g id="patch_8">
    <path d="M 91.736626 400.507836 
L 97.030976 400.507836 
L 94.383801 404.325878 
z
" clip-path="url(#p82225e2eb5)" style="fill: #778899"/>
   </g>
   <g id="patch_9">
    <path d="M 112.099512 400.507836 
L 117.393863 400.507836 
L 114.746687 404.325878 
z
" clip-path="url(#p82225e2eb5)" style="fill: #778899"/>
   </g>
   <g id="text_1">
    <!-- original circuit (seed=0) -->
    <g transform="translate(208.999031 16.318125) scale(0.12 -0.12)">
     <defs>
      <path id="DejaVuSans-6f" d="M 1959 3097 
Q 1497 3097 1228 2736 
Q 959 2375 959 1747 
Q 959 1119 1226 758 
Q 1494 397 1959 397 
Q 2419 397 2687 759 
Q 2956 1122 2956 1747 
Q 2956 2369 2687 2733 
Q 2419 3097 1959 3097 
z
M 1959 3584 
Q 2709 3584 3137 3096 
Q 3566 2609 3566 1747 
Q 3566 888 3137 398 
Q 2709 -91 1959 -91 
Q 1206 -91 779 398 
Q 353 888 353 1747 
Q 353 2609 779 3096 
Q 1206 3584 1959 3584 
z
" transform="scale(0.015625)"/>
      <path id="DejaVuSans-72" d="M 2631 2963 
Q 2534 3019 2420 3045 
Q 2306 3072 2169 3072 
Q 1681 3072 1420 2755 
Q 1159 2438 1159 1844 
L 1159 0 
L 581 0 
L 581 3500 
L 1159 3500 
L 1159 2956 
Q 1341 3275 1631 3429 
Q 1922 3584 2338 3584 
Q 2397 3584 2469 3576 
Q 2541 3569 2628 3553 
L 2631 2963 
z
" transform="scale(0.015625)"/>
      <path id="DejaVuSans-69" d="M 603 3500 
L 1178 3500 
L 1178 0 
L 603 0 
L 603 3500 
z
M 603 4863 
L 1178 4863 
L 1178 4134 
L 603 4134 
L 603 4863 
z
" transform="scale(0.015625)"/>
      <path id="DejaVuSans-67" d="M 2906 1791 
Q 2906 2416 2648 2759 
Q 2391 3103 1925 3103 
Q 1463 3103 1205 2759 
Q 947 2416 947 1791 
Q 947 1169 1205 825 
Q 1463 481 1925 481 
Q 2391 481 2648 825 
Q 2906 1169 2906 1791 
z
M 3481 434 
Q 3481 -459 3084 -895 
Q 2688 -1331 1869 -1331 
Q 1566 -1331 1297 -1286 
Q 1028 -1241 775 -1147 
L 775 -588 
Q 1028 -725 1275 -790 
Q 1522 -856 1778 -856 
Q 2344 -856 2625 -561 
Q 2906 -266 2906 331 
L 2906 616 
Q 2728 306 2450 153 
Q 2172 0 1784 0 
Q 1141 0 747 490 
Q 353 981 353 1791 
Q 353 2603 747 3093 
Q 1141 3584 1784 3584 
Q 2172 3584 2450 3431 
Q 2728 3278 2906 2969 
L 2906 3500 
L 3481 3500 
L 3481 434 
z
" transform="scale(0.015625)"/>
      <path id="DejaVuSans-6e" d="M 3513 2113 
L 3513 0 
L 2938 0 
L 2938 2094 
Q 2938 2591 2744 2837 
Q 2550 3084 2163 3084 
Q 1697 3084 1428 2787 
Q 1159 2491 1159 1978 
L 1159 0 
L 581 0 
L 581 3500 
L 1159 3500 
L 1159 2956 
Q 1366 3272 1645 3428 
Q 1925 3584 2291 3584 
Q 2894 3584 3203 3211 
Q 3513 2838 3513 2113 
z
" transform="scale(0.015625)"/>
      <path id="DejaVuSans-61" d="M 2194 1759 
Q 1497 1759 1228 1600 
Q 959 1441 959 1056 
Q 959 750 1161 570 
Q 1363 391 1709 391 
Q 2188 391 2477 730 
Q 2766 1069 2766 1631 
L 2766 1759 
L 2194 1759 
z
M 3341 1997 
L 3341 0 
L 2766 0 
L 2766 531 
Q 2569 213 2275 61 
Q 1981 -91 1556 -91 
Q 1019 -91 701 211 
Q 384 513 384 1019 
Q 384 1609 779 1909 
Q 1175 2209 1959 2209 
L 2766 2209 
L 2766 2266 
Q 2766 2663 2505 2880 
Q 2244 3097 1772 3097 
Q 1472 3097 1187 3025 
Q 903 2953 641 2809 
L 641 3341 
Q 956 3463 1253 3523 
Q 1550 3584 1831 3584 
Q 2591 3584 2966 3190 
Q 3341 2797 3341 1997 
z
" transform="scale(0.015625)"/>
      <path id="DejaVuSans-6c" d="M 603 4863 
L 1178 4863 
L 1178 0 
L 603 0 
L 603 4863 
z
" transform="scale(0.015625)"/>
      <path id="DejaVuSans-20" transform="scale(0.015625)"/>
      <path id="DejaVuSans-63" d="M 3122 3366 
L 3122 2828 
Q 2878 2963 2633 3030 
Q 2388 3097 2138 3097 
Q 1578 3097 1268 2742 
Q 959 2388 959 1747 
Q 959 1106 1268 751 
Q 1578 397 2138 397 
Q 2388 397 2633 464 
Q 2878 531 3122 666 
L 3122 134 
Q 2881 22 2623 -34 
Q 2366 -91 2075 -91 
Q 1284 -91 818 406 
Q 353 903 353 1747 
Q 353 2603 823 3093 
Q 1294 3584 2113 3584 
Q 2378 3584 2631 3529 
Q 2884 3475 3122 3366 
z
" transform="scale(0.015625)"/>
      <path id="DejaVuSans-75" d="M 544 1381 
L 544 3500 
L 1119 3500 
L 1119 1403 
Q 1119 906 1312 657 
Q 1506 409 1894 409 
Q 2359 409 2629 706 
Q 2900 1003 2900 1516 
L 2900 3500 
L 3475 3500 
L 3475 0 
L 2900 0 
L 2900 538 
Q 2691 219 2414 64 
Q 2138 -91 1772 -91 
Q 1169 -91 856 284 
Q 544 659 544 1381 
z
M 1991 3584 
L 1991 3584 
z
" transform="scale(0.015625)"/>
      <path id="DejaVuSans-74" d="M 1172 4494 
L 1172 3500 
L 2356 3500 
L 2356 3053 
L 1172 3053 
L 1172 1153 
Q 1172 725 1289 603 
Q 1406 481 1766 481 
L 2356 481 
L 2356 0 
L 1766 0 
Q 1100 0 847 248 
Q 594 497 594 1153 
L 594 3053 
L 172 3053 
L 172 3500 
L 594 3500 
L 594 4494 
L 1172 4494 
z
" transform="scale(0.015625)"/>
      <path id="DejaVuSans-28" d="M 1984 4856 
Q 1566 4138 1362 3434 
Q 1159 2731 1159 2009 
Q 1159 1288 1364 580 
Q 1569 -128 1984 -844 
L 1484 -844 
Q 1016 -109 783 600 
Q 550 1309 550 2009 
Q 550 2706 781 3412 
Q 1013 4119 1484 4856 
L 1984 4856 
z
" transform="scale(0.015625)"/>
      <path id="DejaVuSans-73" d="M 2834 3397 
L 2834 2853 
Q 2591 2978 2328 3040 
Q 2066 3103 1784 3103 
Q 1356 3103 1142 2972 
Q 928 2841 928 2578 
Q 928 2378 1081 2264 
Q 1234 2150 1697 2047 
L 1894 2003 
Q 2506 1872 2764 1633 
Q 3022 1394 3022 966 
Q 3022 478 2636 193 
Q 2250 -91 1575 -91 
Q 1294 -91 989 -36 
Q 684 19 347 128 
L 347 722 
Q 666 556 975 473 
Q 1284 391 1588 391 
Q 1994 391 2212 530 
Q 2431 669 2431 922 
Q 2431 1156 2273 1281 
Q 2116 1406 1581 1522 
L 1381 1569 
Q 847 1681 609 1914 
Q 372 2147 372 2553 
Q 372 3047 722 3315 
Q 1072 3584 1716 3584 
Q 2034 3584 2315 3537 
Q 2597 3491 2834 3397 
z
" transform="scale(0.015625)"/>
      <path id="DejaVuSans-65" d="M 3597 1894 
L 3597 1613 
L 953 1613 
Q 991 1019 1311 708 
Q 1631 397 2203 397 
Q 2534 397 2845 478 
Q 3156 559 3463 722 
L 3463 178 
Q 3153 47 2828 -22 
Q 2503 -91 2169 -91 
Q 1331 -91 842 396 
Q 353 884 353 1716 
Q 353 2575 817 3079 
Q 1281 3584 2069 3584 
Q 2775 3584 3186 3129 
Q 3597 2675 3597 1894 
z
M 3022 2063 
Q 3016 2534 2758 2815 
Q 2500 3097 2075 3097 
Q 1594 3097 1305 2825 
Q 1016 2553 972 2059 
L 3022 2063 
z
" transform="scale(0.015625)"/>
      <path id="DejaVuSans-64" d="M 2906 2969 
L 2906 4863 
L 3481 4863 
L 3481 0 
L 2906 0 
L 2906 525 
Q 2725 213 2448 61 
Q 2172 -91 1784 -91 
Q 1150 -91 751 415 
Q 353 922 353 1747 
Q 353 2572 751 3078 
Q 1150 3584 1784 3584 
Q 2172 3584 2448 3432 
Q 2725 3281 2906 2969 
z
M 947 1747 
Q 947 1113 1208 752 
Q 1469 391 1925 391 
Q 2381 391 2643 752 
Q 2906 1113 2906 1747 
Q 2906 2381 2643 2742 
Q 2381 3103 1925 3103 
Q 1469 3103 1208 2742 
Q 947 2381 947 1747 
z
" transform="scale(0.015625)"/>
      <path id="DejaVuSans-3d" d="M 678 2906 
L 4684 2906 
L 4684 2381 
L 678 2381 
L 678 2906 
z
M 678 1631 
L 4684 1631 
L 4684 1100 
L 678 1100 
L 678 1631 
z
" transform="scale(0.015625)"/>
      <path id="DejaVuSans-30" d="M 2034 4250 
Q 1547 4250 1301 3770 
Q 1056 3291 1056 2328 
Q 1056 1369 1301 889 
Q 1547 409 2034 409 
Q 2525 409 2770 889 
Q 3016 1369 3016 2328 
Q 3016 3291 2770 3770 
Q 2525 4250 2034 4250 
z
M 2034 4750 
Q 2819 4750 3233 4129 
Q 3647 3509 3647 2328 
Q 3647 1150 3233 529 
Q 2819 -91 2034 -91 
Q 1250 -91 836 529 
Q 422 1150 422 2328 
Q 422 3509 836 4129 
Q 1250 4750 2034 4750 
z
" transform="scale(0.015625)"/>
      <path id="DejaVuSans-29" d="M 513 4856 
L 1013 4856 
Q 1481 4119 1714 3412 
Q 1947 2706 1947 2009 
Q 1947 1309 1714 600 
Q 1481 -109 1013 -844 
L 513 -844 
Q 928 -128 1133 580 
Q 1338 1288 1338 2009 
Q 1338 2731 1133 3434 
Q 928 4138 513 4856 
z
" transform="scale(0.015625)"/>
     </defs>
     <use xlink:href="#DejaVuSans-6f"/>
     <use xlink:href="#DejaVuSans-72" transform="translate(61.181641 0)"/>
     <use xlink:href="#DejaVuSans-69" transform="translate(102.294922 0)"/>
     <use xlink:href="#DejaVuSans-67" transform="translate(130.078125 0)"/>
     <use xlink:href="#DejaVuSans-69" transform="translate(193.554688 0)"/>
     <use xlink:href="#DejaVuSans-6e" transform="translate(221.337891 0)"/>
     <use xlink:href="#DejaVuSans-61" transform="translate(284.716797 0)"/>
     <use xlink:href="#DejaVuSans-6c" transform="translate(345.996094 0)"/>
     <use xlink:href="#DejaVuSans-20" transform="translate(373.779297 0)"/>
     <use xlink:href="#DejaVuSans-63" transform="translate(405.566406 0)"/>
     <use xlink:href="#DejaVuSans-69" transform="translate(460.546875 0)"/>
     <use xlink:href="#DejaVuSans-72" transform="translate(488.330078 0)"/>
     <use xlink:href="#DejaVuSans-63" transform="translate(527.193359 0)"/>
     <use xlink:href="#DejaVuSans-75" transform="translate(582.173828 0)"/>
     <use xlink:href="#DejaVuSans-69" transform="translate(645.552734 0)"/>
     <use xlink:href="#DejaVuSans-74" transform="translate(673.335938 0)"/>
     <use xlink:href="#DejaVuSans-20" transform="translate(712.544922 0)"/>
     <use xlink:href="#DejaVuSans-28" transform="translate(744.332031 0)"/>
     <use xlink:href="#DejaVuSans-73" transform="translate(783.345703 0)"/>
     <use xlink:href="#DejaVuSans-65" transform="translate(835.445312 0)"/>
     <use xlink:href="#DejaVuSans-65" transform="translate(896.96875 0)"/>
     <use xlink:href="#DejaVuSans-64" transform="translate(958.492188 0)"/>
     <use xlink:href="#DejaVuSans-3d" transform="translate(1021.96875 0)"/>
     <use xlink:href="#DejaVuSans-30" transform="translate(1105.757812 0)"/>
     <use xlink:href="#DejaVuSans-29" transform="translate(1169.380859 0)"/>
    </g>
   </g>
   <g id="patch_10">
    <path d="M 40.62578 28.426991 
L -468.446385 28.426991 
L -468.446385 232.055857 
L 40.62578 232.055857 
z
" clip-path="url(#p82225e2eb5)" style="fill: #ffffff; stroke: #ffffff; stroke-width: 0.987559; stroke-linejoin: miter"/>
   </g>
   <g id="patch_11">
    <path d="M 40.62578 232.055857 
L -468.446385 232.055857 
L -468.446385 639.313589 
L 40.62578 639.313589 
z
" clip-path="url(#p82225e2eb5)" style="fill: #ffffff; stroke: #ffffff; stroke-width: 0.987559; stroke-linejoin: miter"/>
   </g>
   <g id="line2d_25">
    <path d="M 53.658028 160.785754 
L 53.658028 38.608434 
" clip-path="url(#p82225e2eb5)" style="fill: none; stroke: #002d9c; stroke-width: 1.316746; stroke-linecap: square"/>
   </g>
   <g id="line2d_26">
    <path d="M 94.383801 140.422867 
L 94.383801 120.059981 
" clip-path="url(#p82225e2eb5)" style="fill: none; stroke: #002d9c; stroke-width: 1.316746; stroke-linecap: square"/>
   </g>
   <g id="line2d_27">
    <path d="M 135.109574 120.059981 
L 135.109574 38.608434 
" clip-path="url(#p82225e2eb5)" style="fill: none; stroke: #002d9c; stroke-width: 1.316746; stroke-linecap: square"/>
   </g>
   <g id="line2d_28">
    <path d="M 155.472461 79.334207 
L 155.472461 58.971321 
" clip-path="url(#p82225e2eb5)" style="fill: none; stroke: #002d9c; stroke-width: 1.316746; stroke-linecap: square"/>
   </g>
   <g id="line2d_29">
    <path d="M 175.835347 120.059981 
L 175.835347 38.608434 
" clip-path="url(#p82225e2eb5)" style="fill: none; stroke: #002d9c; stroke-width: 1.316746; stroke-linecap: square"/>
   </g>
   <g id="line2d_30">
    <path d="M 216.56112 140.422867 
L 216.56112 58.971321 
" clip-path="url(#p82225e2eb5)" style="fill: none; stroke: #002d9c; stroke-width: 1.316746; stroke-linecap: square"/>
   </g>
   <g id="line2d_31">
    <path d="M 298.012667 120.059981 
L 298.012667 58.971321 
" clip-path="url(#p82225e2eb5)" style="fill: none; stroke: #002d9c; stroke-width: 1.316746; stroke-linecap: square"/>
   </g>
   <g id="line2d_32">
    <path d="M 318.375553 140.422867 
L 318.375553 120.059981 
" clip-path="url(#p82225e2eb5)" style="fill: none; stroke: #002d9c; stroke-width: 1.316746; stroke-linecap: square"/>
   </g>
   <g id="line2d_33">
    <path d="M 359.101327 140.422867 
L 359.101327 38.608434 
" clip-path="url(#p82225e2eb5)" style="fill: none; stroke: #002d9c; stroke-width: 1.316746; stroke-linecap: square"/>
   </g>
   <g id="line2d_34">
    <path d="M 379.464213 181.14864 
L 379.464213 120.059981 
" clip-path="url(#p82225e2eb5)" style="fill: none; stroke: #002d9c; stroke-width: 1.316746; stroke-linecap: square"/>
   </g>
   <g id="line2d_35">
    <path d="M 399.8271 120.059981 
L 399.8271 99.697094 
" clip-path="url(#p82225e2eb5)" style="fill: none; stroke: #002d9c; stroke-width: 1.316746; stroke-linecap: square"/>
   </g>
   <g id="line2d_36">
    <path d="M 481.94044 38.608434 
L 481.94044 196.87897 
" clip-path="url(#p82225e2eb5)" style="fill: none; stroke: #778899; stroke-width: 1.316746; stroke-linecap: square"/>
   </g>
   <g id="line2d_37">
    <path d="M 480.616852 38.608434 
L 480.616852 196.87897 
" clip-path="url(#p82225e2eb5)" style="fill: none; stroke: #778899; stroke-width: 1.316746; stroke-linecap: square"/>
   </g>
   <g id="line2d_38">
    <path d="M 502.303327 58.971321 
L 502.303327 196.87897 
" clip-path="url(#p82225e2eb5)" style="fill: none; stroke: #778899; stroke-width: 1.316746; stroke-linecap: square"/>
   </g>
   <g id="line2d_39">
    <path d="M 500.979739 58.971321 
L 500.979739 196.87897 
" clip-path="url(#p82225e2eb5)" style="fill: none; stroke: #778899; stroke-width: 1.316746; stroke-linecap: square"/>
   </g>
   <g id="line2d_40">
    <path d="M 522.666213 79.334207 
L 522.666213 196.87897 
" clip-path="url(#p82225e2eb5)" style="fill: none; stroke: #778899; stroke-width: 1.316746; stroke-linecap: square"/>
   </g>
   <g id="line2d_41">
    <path d="M 521.342626 79.334207 
L 521.342626 196.87897 
" clip-path="url(#p82225e2eb5)" style="fill: none; stroke: #778899; stroke-width: 1.316746; stroke-linecap: square"/>
   </g>
   <g id="line2d_42">
    <path d="M 543.0291 99.697094 
L 543.0291 196.87897 
" clip-path="url(#p82225e2eb5)" style="fill: none; stroke: #778899; stroke-width: 1.316746; stroke-linecap: square"/>
   </g>
   <g id="line2d_43">
    <path d="M 541.705512 99.697094 
L 541.705512 196.87897 
" clip-path="url(#p82225e2eb5)" style="fill: none; stroke: #778899; stroke-width: 1.316746; stroke-linecap: square"/>
   </g>
   <g id="line2d_44">
    <path d="M 54.319821 323.688847 
L 54.319821 400.507836 
" clip-path="url(#p82225e2eb5)" style="fill: none; stroke: #778899; stroke-width: 1.316746; stroke-linecap: square"/>
   </g>
   <g id="line2d_45">
    <path d="M 52.996234 323.688847 
L 52.996234 400.507836 
" clip-path="url(#p82225e2eb5)" style="fill: none; stroke: #778899; stroke-width: 1.316746; stroke-linecap: square"/>
   </g>
   <g id="line2d_46">
    <path d="M 74.682708 344.051733 
L 74.682708 400.507836 
" clip-path="url(#p82225e2eb5)" style="fill: none; stroke: #778899; stroke-width: 1.316746; stroke-linecap: square"/>
   </g>
   <g id="line2d_47">
    <path d="M 73.35912 344.051733 
L 73.35912 400.507836 
" clip-path="url(#p82225e2eb5)" style="fill: none; stroke: #778899; stroke-width: 1.316746; stroke-linecap: square"/>
   </g>
   <g id="line2d_48">
    <path d="M 95.045595 364.41462 
L 95.045595 400.507836 
" clip-path="url(#p82225e2eb5)" style="fill: none; stroke: #778899; stroke-width: 1.316746; stroke-linecap: square"/>
   </g>
   <g id="line2d_49">
    <path d="M 93.722007 364.41462 
L 93.722007 400.507836 
" clip-path="url(#p82225e2eb5)" style="fill: none; stroke: #778899; stroke-width: 1.316746; stroke-linecap: square"/>
   </g>
   <g id="line2d_50">
    <path d="M 115.408481 384.777506 
L 115.408481 400.507836 
" clip-path="url(#p82225e2eb5)" style="fill: none; stroke: #778899; stroke-width: 1.316746; stroke-linecap: square"/>
   </g>
   <g id="line2d_51">
    <path d="M 114.084894 384.777506 
L 114.084894 400.507836 
" clip-path="url(#p82225e2eb5)" style="fill: none; stroke: #778899; stroke-width: 1.316746; stroke-linecap: square"/>
   </g>
   <g id="patch_12">
    <path d="M 456.944997 48.789878 
L 464.886522 48.789878 
L 464.886522 28.426991 
L 456.944997 28.426991 
z
" clip-path="url(#p82225e2eb5)" style="fill: #a8a8a8; opacity: 0.6"/>
   </g>
   <g id="patch_13">
    <path d="M 456.944997 69.152764 
L 464.886522 69.152764 
L 464.886522 48.789878 
L 456.944997 48.789878 
z
" clip-path="url(#p82225e2eb5)" style="fill: #a8a8a8; opacity: 0.6"/>
   </g>
   <g id="patch_14">
    <path d="M 456.944997 89.515651 
L 464.886522 89.515651 
L 464.886522 69.152764 
L 456.944997 69.152764 
z
" clip-path="url(#p82225e2eb5)" style="fill: #a8a8a8; opacity: 0.6"/>
   </g>
   <g id="patch_15">
    <path d="M 456.944997 109.878537 
L 464.886522 109.878537 
L 464.886522 89.515651 
L 456.944997 89.515651 
z
" clip-path="url(#p82225e2eb5)" style="fill: #a8a8a8; opacity: 0.6"/>
   </g>
   <g id="patch_16">
    <path d="M 456.944997 130.241424 
L 464.886522 130.241424 
L 464.886522 109.878537 
L 456.944997 109.878537 
z
" clip-path="url(#p82225e2eb5)" style="fill: #a8a8a8; opacity: 0.6"/>
   </g>
   <g id="patch_17">
    <path d="M 456.944997 150.604311 
L 464.886522 150.604311 
L 464.886522 130.241424 
L 456.944997 130.241424 
z
" clip-path="url(#p82225e2eb5)" style="fill: #a8a8a8; opacity: 0.6"/>
   </g>
   <g id="patch_18">
    <path d="M 456.944997 170.967197 
L 464.886522 170.967197 
L 464.886522 150.604311 
L 456.944997 150.604311 
z
" clip-path="url(#p82225e2eb5)" style="fill: #a8a8a8; opacity: 0.6"/>
   </g>
   <g id="patch_19">
    <path d="M 456.944997 191.330084 
L 464.886522 191.330084 
L 464.886522 170.967197 
L 456.944997 170.967197 
z
" clip-path="url(#p82225e2eb5)" style="fill: #a8a8a8; opacity: 0.6"/>
   </g>
   <g id="patch_20">
    <path d="M 53.658028 162.771135 
C 54.184557 162.771135 54.689592 162.561943 55.061904 162.189631 
C 55.434217 161.817318 55.643409 161.312283 55.643409 160.785754 
C 55.643409 160.259225 55.434217 159.75419 55.061904 159.381877 
C 54.689592 159.009565 54.184557 158.800372 53.658028 158.800372 
C 53.131498 158.800372 52.626463 159.009565 52.254151 159.381877 
C 51.881838 159.75419 51.672646 160.259225 51.672646 160.785754 
C 51.672646 161.312283 51.881838 161.817318 52.254151 162.189631 
C 52.626463 162.561943 53.131498 162.771135 53.658028 162.771135 
z
" clip-path="url(#p82225e2eb5)" style="fill: #002d9c; stroke: #002d9c; stroke-width: 0.987559; stroke-linejoin: miter"/>
   </g>
   <g id="patch_21">
    <path d="M 53.658028 43.240991 
C 54.886596 43.240991 56.065011 42.752876 56.93374 41.884147 
C 57.802469 41.015417 58.290584 39.837003 58.290584 38.608434 
C 58.290584 37.379866 57.802469 36.201451 56.93374 35.332722 
C 56.065011 34.463993 54.886596 33.975878 53.658028 33.975878 
C 52.429459 33.975878 51.251044 34.463993 50.382315 35.332722 
C 49.513586 36.201451 49.025471 37.379866 49.025471 38.608434 
C 49.025471 39.837003 49.513586 41.015417 50.382315 41.884147 
C 51.251044 42.752876 52.429459 43.240991 53.658028 43.240991 
z
" clip-path="url(#p82225e2eb5)" style="fill: #002d9c; stroke: #002d9c; stroke-width: 1.316746; stroke-linejoin: miter"/>
   </g>
   <g id="patch_22">
    <path d="M 47.040089 187.766579 
L 60.275966 187.766579 
L 60.275966 174.530702 
L 47.040089 174.530702 
z
" clip-path="url(#p82225e2eb5)" style="fill: #33b1ff; stroke: #33b1ff; stroke-width: 0.987559; stroke-linejoin: miter"/>
   </g>
   <g id="patch_23">
    <path d="M 67.402976 85.952146 
L 80.638852 85.952146 
L 80.638852 72.716269 
L 67.402976 72.716269 
z
" clip-path="url(#p82225e2eb5)" style="fill: #002d9c; stroke: #002d9c; stroke-width: 0.987559; stroke-linejoin: miter"/>
   </g>
   <g id="patch_24">
    <path d="M 67.402976 147.040805 
L 80.638852 147.040805 
L 80.638852 133.804929 
L 67.402976 133.804929 
z
" clip-path="url(#p82225e2eb5)" style="fill: #fa4d56; stroke: #fa4d56; stroke-width: 0.987559; stroke-linejoin: miter"/>
   </g>
   <g id="patch_25">
    <path d="M 67.402976 106.315032 
L 80.638852 106.315032 
L 80.638852 93.079156 
L 67.402976 93.079156 
z
" clip-path="url(#p82225e2eb5)" style="fill: #002d9c; stroke: #002d9c; stroke-width: 0.987559; stroke-linejoin: miter"/>
   </g>
   <g id="patch_26">
    <path d="M 67.402976 187.766579 
L 80.638852 187.766579 
L 80.638852 174.530702 
L 67.402976 174.530702 
z
" clip-path="url(#p82225e2eb5)" style="fill: #33b1ff; stroke: #33b1ff; stroke-width: 0.987559; stroke-linejoin: miter"/>
   </g>
   <g id="patch_27">
    <path d="M 87.765863 85.952146 
L 101.001739 85.952146 
L 101.001739 72.716269 
L 87.765863 72.716269 
z
" clip-path="url(#p82225e2eb5)" style="fill: #33b1ff; stroke: #33b1ff; stroke-width: 0.987559; stroke-linejoin: miter"/>
   </g>
   <g id="patch_28">
    <path d="M 94.383801 142.408249 
C 94.91033 142.408249 95.415365 142.199056 95.787677 141.826744 
C 96.15999 141.454432 96.369182 140.949397 96.369182 140.422867 
C 96.369182 139.896338 96.15999 139.391303 95.787677 139.018991 
C 95.415365 138.646678 94.91033 138.437486 94.383801 138.437486 
C 93.857271 138.437486 93.352237 138.646678 92.979924 139.018991 
C 92.607612 139.391303 92.398419 139.896338 92.398419 140.422867 
C 92.398419 140.949397 92.607612 141.454432 92.979924 141.826744 
C 93.352237 142.199056 93.857271 142.408249 94.383801 142.408249 
z
" clip-path="url(#p82225e2eb5)" style="fill: #002d9c; stroke: #002d9c; stroke-width: 0.987559; stroke-linejoin: miter"/>
   </g>
   <g id="patch_29">
    <path d="M 94.383801 124.692537 
C 95.612369 124.692537 96.790784 124.204422 97.659513 123.335693 
C 98.528242 122.466964 99.016357 121.288549 99.016357 120.059981 
C 99.016357 118.831412 98.528242 117.652997 97.659513 116.784268 
C 96.790784 115.915539 95.612369 115.427424 94.383801 115.427424 
C 93.155232 115.427424 91.976818 115.915539 91.108089 116.784268 
C 90.239359 117.652997 89.751244 118.831412 89.751244 120.059981 
C 89.751244 121.288549 90.239359 122.466964 91.108089 123.335693 
C 91.976818 124.204422 93.155232 124.692537 94.383801 124.692537 
z
" clip-path="url(#p82225e2eb5)" style="fill: #002d9c; stroke: #002d9c; stroke-width: 1.316746; stroke-linejoin: miter"/>
   </g>
   <g id="patch_30">
    <path d="M 87.765863 106.315032 
L 101.001739 106.315032 
L 101.001739 93.079156 
L 87.765863 93.079156 
z
" clip-path="url(#p82225e2eb5)" style="fill: #002d9c; stroke: #002d9c; stroke-width: 0.987559; stroke-linejoin: miter"/>
   </g>
   <g id="patch_31">
    <path d="M 87.765863 187.766579 
L 101.001739 187.766579 
L 101.001739 174.530702 
L 87.765863 174.530702 
z
" clip-path="url(#p82225e2eb5)" style="fill: #002d9c; stroke: #002d9c; stroke-width: 0.987559; stroke-linejoin: miter"/>
   </g>
   <g id="patch_32">
    <path d="M 108.128749 85.952146 
L 121.364626 85.952146 
L 121.364626 72.716269 
L 108.128749 72.716269 
z
" clip-path="url(#p82225e2eb5)" style="fill: #33b1ff; stroke: #33b1ff; stroke-width: 0.987559; stroke-linejoin: miter"/>
   </g>
   <g id="patch_33">
    <path d="M 108.128749 106.315032 
L 121.364626 106.315032 
L 121.364626 93.079156 
L 108.128749 93.079156 
z
" clip-path="url(#p82225e2eb5)" style="fill: #002d9c; stroke: #002d9c; stroke-width: 0.987559; stroke-linejoin: miter"/>
   </g>
   <g id="patch_34">
    <path d="M 108.128749 187.766579 
L 121.364626 187.766579 
L 121.364626 174.530702 
L 108.128749 174.530702 
z
" clip-path="url(#p82225e2eb5)" style="fill: #002d9c; stroke: #002d9c; stroke-width: 0.987559; stroke-linejoin: miter"/>
   </g>
   <g id="patch_35">
    <path d="M 135.109574 122.045362 
C 135.636103 122.045362 136.141138 121.83617 136.513451 121.463857 
C 136.885763 121.091545 137.094955 120.58651 137.094955 120.059981 
C 137.094955 119.533451 136.885763 119.028416 136.513451 118.656104 
C 136.141138 118.283792 135.636103 118.074599 135.109574 118.074599 
C 134.583045 118.074599 134.07801 118.283792 133.705697 118.656104 
C 133.333385 119.028416 133.124193 119.533451 133.124193 120.059981 
C 133.124193 120.58651 133.333385 121.091545 133.705697 121.463857 
C 134.07801 121.83617 134.583045 122.045362 135.109574 122.045362 
z
" clip-path="url(#p82225e2eb5)" style="fill: #002d9c; stroke: #002d9c; stroke-width: 0.987559; stroke-linejoin: miter"/>
   </g>
   <g id="patch_36">
    <path d="M 135.109574 43.240991 
C 136.338142 43.240991 137.516557 42.752876 138.385286 41.884147 
C 139.254015 41.015417 139.742131 39.837003 139.742131 38.608434 
C 139.742131 37.379866 139.254015 36.201451 138.385286 35.332722 
C 137.516557 34.463993 136.338142 33.975878 135.109574 33.975878 
C 133.881006 33.975878 132.702591 34.463993 131.833862 35.332722 
C 130.965133 36.201451 130.477017 37.379866 130.477017 38.608434 
C 130.477017 39.837003 130.965133 41.015417 131.833862 41.884147 
C 132.702591 42.752876 133.881006 43.240991 135.109574 43.240991 
z
" clip-path="url(#p82225e2eb5)" style="fill: #002d9c; stroke: #002d9c; stroke-width: 1.316746; stroke-linejoin: miter"/>
   </g>
   <g id="patch_37">
    <path d="M 128.491636 187.766579 
L 141.727512 187.766579 
L 141.727512 174.530702 
L 128.491636 174.530702 
z
" clip-path="url(#p82225e2eb5)" style="fill: #33b1ff; stroke: #33b1ff; stroke-width: 0.987559; stroke-linejoin: miter"/>
   </g>
   <g id="patch_38">
    <path d="M 155.472461 60.956702 
C 155.99899 60.956702 156.504025 60.74751 156.876337 60.375198 
C 157.24865 60.002885 157.457842 59.49785 157.457842 58.971321 
C 157.457842 58.444792 157.24865 57.939757 156.876337 57.567444 
C 156.504025 57.195132 155.99899 56.985939 155.472461 56.985939 
C 154.945931 56.985939 154.440896 57.195132 154.068584 57.567444 
C 153.696271 57.939757 153.487079 58.444792 153.487079 58.971321 
C 153.487079 59.49785 153.696271 60.002885 154.068584 60.375198 
C 154.440896 60.74751 154.945931 60.956702 155.472461 60.956702 
z
" clip-path="url(#p82225e2eb5)" style="fill: #002d9c; stroke: #002d9c; stroke-width: 0.987559; stroke-linejoin: miter"/>
   </g>
   <g id="patch_39">
    <path d="M 155.472461 83.966764 
C 156.701029 83.966764 157.879444 83.478649 158.748173 82.60992 
C 159.616902 81.741191 160.105017 80.562776 160.105017 79.334207 
C 160.105017 78.105639 159.616902 76.927224 158.748173 76.058495 
C 157.879444 75.189766 156.701029 74.701651 155.472461 74.701651 
C 154.243892 74.701651 153.065477 75.189766 152.196748 76.058495 
C 151.328019 76.927224 150.839904 78.105639 150.839904 79.334207 
C 150.839904 80.562776 151.328019 81.741191 152.196748 82.60992 
C 153.065477 83.478649 154.243892 83.966764 155.472461 83.966764 
z
" clip-path="url(#p82225e2eb5)" style="fill: #002d9c; stroke: #002d9c; stroke-width: 1.316746; stroke-linejoin: miter"/>
   </g>
   <g id="patch_40">
    <path d="M 148.854522 187.766579 
L 162.090399 187.766579 
L 162.090399 174.530702 
L 148.854522 174.530702 
z
" clip-path="url(#p82225e2eb5)" style="fill: #33b1ff; stroke: #33b1ff; stroke-width: 0.987559; stroke-linejoin: miter"/>
   </g>
   <g id="patch_41">
    <path d="M 175.835347 40.593816 
C 176.361876 40.593816 176.866911 40.384623 177.239224 40.012311 
C 177.611536 39.639999 177.820729 39.134964 177.820729 38.608434 
C 177.820729 38.081905 177.611536 37.57687 177.239224 37.204558 
C 176.866911 36.832245 176.361876 36.623053 175.835347 36.623053 
C 175.308818 36.623053 174.803783 36.832245 174.43147 37.204558 
C 174.059158 37.57687 173.849966 38.081905 173.849966 38.608434 
C 173.849966 39.134964 174.059158 39.639999 174.43147 40.012311 
C 174.803783 40.384623 175.308818 40.593816 175.835347 40.593816 
z
" clip-path="url(#p82225e2eb5)" style="fill: #002d9c; stroke: #002d9c; stroke-width: 0.987559; stroke-linejoin: miter"/>
   </g>
   <g id="patch_42">
    <path d="M 175.835347 124.692537 
C 177.063916 124.692537 178.24233 124.204422 179.111059 123.335693 
C 179.979788 122.466964 180.467904 121.288549 180.467904 120.059981 
C 180.467904 118.831412 179.979788 117.652997 179.111059 116.784268 
C 178.24233 115.915539 177.063916 115.427424 175.835347 115.427424 
C 174.606779 115.427424 173.428364 115.915539 172.559635 116.784268 
C 171.690906 117.652997 171.20279 118.831412 171.20279 120.059981 
C 171.20279 121.288549 171.690906 122.466964 172.559635 123.335693 
C 173.428364 124.204422 174.606779 124.692537 175.835347 124.692537 
z
" clip-path="url(#p82225e2eb5)" style="fill: #002d9c; stroke: #002d9c; stroke-width: 1.316746; stroke-linejoin: miter"/>
   </g>
   <g id="patch_43">
    <path d="M 189.580296 65.589259 
L 202.816172 65.589259 
L 202.816172 52.353383 
L 189.580296 52.353383 
z
" clip-path="url(#p82225e2eb5)" style="fill: #fa4d56; stroke: #fa4d56; stroke-width: 0.987559; stroke-linejoin: miter"/>
   </g>
   <g id="patch_44">
    <path d="M 189.580296 126.677919 
L 202.816172 126.677919 
L 202.816172 113.442043 
L 189.580296 113.442043 
z
" clip-path="url(#p82225e2eb5)" style="fill: #002d9c; stroke: #002d9c; stroke-width: 0.987559; stroke-linejoin: miter"/>
   </g>
   <g id="patch_45">
    <path d="M 189.580296 45.226372 
L 202.816172 45.226372 
L 202.816172 31.990496 
L 189.580296 31.990496 
z
" clip-path="url(#p82225e2eb5)" style="fill: #002d9c; stroke: #002d9c; stroke-width: 0.987559; stroke-linejoin: miter"/>
   </g>
   <g id="patch_46">
    <path d="M 189.580296 85.952146 
L 202.816172 85.952146 
L 202.816172 72.716269 
L 189.580296 72.716269 
z
" clip-path="url(#p82225e2eb5)" style="fill: #002d9c; stroke: #002d9c; stroke-width: 0.987559; stroke-linejoin: miter"/>
   </g>
   <g id="patch_47">
    <path d="M 216.56112 142.408249 
C 217.08765 142.408249 217.592685 142.199056 217.964997 141.826744 
C 218.33731 141.454432 218.546502 140.949397 218.546502 140.422867 
C 218.546502 139.896338 218.33731 139.391303 217.964997 139.018991 
C 217.592685 138.646678 217.08765 138.437486 216.56112 138.437486 
C 216.034591 138.437486 215.529556 138.646678 215.157244 139.018991 
C 214.784931 139.391303 214.575739 139.896338 214.575739 140.422867 
C 214.575739 140.949397 214.784931 141.454432 215.157244 141.826744 
C 215.529556 142.199056 216.034591 142.408249 216.56112 142.408249 
z
" clip-path="url(#p82225e2eb5)" style="fill: #002d9c; stroke: #002d9c; stroke-width: 0.987559; stroke-linejoin: miter"/>
   </g>
   <g id="patch_48">
    <path d="M 216.56112 63.603878 
C 217.789689 63.603878 218.968104 63.115762 219.836833 62.247033 
C 220.705562 61.378304 221.193677 60.199889 221.193677 58.971321 
C 221.193677 57.742752 220.705562 56.564338 219.836833 55.695609 
C 218.968104 54.82688 217.789689 54.338764 216.56112 54.338764 
C 215.332552 54.338764 214.154137 54.82688 213.285408 55.695609 
C 212.416679 56.564338 211.928564 57.742752 211.928564 58.971321 
C 211.928564 60.199889 212.416679 61.378304 213.285408 62.247033 
C 214.154137 63.115762 215.332552 63.603878 216.56112 63.603878 
z
" clip-path="url(#p82225e2eb5)" style="fill: #002d9c; stroke: #002d9c; stroke-width: 1.316746; stroke-linejoin: miter"/>
   </g>
   <g id="patch_49">
    <path d="M 230.306069 85.952146 
L 243.541945 85.952146 
L 243.541945 72.716269 
L 230.306069 72.716269 
z
" clip-path="url(#p82225e2eb5)" style="fill: #33b1ff; stroke: #33b1ff; stroke-width: 0.987559; stroke-linejoin: miter"/>
   </g>
   <g id="patch_50">
    <path d="M 230.306069 65.589259 
L 243.541945 65.589259 
L 243.541945 52.353383 
L 230.306069 52.353383 
z
" clip-path="url(#p82225e2eb5)" style="fill: #33b1ff; stroke: #33b1ff; stroke-width: 0.987559; stroke-linejoin: miter"/>
   </g>
   <g id="patch_51">
    <path d="M 250.668955 65.589259 
L 263.904832 65.589259 
L 263.904832 52.353383 
L 250.668955 52.353383 
z
" clip-path="url(#p82225e2eb5)" style="fill: #fa4d56; stroke: #fa4d56; stroke-width: 0.987559; stroke-linejoin: miter"/>
   </g>
   <g id="patch_52">
    <path d="M 271.031842 65.589259 
L 284.267718 65.589259 
L 284.267718 52.353383 
L 271.031842 52.353383 
z
" clip-path="url(#p82225e2eb5)" style="fill: #33b1ff; stroke: #33b1ff; stroke-width: 0.987559; stroke-linejoin: miter"/>
   </g>
   <g id="patch_53">
    <path d="M 298.012667 60.956702 
C 298.539196 60.956702 299.044231 60.74751 299.416543 60.375198 
C 299.788856 60.002885 299.998048 59.49785 299.998048 58.971321 
C 299.998048 58.444792 299.788856 57.939757 299.416543 57.567444 
C 299.044231 57.195132 298.539196 56.985939 298.012667 56.985939 
C 297.486137 56.985939 296.981103 57.195132 296.60879 57.567444 
C 296.236478 57.939757 296.027285 58.444792 296.027285 58.971321 
C 296.027285 59.49785 296.236478 60.002885 296.60879 60.375198 
C 296.981103 60.74751 297.486137 60.956702 298.012667 60.956702 
z
" clip-path="url(#p82225e2eb5)" style="fill: #002d9c; stroke: #002d9c; stroke-width: 0.987559; stroke-linejoin: miter"/>
   </g>
   <g id="patch_54">
    <path d="M 298.012667 124.692537 
C 299.241235 124.692537 300.41965 124.204422 301.288379 123.335693 
C 302.157108 122.466964 302.645223 121.288549 302.645223 120.059981 
C 302.645223 118.831412 302.157108 117.652997 301.288379 116.784268 
C 300.41965 115.915539 299.241235 115.427424 298.012667 115.427424 
C 296.784098 115.427424 295.605684 115.915539 294.736955 116.784268 
C 293.868225 117.652997 293.38011 118.831412 293.38011 120.059981 
C 293.38011 121.288549 293.868225 122.466964 294.736955 123.335693 
C 295.605684 124.204422 296.784098 124.692537 298.012667 124.692537 
z
" clip-path="url(#p82225e2eb5)" style="fill: #002d9c; stroke: #002d9c; stroke-width: 1.316746; stroke-linejoin: miter"/>
   </g>
   <g id="patch_55">
    <path d="M 318.375553 142.408249 
C 318.902083 142.408249 319.407118 142.199056 319.77943 141.826744 
C 320.151742 141.454432 320.360935 140.949397 320.360935 140.422867 
C 320.360935 139.896338 320.151742 139.391303 319.77943 139.018991 
C 319.407118 138.646678 318.902083 138.437486 318.375553 138.437486 
C 317.849024 138.437486 317.343989 138.646678 316.971677 139.018991 
C 316.599364 139.391303 316.390172 139.896338 316.390172 140.422867 
C 316.390172 140.949397 316.599364 141.454432 316.971677 141.826744 
C 317.343989 142.199056 317.849024 142.408249 318.375553 142.408249 
z
" clip-path="url(#p82225e2eb5)" style="fill: #002d9c; stroke: #002d9c; stroke-width: 0.987559; stroke-linejoin: miter"/>
   </g>
   <g id="patch_56">
    <path d="M 318.375553 124.692537 
C 319.604122 124.692537 320.782537 124.204422 321.651266 123.335693 
C 322.519995 122.466964 323.00811 121.288549 323.00811 120.059981 
C 323.00811 118.831412 322.519995 117.652997 321.651266 116.784268 
C 320.782537 115.915539 319.604122 115.427424 318.375553 115.427424 
C 317.146985 115.427424 315.96857 115.915539 315.099841 116.784268 
C 314.231112 117.652997 313.742997 118.831412 313.742997 120.059981 
C 313.742997 121.288549 314.231112 122.466964 315.099841 123.335693 
C 315.96857 124.204422 317.146985 124.692537 318.375553 124.692537 
z
" clip-path="url(#p82225e2eb5)" style="fill: #002d9c; stroke: #002d9c; stroke-width: 1.316746; stroke-linejoin: miter"/>
   </g>
   <g id="patch_57">
    <path d="M 311.757615 65.589259 
L 324.993492 65.589259 
L 324.993492 52.353383 
L 311.757615 52.353383 
z
" clip-path="url(#p82225e2eb5)" style="fill: #fa4d56; stroke: #fa4d56; stroke-width: 0.987559; stroke-linejoin: miter"/>
   </g>
   <g id="patch_58">
    <path d="M 332.120502 126.677919 
L 345.356378 126.677919 
L 345.356378 113.442043 
L 332.120502 113.442043 
z
" clip-path="url(#p82225e2eb5)" style="fill: #002d9c; stroke: #002d9c; stroke-width: 0.987559; stroke-linejoin: miter"/>
   </g>
   <g id="patch_59">
    <path d="M 332.120502 65.589259 
L 345.356378 65.589259 
L 345.356378 52.353383 
L 332.120502 52.353383 
z
" clip-path="url(#p82225e2eb5)" style="fill: #33b1ff; stroke: #33b1ff; stroke-width: 0.987559; stroke-linejoin: miter"/>
   </g>
   <g id="patch_60">
    <path d="M 359.101327 142.408249 
C 359.627856 142.408249 360.132891 142.199056 360.505203 141.826744 
C 360.877516 141.454432 361.086708 140.949397 361.086708 140.422867 
C 361.086708 139.896338 360.877516 139.391303 360.505203 139.018991 
C 360.132891 138.646678 359.627856 138.437486 359.101327 138.437486 
C 358.574797 138.437486 358.069762 138.646678 357.69745 139.018991 
C 357.325137 139.391303 357.115945 139.896338 357.115945 140.422867 
C 357.115945 140.949397 357.325137 141.454432 357.69745 141.826744 
C 358.069762 142.199056 358.574797 142.408249 359.101327 142.408249 
z
" clip-path="url(#p82225e2eb5)" style="fill: #002d9c; stroke: #002d9c; stroke-width: 0.987559; stroke-linejoin: miter"/>
   </g>
   <g id="patch_61">
    <path d="M 359.101327 43.240991 
C 360.329895 43.240991 361.50831 42.752876 362.377039 41.884147 
C 363.245768 41.015417 363.733883 39.837003 363.733883 38.608434 
C 363.733883 37.379866 363.245768 36.201451 362.377039 35.332722 
C 361.50831 34.463993 360.329895 33.975878 359.101327 33.975878 
C 357.872758 33.975878 356.694343 34.463993 355.825614 35.332722 
C 354.956885 36.201451 354.46877 37.379866 354.46877 38.608434 
C 354.46877 39.837003 354.956885 41.015417 355.825614 41.884147 
C 356.694343 42.752876 357.872758 43.240991 359.101327 43.240991 
z
" clip-path="url(#p82225e2eb5)" style="fill: #002d9c; stroke: #002d9c; stroke-width: 1.316746; stroke-linejoin: miter"/>
   </g>
   <g id="patch_62">
    <path d="M 379.464213 122.045362 
C 379.990742 122.045362 380.495777 121.83617 380.86809 121.463857 
C 381.240402 121.091545 381.449595 120.58651 381.449595 120.059981 
C 381.449595 119.533451 381.240402 119.028416 380.86809 118.656104 
C 380.495777 118.283792 379.990742 118.074599 379.464213 118.074599 
C 378.937684 118.074599 378.432649 118.283792 378.060336 118.656104 
C 377.688024 119.028416 377.478832 119.533451 377.478832 120.059981 
C 377.478832 120.58651 377.688024 121.091545 378.060336 121.463857 
C 378.432649 121.83617 378.937684 122.045362 379.464213 122.045362 
z
" clip-path="url(#p82225e2eb5)" style="fill: #002d9c; stroke: #002d9c; stroke-width: 0.987559; stroke-linejoin: miter"/>
   </g>
   <g id="patch_63">
    <path d="M 379.464213 185.781197 
C 380.692782 185.781197 381.871196 185.293082 382.739925 184.424353 
C 383.608654 183.555624 384.09677 182.377209 384.09677 181.14864 
C 384.09677 179.920072 383.608654 178.741657 382.739925 177.872928 
C 381.871196 177.004199 380.692782 176.516084 379.464213 176.516084 
C 378.235645 176.516084 377.05723 177.004199 376.188501 177.872928 
C 375.319772 178.741657 374.831656 179.920072 374.831656 181.14864 
C 374.831656 182.377209 375.319772 183.555624 376.188501 184.424353 
C 377.05723 185.293082 378.235645 185.781197 379.464213 185.781197 
z
" clip-path="url(#p82225e2eb5)" style="fill: #002d9c; stroke: #002d9c; stroke-width: 1.316746; stroke-linejoin: miter"/>
   </g>
   <g id="patch_64">
    <path d="M 372.846275 65.589259 
L 386.082151 65.589259 
L 386.082151 52.353383 
L 372.846275 52.353383 
z
" clip-path="url(#p82225e2eb5)" style="fill: #33b1ff; stroke: #33b1ff; stroke-width: 0.987559; stroke-linejoin: miter"/>
   </g>
   <g id="patch_65">
    <path d="M 399.8271 122.045362 
C 400.353629 122.045362 400.858664 121.83617 401.230976 121.463857 
C 401.603289 121.091545 401.812481 120.58651 401.812481 120.059981 
C 401.812481 119.533451 401.603289 119.028416 401.230976 118.656104 
C 400.858664 118.283792 400.353629 118.074599 399.8271 118.074599 
C 399.30057 118.074599 398.795536 118.283792 398.423223 118.656104 
C 398.050911 119.028416 397.841718 119.533451 397.841718 120.059981 
C 397.841718 120.58651 398.050911 121.091545 398.423223 121.463857 
C 398.795536 121.83617 399.30057 122.045362 399.8271 122.045362 
z
" clip-path="url(#p82225e2eb5)" style="fill: #002d9c; stroke: #002d9c; stroke-width: 0.987559; stroke-linejoin: miter"/>
   </g>
   <g id="patch_66">
    <path d="M 399.8271 104.329651 
C 401.055668 104.329651 402.234083 103.841535 403.102812 102.972806 
C 403.971541 102.104077 404.459656 100.925662 404.459656 99.697094 
C 404.459656 98.468526 403.971541 97.290111 403.102812 96.421382 
C 402.234083 95.552653 401.055668 95.064537 399.8271 95.064537 
C 398.598531 95.064537 397.420117 95.552653 396.551387 96.421382 
C 395.682658 97.290111 395.194543 98.468526 395.194543 99.697094 
C 395.194543 100.925662 395.682658 102.104077 396.551387 102.972806 
C 397.420117 103.841535 398.598531 104.329651 399.8271 104.329651 
z
" clip-path="url(#p82225e2eb5)" style="fill: #002d9c; stroke: #002d9c; stroke-width: 1.316746; stroke-linejoin: miter"/>
   </g>
   <g id="patch_67">
    <path d="M 393.209162 65.589259 
L 406.445038 65.589259 
L 406.445038 52.353383 
L 393.209162 52.353383 
z
" clip-path="url(#p82225e2eb5)" style="fill: #fa4d56; stroke: #fa4d56; stroke-width: 0.987559; stroke-linejoin: miter"/>
   </g>
   <g id="patch_68">
    <path d="M 413.572048 106.315032 
L 426.807924 106.315032 
L 426.807924 93.079156 
L 413.572048 93.079156 
z
" clip-path="url(#p82225e2eb5)" style="fill: #33b1ff; stroke: #33b1ff; stroke-width: 0.987559; stroke-linejoin: miter"/>
   </g>
   <g id="patch_69">
    <path d="M 413.572048 65.589259 
L 426.807924 65.589259 
L 426.807924 52.353383 
L 413.572048 52.353383 
z
" clip-path="url(#p82225e2eb5)" style="fill: #fa4d56; stroke: #fa4d56; stroke-width: 0.987559; stroke-linejoin: miter"/>
   </g>
   <g id="patch_70">
    <path d="M 433.934935 106.315032 
L 447.170811 106.315032 
L 447.170811 93.079156 
L 433.934935 93.079156 
z
" clip-path="url(#p82225e2eb5)" style="fill: #002d9c; stroke: #002d9c; stroke-width: 0.987559; stroke-linejoin: miter"/>
   </g>
   <g id="patch_71">
    <path d="M 474.660708 45.226372 
L 487.896584 45.226372 
L 487.896584 31.990496 
L 474.660708 31.990496 
z
" clip-path="url(#p82225e2eb5)" style="fill: #a8a8a8; stroke: #a8a8a8; stroke-width: 0.987559; stroke-linejoin: miter"/>
   </g>
   <g id="patch_72">
    <path d="M 485.911203 40.593816 
C 485.911203 39.365657 485.422798 38.186543 484.554358 37.318103 
C 483.685919 36.449664 482.506805 35.961259 481.278646 35.961259 
C 480.050487 35.961259 478.871374 36.449664 478.002934 37.318103 
C 477.134494 38.186543 476.646089 39.365657 476.646089 40.593816 
" clip-path="url(#p82225e2eb5)" style="fill: none; stroke: #000000; stroke-width: 1.316746; stroke-linejoin: miter"/>
   </g>
   <g id="line2d_52">
    <path d="M 481.278646 40.593816 
L 485.911203 35.961259 
" clip-path="url(#p82225e2eb5)" style="fill: none; stroke: #000000; stroke-width: 1.316746; stroke-linecap: square"/>
   </g>
   <g id="patch_73">
    <path d="M 495.023595 65.589259 
L 508.259471 65.589259 
L 508.259471 52.353383 
L 495.023595 52.353383 
z
" clip-path="url(#p82225e2eb5)" style="fill: #a8a8a8; stroke: #a8a8a8; stroke-width: 0.987559; stroke-linejoin: miter"/>
   </g>
   <g id="patch_74">
    <path d="M 506.274089 60.956702 
C 506.274089 59.728543 505.785685 58.54943 504.917245 57.68099 
C 504.048805 56.81255 502.869692 56.324146 501.641533 56.324146 
C 500.413374 56.324146 499.23426 56.81255 498.36582 57.68099 
C 497.497381 58.54943 497.008976 59.728543 497.008976 60.956702 
" clip-path="url(#p82225e2eb5)" style="fill: none; stroke: #000000; stroke-width: 1.316746; stroke-linejoin: miter"/>
   </g>
   <g id="line2d_53">
    <path d="M 501.641533 60.956702 
L 506.274089 56.324146 
" clip-path="url(#p82225e2eb5)" style="fill: none; stroke: #000000; stroke-width: 1.316746; stroke-linecap: square"/>
   </g>
   <g id="patch_75">
    <path d="M 515.386481 85.952146 
L 528.622357 85.952146 
L 528.622357 72.716269 
L 515.386481 72.716269 
z
" clip-path="url(#p82225e2eb5)" style="fill: #a8a8a8; stroke: #a8a8a8; stroke-width: 0.987559; stroke-linejoin: miter"/>
   </g>
   <g id="patch_76">
    <path d="M 526.636976 81.319589 
C 526.636976 80.09143 526.148571 78.912316 525.280132 78.043877 
C 524.411692 77.175437 523.232579 76.687032 522.004419 76.687032 
C 520.77626 76.687032 519.597147 77.175437 518.728707 78.043877 
C 517.860267 78.912316 517.371863 80.09143 517.371863 81.319589 
" clip-path="url(#p82225e2eb5)" style="fill: none; stroke: #000000; stroke-width: 1.316746; stroke-linejoin: miter"/>
   </g>
   <g id="line2d_54">
    <path d="M 522.004419 81.319589 
L 526.636976 76.687032 
" clip-path="url(#p82225e2eb5)" style="fill: none; stroke: #000000; stroke-width: 1.316746; stroke-linecap: square"/>
   </g>
   <g id="patch_77">
    <path d="M 535.749368 106.315032 
L 548.985244 106.315032 
L 548.985244 93.079156 
L 535.749368 93.079156 
z
" clip-path="url(#p82225e2eb5)" style="fill: #a8a8a8; stroke: #a8a8a8; stroke-width: 0.987559; stroke-linejoin: miter"/>
   </g>
   <g id="patch_78">
    <path d="M 546.999863 101.682476 
C 546.999863 100.454316 546.511458 99.275203 545.643018 98.406763 
C 544.774578 97.538324 543.595465 97.049919 542.367306 97.049919 
C 541.139147 97.049919 539.960033 97.538324 539.091594 98.406763 
C 538.223154 99.275203 537.734749 100.454316 537.734749 101.682476 
" clip-path="url(#p82225e2eb5)" style="fill: none; stroke: #000000; stroke-width: 1.316746; stroke-linejoin: miter"/>
   </g>
   <g id="line2d_55">
    <path d="M 542.367306 101.682476 
L 546.999863 97.049919 
" clip-path="url(#p82225e2eb5)" style="fill: none; stroke: #000000; stroke-width: 1.316746; stroke-linecap: square"/>
   </g>
   <g id="patch_79">
    <path d="M 47.040089 330.306785 
L 60.275966 330.306785 
L 60.275966 317.070909 
L 47.040089 317.070909 
z
" clip-path="url(#p82225e2eb5)" style="fill: #a8a8a8; stroke: #a8a8a8; stroke-width: 0.987559; stroke-linejoin: miter"/>
   </g>
   <g id="patch_80">
    <path d="M 58.290584 325.674228 
C 58.290584 324.446069 57.80218 323.266956 56.93374 322.398516 
C 56.0653 321.530076 54.886187 321.041671 53.658028 321.041671 
C 52.429868 321.041671 51.250755 321.530076 50.382315 322.398516 
C 49.513876 323.266956 49.025471 324.446069 49.025471 325.674228 
" clip-path="url(#p82225e2eb5)" style="fill: none; stroke: #000000; stroke-width: 1.316746; stroke-linejoin: miter"/>
   </g>
   <g id="line2d_56">
    <path d="M 53.658028 325.674228 
L 58.290584 321.041671 
" clip-path="url(#p82225e2eb5)" style="fill: none; stroke: #000000; stroke-width: 1.316746; stroke-linecap: square"/>
   </g>
   <g id="patch_81">
    <path d="M 67.402976 350.669671 
L 80.638852 350.669671 
L 80.638852 337.433795 
L 67.402976 337.433795 
z
" clip-path="url(#p82225e2eb5)" style="fill: #a8a8a8; stroke: #a8a8a8; stroke-width: 0.987559; stroke-linejoin: miter"/>
   </g>
   <g id="patch_82">
    <path d="M 78.653471 346.037115 
C 78.653471 344.808955 78.165066 343.629842 77.296626 342.761402 
C 76.428187 341.892963 75.249073 341.404558 74.020914 341.404558 
C 72.792755 341.404558 71.613642 341.892963 70.745202 342.761402 
C 69.876762 343.629842 69.388357 344.808955 69.388357 346.037115 
" clip-path="url(#p82225e2eb5)" style="fill: none; stroke: #000000; stroke-width: 1.316746; stroke-linejoin: miter"/>
   </g>
   <g id="line2d_57">
    <path d="M 74.020914 346.037115 
L 78.653471 341.404558 
" clip-path="url(#p82225e2eb5)" style="fill: none; stroke: #000000; stroke-width: 1.316746; stroke-linecap: square"/>
   </g>
   <g id="patch_83">
    <path d="M 87.765863 371.032558 
L 101.001739 371.032558 
L 101.001739 357.796682 
L 87.765863 357.796682 
z
" clip-path="url(#p82225e2eb5)" style="fill: #a8a8a8; stroke: #a8a8a8; stroke-width: 0.987559; stroke-linejoin: miter"/>
   </g>
   <g id="patch_84">
    <path d="M 99.016357 366.400001 
C 99.016357 365.171842 98.527953 363.992729 97.659513 363.124289 
C 96.791073 362.255849 95.61196 361.767445 94.383801 361.767445 
C 93.155642 361.767445 91.976528 362.255849 91.108089 363.124289 
C 90.239649 363.992729 89.751244 365.171842 89.751244 366.400001 
" clip-path="url(#p82225e2eb5)" style="fill: none; stroke: #000000; stroke-width: 1.316746; stroke-linejoin: miter"/>
   </g>
   <g id="line2d_58">
    <path d="M 94.383801 366.400001 
L 99.016357 361.767445 
" clip-path="url(#p82225e2eb5)" style="fill: none; stroke: #000000; stroke-width: 1.316746; stroke-linecap: square"/>
   </g>
   <g id="patch_85">
    <path d="M 108.128749 391.395445 
L 121.364626 391.395445 
L 121.364626 378.159568 
L 108.128749 378.159568 
z
" clip-path="url(#p82225e2eb5)" style="fill: #a8a8a8; stroke: #a8a8a8; stroke-width: 0.987559; stroke-linejoin: miter"/>
   </g>
   <g id="patch_86">
    <path d="M 119.379244 386.762888 
C 119.379244 385.534729 118.890839 384.355615 118.0224 383.487176 
C 117.15396 382.618736 115.974847 382.130331 114.746687 382.130331 
C 113.518528 382.130331 112.339415 382.618736 111.470975 383.487176 
C 110.602535 384.355615 110.114131 385.534729 110.114131 386.762888 
" clip-path="url(#p82225e2eb5)" style="fill: none; stroke: #000000; stroke-width: 1.316746; stroke-linejoin: miter"/>
   </g>
   <g id="line2d_59">
    <path d="M 114.746687 386.762888 
L 119.379244 382.130331 
" clip-path="url(#p82225e2eb5)" style="fill: none; stroke: #000000; stroke-width: 1.316746; stroke-linecap: square"/>
   </g>
   <g id="line2d_60">
    <path d="M 53.658028 41.25561 
L 53.658028 35.961259 
" clip-path="url(#p82225e2eb5)" style="fill: none; stroke: #ffffff; stroke-width: 1.316746; stroke-linecap: square"/>
   </g>
   <g id="line2d_61">
    <path d="M 51.010852 38.608434 
L 56.305203 38.608434 
" clip-path="url(#p82225e2eb5)" style="fill: none; stroke: #ffffff; stroke-width: 1.316746; stroke-linecap: square"/>
   </g>
   <g id="line2d_62">
    <path d="M 94.383801 122.707156 
L 94.383801 117.412805 
" clip-path="url(#p82225e2eb5)" style="fill: none; stroke: #ffffff; stroke-width: 1.316746; stroke-linecap: square"/>
   </g>
   <g id="line2d_63">
    <path d="M 91.736626 120.059981 
L 97.030976 120.059981 
" clip-path="url(#p82225e2eb5)" style="fill: none; stroke: #ffffff; stroke-width: 1.316746; stroke-linecap: square"/>
   </g>
   <g id="line2d_64">
    <path d="M 135.109574 41.25561 
L 135.109574 35.961259 
" clip-path="url(#p82225e2eb5)" style="fill: none; stroke: #ffffff; stroke-width: 1.316746; stroke-linecap: square"/>
   </g>
   <g id="line2d_65">
    <path d="M 132.462399 38.608434 
L 137.756749 38.608434 
" clip-path="url(#p82225e2eb5)" style="fill: none; stroke: #ffffff; stroke-width: 1.316746; stroke-linecap: square"/>
   </g>
   <g id="line2d_66">
    <path d="M 155.472461 81.981383 
L 155.472461 76.687032 
" clip-path="url(#p82225e2eb5)" style="fill: none; stroke: #ffffff; stroke-width: 1.316746; stroke-linecap: square"/>
   </g>
   <g id="line2d_67">
    <path d="M 152.825285 79.334207 
L 158.119636 79.334207 
" clip-path="url(#p82225e2eb5)" style="fill: none; stroke: #ffffff; stroke-width: 1.316746; stroke-linecap: square"/>
   </g>
   <g id="line2d_68">
    <path d="M 175.835347 122.707156 
L 175.835347 117.412805 
" clip-path="url(#p82225e2eb5)" style="fill: none; stroke: #ffffff; stroke-width: 1.316746; stroke-linecap: square"/>
   </g>
   <g id="line2d_69">
    <path d="M 173.188172 120.059981 
L 178.482522 120.059981 
" clip-path="url(#p82225e2eb5)" style="fill: none; stroke: #ffffff; stroke-width: 1.316746; stroke-linecap: square"/>
   </g>
   <g id="line2d_70">
    <path d="M 216.56112 61.618496 
L 216.56112 56.324146 
" clip-path="url(#p82225e2eb5)" style="fill: none; stroke: #ffffff; stroke-width: 1.316746; stroke-linecap: square"/>
   </g>
   <g id="line2d_71">
    <path d="M 213.913945 58.971321 
L 219.208296 58.971321 
" clip-path="url(#p82225e2eb5)" style="fill: none; stroke: #ffffff; stroke-width: 1.316746; stroke-linecap: square"/>
   </g>
   <g id="line2d_72">
    <path d="M 298.012667 122.707156 
L 298.012667 117.412805 
" clip-path="url(#p82225e2eb5)" style="fill: none; stroke: #ffffff; stroke-width: 1.316746; stroke-linecap: square"/>
   </g>
   <g id="line2d_73">
    <path d="M 295.365492 120.059981 
L 300.659842 120.059981 
" clip-path="url(#p82225e2eb5)" style="fill: none; stroke: #ffffff; stroke-width: 1.316746; stroke-linecap: square"/>
   </g>
   <g id="line2d_74">
    <path d="M 318.375553 122.707156 
L 318.375553 117.412805 
" clip-path="url(#p82225e2eb5)" style="fill: none; stroke: #ffffff; stroke-width: 1.316746; stroke-linecap: square"/>
   </g>
   <g id="line2d_75">
    <path d="M 315.728378 120.059981 
L 321.022729 120.059981 
" clip-path="url(#p82225e2eb5)" style="fill: none; stroke: #ffffff; stroke-width: 1.316746; stroke-linecap: square"/>
   </g>
   <g id="line2d_76">
    <path d="M 359.101327 41.25561 
L 359.101327 35.961259 
" clip-path="url(#p82225e2eb5)" style="fill: none; stroke: #ffffff; stroke-width: 1.316746; stroke-linecap: square"/>
   </g>
   <g id="line2d_77">
    <path d="M 356.454151 38.608434 
L 361.748502 38.608434 
" clip-path="url(#p82225e2eb5)" style="fill: none; stroke: #ffffff; stroke-width: 1.316746; stroke-linecap: square"/>
   </g>
   <g id="line2d_78">
    <path d="M 379.464213 183.795816 
L 379.464213 178.501465 
" clip-path="url(#p82225e2eb5)" style="fill: none; stroke: #ffffff; stroke-width: 1.316746; stroke-linecap: square"/>
   </g>
   <g id="line2d_79">
    <path d="M 376.817038 181.14864 
L 382.111388 181.14864 
" clip-path="url(#p82225e2eb5)" style="fill: none; stroke: #ffffff; stroke-width: 1.316746; stroke-linecap: square"/>
   </g>
   <g id="line2d_80">
    <path d="M 399.8271 102.344269 
L 399.8271 97.049919 
" clip-path="url(#p82225e2eb5)" style="fill: none; stroke: #ffffff; stroke-width: 1.316746; stroke-linecap: square"/>
   </g>
   <g id="line2d_81">
    <path d="M 397.179924 99.697094 
L 402.474275 99.697094 
" clip-path="url(#p82225e2eb5)" style="fill: none; stroke: #ffffff; stroke-width: 1.316746; stroke-linecap: square"/>
   </g>
   <g id="text_2">
    <g clip-path="url(#p82225e2eb5)">
     <!-- ${q}_{0}$ -->
     <g transform="translate(26.714093 41.538836) scale(0.106986 -0.106986)">
      <defs>
       <path id="DejaVuSans-Oblique-71" d="M 2669 525 
Q 2438 222 2123 65 
Q 1809 -91 1428 -91 
Q 897 -91 595 267 
Q 294 625 294 1253 
Q 294 1759 480 2231 
Q 666 2703 1013 3078 
Q 1238 3322 1530 3453 
Q 1822 3584 2144 3584 
Q 2531 3584 2781 3431 
Q 3031 3278 3144 2969 
L 3244 3494 
L 3822 3494 
L 2888 -1319 
L 2309 -1319 
L 2669 525 
z
M 891 1338 
Q 891 875 1084 633 
Q 1278 391 1644 391 
Q 2188 391 2572 911 
Q 2956 1431 2956 2175 
Q 2956 2625 2757 2864 
Q 2559 3103 2188 3103 
Q 1916 3103 1684 2976 
Q 1453 2850 1281 2606 
Q 1100 2350 995 2006 
Q 891 1663 891 1338 
z
" transform="scale(0.015625)"/>
      </defs>
      <use xlink:href="#DejaVuSans-Oblique-71"/>
      <use xlink:href="#DejaVuSans-30" transform="translate(63.476562 -16.40625) scale(0.7)"/>
     </g>
    </g>
   </g>
   <g id="text_3">
    <g clip-path="url(#p82225e2eb5)">
     <!-- ${q}_{1}$ -->
     <g transform="translate(26.714093 61.901723) scale(0.106986 -0.106986)">
      <defs>
       <path id="DejaVuSans-31" d="M 794 531 
L 1825 531 
L 1825 4091 
L 703 3866 
L 703 4441 
L 1819 4666 
L 2450 4666 
L 2450 531 
L 3481 531 
L 3481 0 
L 794 0 
L 794 531 
z
" transform="scale(0.015625)"/>
      </defs>
      <use xlink:href="#DejaVuSans-Oblique-71"/>
      <use xlink:href="#DejaVuSans-31" transform="translate(63.476562 -16.40625) scale(0.7)"/>
     </g>
    </g>
   </g>
   <g id="text_4">
    <g clip-path="url(#p82225e2eb5)">
     <!-- ${q}_{2}$ -->
     <g transform="translate(26.714093 82.264609) scale(0.106986 -0.106986)">
      <defs>
       <path id="DejaVuSans-32" d="M 1228 531 
L 3431 531 
L 3431 0 
L 469 0 
L 469 531 
Q 828 903 1448 1529 
Q 2069 2156 2228 2338 
Q 2531 2678 2651 2914 
Q 2772 3150 2772 3378 
Q 2772 3750 2511 3984 
Q 2250 4219 1831 4219 
Q 1534 4219 1204 4116 
Q 875 4013 500 3803 
L 500 4441 
Q 881 4594 1212 4672 
Q 1544 4750 1819 4750 
Q 2544 4750 2975 4387 
Q 3406 4025 3406 3419 
Q 3406 3131 3298 2873 
Q 3191 2616 2906 2266 
Q 2828 2175 2409 1742 
Q 1991 1309 1228 531 
z
" transform="scale(0.015625)"/>
      </defs>
      <use xlink:href="#DejaVuSans-Oblique-71"/>
      <use xlink:href="#DejaVuSans-32" transform="translate(63.476562 -16.40625) scale(0.7)"/>
     </g>
    </g>
   </g>
   <g id="text_5">
    <g clip-path="url(#p82225e2eb5)">
     <!-- ${q}_{3}$ -->
     <g transform="translate(26.714093 102.627496) scale(0.106986 -0.106986)">
      <defs>
       <path id="DejaVuSans-33" d="M 2597 2516 
Q 3050 2419 3304 2112 
Q 3559 1806 3559 1356 
Q 3559 666 3084 287 
Q 2609 -91 1734 -91 
Q 1441 -91 1130 -33 
Q 819 25 488 141 
L 488 750 
Q 750 597 1062 519 
Q 1375 441 1716 441 
Q 2309 441 2620 675 
Q 2931 909 2931 1356 
Q 2931 1769 2642 2001 
Q 2353 2234 1838 2234 
L 1294 2234 
L 1294 2753 
L 1863 2753 
Q 2328 2753 2575 2939 
Q 2822 3125 2822 3475 
Q 2822 3834 2567 4026 
Q 2313 4219 1838 4219 
Q 1578 4219 1281 4162 
Q 984 4106 628 3988 
L 628 4550 
Q 988 4650 1302 4700 
Q 1616 4750 1894 4750 
Q 2613 4750 3031 4423 
Q 3450 4097 3450 3541 
Q 3450 3153 3228 2886 
Q 3006 2619 2597 2516 
z
" transform="scale(0.015625)"/>
      </defs>
      <use xlink:href="#DejaVuSans-Oblique-71"/>
      <use xlink:href="#DejaVuSans-33" transform="translate(63.476562 -16.40625) scale(0.7)"/>
     </g>
    </g>
   </g>
   <g id="text_6">
    <g clip-path="url(#p82225e2eb5)">
     <!-- ${q}_{4}$ -->
     <g transform="translate(26.714093 122.990382) scale(0.106986 -0.106986)">
      <defs>
       <path id="DejaVuSans-34" d="M 2419 4116 
L 825 1625 
L 2419 1625 
L 2419 4116 
z
M 2253 4666 
L 3047 4666 
L 3047 1625 
L 3713 1625 
L 3713 1100 
L 3047 1100 
L 3047 0 
L 2419 0 
L 2419 1100 
L 313 1100 
L 313 1709 
L 2253 4666 
z
" transform="scale(0.015625)"/>
      </defs>
      <use xlink:href="#DejaVuSans-Oblique-71"/>
      <use xlink:href="#DejaVuSans-34" transform="translate(63.476562 -16.40625) scale(0.7)"/>
     </g>
    </g>
   </g>
   <g id="text_7">
    <g clip-path="url(#p82225e2eb5)">
     <!-- ${q}_{5}$ -->
     <g transform="translate(26.714093 143.353269) scale(0.106986 -0.106986)">
      <defs>
       <path id="DejaVuSans-35" d="M 691 4666 
L 3169 4666 
L 3169 4134 
L 1269 4134 
L 1269 2991 
Q 1406 3038 1543 3061 
Q 1681 3084 1819 3084 
Q 2600 3084 3056 2656 
Q 3513 2228 3513 1497 
Q 3513 744 3044 326 
Q 2575 -91 1722 -91 
Q 1428 -91 1123 -41 
Q 819 9 494 109 
L 494 744 
Q 775 591 1075 516 
Q 1375 441 1709 441 
Q 2250 441 2565 725 
Q 2881 1009 2881 1497 
Q 2881 1984 2565 2268 
Q 2250 2553 1709 2553 
Q 1456 2553 1204 2497 
Q 953 2441 691 2322 
L 691 4666 
z
" transform="scale(0.015625)"/>
      </defs>
      <use xlink:href="#DejaVuSans-Oblique-71"/>
      <use xlink:href="#DejaVuSans-35" transform="translate(63.476562 -16.40625) scale(0.7)"/>
     </g>
    </g>
   </g>
   <g id="text_8">
    <g clip-path="url(#p82225e2eb5)">
     <!-- ${q}_{6}$ -->
     <g transform="translate(26.714093 163.716156) scale(0.106986 -0.106986)">
      <defs>
       <path id="DejaVuSans-36" d="M 2113 2584 
Q 1688 2584 1439 2293 
Q 1191 2003 1191 1497 
Q 1191 994 1439 701 
Q 1688 409 2113 409 
Q 2538 409 2786 701 
Q 3034 994 3034 1497 
Q 3034 2003 2786 2293 
Q 2538 2584 2113 2584 
z
M 3366 4563 
L 3366 3988 
Q 3128 4100 2886 4159 
Q 2644 4219 2406 4219 
Q 1781 4219 1451 3797 
Q 1122 3375 1075 2522 
Q 1259 2794 1537 2939 
Q 1816 3084 2150 3084 
Q 2853 3084 3261 2657 
Q 3669 2231 3669 1497 
Q 3669 778 3244 343 
Q 2819 -91 2113 -91 
Q 1303 -91 875 529 
Q 447 1150 447 2328 
Q 447 3434 972 4092 
Q 1497 4750 2381 4750 
Q 2619 4750 2861 4703 
Q 3103 4656 3366 4563 
z
" transform="scale(0.015625)"/>
      </defs>
      <use xlink:href="#DejaVuSans-Oblique-71"/>
      <use xlink:href="#DejaVuSans-36" transform="translate(63.476562 -16.40625) scale(0.7)"/>
     </g>
    </g>
   </g>
   <g id="text_9">
    <g clip-path="url(#p82225e2eb5)">
     <!-- ${q}_{7}$ -->
     <g transform="translate(26.714093 184.079042) scale(0.106986 -0.106986)">
      <defs>
       <path id="DejaVuSans-37" d="M 525 4666 
L 3525 4666 
L 3525 4397 
L 1831 0 
L 1172 0 
L 2766 4134 
L 525 4134 
L 525 4666 
z
" transform="scale(0.015625)"/>
      </defs>
      <use xlink:href="#DejaVuSans-Oblique-71"/>
      <use xlink:href="#DejaVuSans-37" transform="translate(63.476562 -16.40625) scale(0.7)"/>
     </g>
    </g>
   </g>
   <g id="text_10">
    <g clip-path="url(#p82225e2eb5)">
     <!-- 8 -->
     <g transform="translate(44.698357 198.05126) scale(0.068471 -0.068471)">
      <defs>
       <path id="DejaVuSans-38" d="M 2034 2216 
Q 1584 2216 1326 1975 
Q 1069 1734 1069 1313 
Q 1069 891 1326 650 
Q 1584 409 2034 409 
Q 2484 409 2743 651 
Q 3003 894 3003 1313 
Q 3003 1734 2745 1975 
Q 2488 2216 2034 2216 
z
M 1403 2484 
Q 997 2584 770 2862 
Q 544 3141 544 3541 
Q 544 4100 942 4425 
Q 1341 4750 2034 4750 
Q 2731 4750 3128 4425 
Q 3525 4100 3525 3541 
Q 3525 3141 3298 2862 
Q 3072 2584 2669 2484 
Q 3125 2378 3379 2068 
Q 3634 1759 3634 1313 
Q 3634 634 3220 271 
Q 2806 -91 2034 -91 
Q 1263 -91 848 271 
Q 434 634 434 1313 
Q 434 1759 690 2068 
Q 947 2378 1403 2484 
z
M 1172 3481 
Q 1172 3119 1398 2916 
Q 1625 2713 2034 2713 
Q 2441 2713 2670 2916 
Q 2900 3119 2900 3481 
Q 2900 3844 2670 4047 
Q 2441 4250 2034 4250 
Q 1625 4250 1398 4047 
Q 1172 3844 1172 3481 
z
" transform="scale(0.015625)"/>
      </defs>
      <use xlink:href="#DejaVuSans-38"/>
     </g>
    </g>
   </g>
   <g id="text_11">
    <g clip-path="url(#p82225e2eb5)">
     <!-- meas -->
     <g transform="translate(9.455982 204.46366) scale(0.106986 -0.106986)">
      <defs>
       <path id="DejaVuSans-6d" d="M 3328 2828 
Q 3544 3216 3844 3400 
Q 4144 3584 4550 3584 
Q 5097 3584 5394 3201 
Q 5691 2819 5691 2113 
L 5691 0 
L 5113 0 
L 5113 2094 
Q 5113 2597 4934 2840 
Q 4756 3084 4391 3084 
Q 3944 3084 3684 2787 
Q 3425 2491 3425 1978 
L 3425 0 
L 2847 0 
L 2847 2094 
Q 2847 2600 2669 2842 
Q 2491 3084 2119 3084 
Q 1678 3084 1418 2786 
Q 1159 2488 1159 1978 
L 1159 0 
L 581 0 
L 581 3500 
L 1159 3500 
L 1159 2956 
Q 1356 3278 1631 3431 
Q 1906 3584 2284 3584 
Q 2666 3584 2933 3390 
Q 3200 3197 3328 2828 
z
" transform="scale(0.015625)"/>
      </defs>
      <use xlink:href="#DejaVuSans-6d"/>
      <use xlink:href="#DejaVuSans-65" transform="translate(97.412109 0)"/>
      <use xlink:href="#DejaVuSans-61" transform="translate(158.935547 0)"/>
      <use xlink:href="#DejaVuSans-73" transform="translate(220.214844 0)"/>
     </g>
    </g>
   </g>
   <g id="text_12">
    <g clip-path="url(#p82225e2eb5)">
     <!-- ${q}_{0}$ -->
     <g transform="translate(26.714093 245.167702) scale(0.106986 -0.106986)">
      <use xlink:href="#DejaVuSans-Oblique-71"/>
      <use xlink:href="#DejaVuSans-30" transform="translate(63.476562 -16.40625) scale(0.7)"/>
     </g>
    </g>
   </g>
   <g id="text_13">
    <g clip-path="url(#p82225e2eb5)">
     <!-- ${q}_{1}$ -->
     <g transform="translate(26.714093 265.530589) scale(0.106986 -0.106986)">
      <use xlink:href="#DejaVuSans-Oblique-71"/>
      <use xlink:href="#DejaVuSans-31" transform="translate(63.476562 -16.40625) scale(0.7)"/>
     </g>
    </g>
   </g>
   <g id="text_14">
    <g clip-path="url(#p82225e2eb5)">
     <!-- ${q}_{2}$ -->
     <g transform="translate(26.714093 285.893475) scale(0.106986 -0.106986)">
      <use xlink:href="#DejaVuSans-Oblique-71"/>
      <use xlink:href="#DejaVuSans-32" transform="translate(63.476562 -16.40625) scale(0.7)"/>
     </g>
    </g>
   </g>
   <g id="text_15">
    <g clip-path="url(#p82225e2eb5)">
     <!-- ${q}_{3}$ -->
     <g transform="translate(26.714093 306.256362) scale(0.106986 -0.106986)">
      <use xlink:href="#DejaVuSans-Oblique-71"/>
      <use xlink:href="#DejaVuSans-33" transform="translate(63.476562 -16.40625) scale(0.7)"/>
     </g>
    </g>
   </g>
   <g id="text_16">
    <g clip-path="url(#p82225e2eb5)">
     <!-- ${q}_{4}$ -->
     <g transform="translate(26.714093 326.619248) scale(0.106986 -0.106986)">
      <use xlink:href="#DejaVuSans-Oblique-71"/>
      <use xlink:href="#DejaVuSans-34" transform="translate(63.476562 -16.40625) scale(0.7)"/>
     </g>
    </g>
   </g>
   <g id="text_17">
    <g clip-path="url(#p82225e2eb5)">
     <!-- ${q}_{5}$ -->
     <g transform="translate(26.714093 346.982135) scale(0.106986 -0.106986)">
      <use xlink:href="#DejaVuSans-Oblique-71"/>
      <use xlink:href="#DejaVuSans-35" transform="translate(63.476562 -16.40625) scale(0.7)"/>
     </g>
    </g>
   </g>
   <g id="text_18">
    <g clip-path="url(#p82225e2eb5)">
     <!-- ${q}_{6}$ -->
     <g transform="translate(26.714093 367.345022) scale(0.106986 -0.106986)">
      <use xlink:href="#DejaVuSans-Oblique-71"/>
      <use xlink:href="#DejaVuSans-36" transform="translate(63.476562 -16.40625) scale(0.7)"/>
     </g>
    </g>
   </g>
   <g id="text_19">
    <g clip-path="url(#p82225e2eb5)">
     <!-- ${q}_{7}$ -->
     <g transform="translate(26.714093 387.707908) scale(0.106986 -0.106986)">
      <use xlink:href="#DejaVuSans-Oblique-71"/>
      <use xlink:href="#DejaVuSans-37" transform="translate(63.476562 -16.40625) scale(0.7)"/>
     </g>
    </g>
   </g>
   <g id="text_20">
    <g clip-path="url(#p82225e2eb5)">
     <!-- 8 -->
     <g transform="translate(44.698357 401.680126) scale(0.068471 -0.068471)">
      <use xlink:href="#DejaVuSans-38"/>
     </g>
    </g>
   </g>
   <g id="text_21">
    <g clip-path="url(#p82225e2eb5)">
     <!-- meas -->
     <g transform="translate(9.455982 408.092526) scale(0.106986 -0.106986)">
      <use xlink:href="#DejaVuSans-6d"/>
      <use xlink:href="#DejaVuSans-65" transform="translate(97.412109 0)"/>
      <use xlink:href="#DejaVuSans-61" transform="translate(158.935547 0)"/>
      <use xlink:href="#DejaVuSans-73" transform="translate(220.214844 0)"/>
     </g>
    </g>
   </g>
   <g id="text_22">
    <g clip-path="url(#p82225e2eb5)">
     <!-- 1.27 -->
     <g transform="translate(47.794395 186.572761) scale(0.05267 -0.05267)">
      <defs>
       <path id="DejaVuSans-2e" d="M 684 794 
L 1344 794 
L 1344 0 
L 684 0 
L 684 794 
z
" transform="scale(0.015625)"/>
      </defs>
      <use xlink:href="#DejaVuSans-31"/>
      <use xlink:href="#DejaVuSans-2e" transform="translate(63.623047 0)"/>
      <use xlink:href="#DejaVuSans-32" transform="translate(95.410156 0)"/>
      <use xlink:href="#DejaVuSans-37" transform="translate(159.033203 0)"/>
     </g>
    </g>
   </g>
   <g id="text_23">
    <g clip-path="url(#p82225e2eb5)">
     <!-- $\mathrm{R_Z}$ -->
     <g transform="translate(48.437132 181.524966) scale(0.085588 -0.085588)">
      <defs>
       <path id="DejaVuSans-52" d="M 2841 2188 
Q 3044 2119 3236 1894 
Q 3428 1669 3622 1275 
L 4263 0 
L 3584 0 
L 2988 1197 
Q 2756 1666 2539 1819 
Q 2322 1972 1947 1972 
L 1259 1972 
L 1259 0 
L 628 0 
L 628 4666 
L 2053 4666 
Q 2853 4666 3247 4331 
Q 3641 3997 3641 3322 
Q 3641 2881 3436 2590 
Q 3231 2300 2841 2188 
z
M 1259 4147 
L 1259 2491 
L 2053 2491 
Q 2509 2491 2742 2702 
Q 2975 2913 2975 3322 
Q 2975 3731 2742 3939 
Q 2509 4147 2053 4147 
L 1259 4147 
z
" transform="scale(0.015625)"/>
       <path id="DejaVuSans-5a" d="M 359 4666 
L 4025 4666 
L 4025 4184 
L 1075 531 
L 4097 531 
L 4097 0 
L 288 0 
L 288 481 
L 3238 4134 
L 359 4134 
L 359 4666 
z
" transform="scale(0.015625)"/>
      </defs>
      <use xlink:href="#DejaVuSans-52" transform="translate(0 0.09375)"/>
      <use xlink:href="#DejaVuSans-5a" transform="translate(70.439453 -16.3125) scale(0.7)"/>
     </g>
    </g>
   </g>
   <g id="text_24">
    <g clip-path="url(#p82225e2eb5)">
     <!-- X -->
     <g style="fill: #ffffff" transform="translate(71.089509 81.695914) scale(0.085588 -0.085588)">
      <defs>
       <path id="DejaVuSans-58" d="M 403 4666 
L 1081 4666 
L 2241 2931 
L 3406 4666 
L 4084 4666 
L 2584 2425 
L 4184 0 
L 3506 0 
L 2194 1984 
L 872 0 
L 191 0 
L 1856 2491 
L 403 4666 
z
" transform="scale(0.015625)"/>
      </defs>
      <use xlink:href="#DejaVuSans-58"/>
     </g>
    </g>
   </g>
   <g id="text_25">
    <g clip-path="url(#p82225e2eb5)">
     <!-- H -->
     <g transform="translate(70.802654 142.784574) scale(0.085588 -0.085588)">
      <defs>
       <path id="DejaVuSans-48" d="M 628 4666 
L 1259 4666 
L 1259 2753 
L 3553 2753 
L 3553 4666 
L 4184 4666 
L 4184 0 
L 3553 0 
L 3553 2222 
L 1259 2222 
L 1259 0 
L 628 0 
L 628 4666 
z
" transform="scale(0.015625)"/>
      </defs>
      <use xlink:href="#DejaVuSans-48"/>
     </g>
    </g>
   </g>
   <g id="text_26">
    <g clip-path="url(#p82225e2eb5)">
     <!-- X -->
     <g style="fill: #ffffff" transform="translate(71.089509 102.058801) scale(0.085588 -0.085588)">
      <use xlink:href="#DejaVuSans-58"/>
     </g>
    </g>
   </g>
   <g id="text_27">
    <g clip-path="url(#p82225e2eb5)">
     <!-- 1.12 -->
     <g transform="translate(68.157282 186.572761) scale(0.05267 -0.05267)">
      <use xlink:href="#DejaVuSans-31"/>
      <use xlink:href="#DejaVuSans-2e" transform="translate(63.623047 0)"/>
      <use xlink:href="#DejaVuSans-31" transform="translate(95.410156 0)"/>
      <use xlink:href="#DejaVuSans-32" transform="translate(159.033203 0)"/>
     </g>
    </g>
   </g>
   <g id="text_28">
    <g clip-path="url(#p82225e2eb5)">
     <!-- $\mathrm{R_Z}$ -->
     <g transform="translate(68.800018 181.524966) scale(0.085588 -0.085588)">
      <use xlink:href="#DejaVuSans-52" transform="translate(0 0.09375)"/>
      <use xlink:href="#DejaVuSans-5a" transform="translate(70.439453 -16.3125) scale(0.7)"/>
     </g>
    </g>
   </g>
   <g id="text_29">
    <g clip-path="url(#p82225e2eb5)">
     <!-- 2.37 -->
     <g transform="translate(88.520168 84.758328) scale(0.05267 -0.05267)">
      <use xlink:href="#DejaVuSans-32"/>
      <use xlink:href="#DejaVuSans-2e" transform="translate(63.623047 0)"/>
      <use xlink:href="#DejaVuSans-33" transform="translate(95.410156 0)"/>
      <use xlink:href="#DejaVuSans-37" transform="translate(159.033203 0)"/>
     </g>
    </g>
   </g>
   <g id="text_30">
    <g clip-path="url(#p82225e2eb5)">
     <!-- $\mathrm{R_Z}$ -->
     <g transform="translate(89.162905 79.710533) scale(0.085588 -0.085588)">
      <use xlink:href="#DejaVuSans-52" transform="translate(0 0.09375)"/>
      <use xlink:href="#DejaVuSans-5a" transform="translate(70.439453 -16.3125) scale(0.7)"/>
     </g>
    </g>
   </g>
   <g id="text_31">
    <g clip-path="url(#p82225e2eb5)">
     <!-- X -->
     <g style="fill: #ffffff" transform="translate(91.452396 102.058801) scale(0.085588 -0.085588)">
      <use xlink:href="#DejaVuSans-58"/>
     </g>
    </g>
   </g>
   <g id="text_32">
    <g clip-path="url(#p82225e2eb5)">
     <!-- X -->
     <g style="fill: #ffffff" transform="translate(91.452396 183.510347) scale(0.085588 -0.085588)">
      <use xlink:href="#DejaVuSans-58"/>
     </g>
    </g>
   </g>
   <g id="text_33">
    <g clip-path="url(#p82225e2eb5)">
     <!-- 0.974 -->
     <g transform="translate(107.207496 84.758328) scale(0.05267 -0.05267)">
      <defs>
       <path id="DejaVuSans-39" d="M 703 97 
L 703 672 
Q 941 559 1184 500 
Q 1428 441 1663 441 
Q 2288 441 2617 861 
Q 2947 1281 2994 2138 
Q 2813 1869 2534 1725 
Q 2256 1581 1919 1581 
Q 1219 1581 811 2004 
Q 403 2428 403 3163 
Q 403 3881 828 4315 
Q 1253 4750 1959 4750 
Q 2769 4750 3195 4129 
Q 3622 3509 3622 2328 
Q 3622 1225 3098 567 
Q 2575 -91 1691 -91 
Q 1453 -91 1209 -44 
Q 966 3 703 97 
z
M 1959 2075 
Q 2384 2075 2632 2365 
Q 2881 2656 2881 3163 
Q 2881 3666 2632 3958 
Q 2384 4250 1959 4250 
Q 1534 4250 1286 3958 
Q 1038 3666 1038 3163 
Q 1038 2656 1286 2365 
Q 1534 2075 1959 2075 
z
" transform="scale(0.015625)"/>
      </defs>
      <use xlink:href="#DejaVuSans-30"/>
      <use xlink:href="#DejaVuSans-2e" transform="translate(63.623047 0)"/>
      <use xlink:href="#DejaVuSans-39" transform="translate(95.410156 0)"/>
      <use xlink:href="#DejaVuSans-37" transform="translate(159.033203 0)"/>
      <use xlink:href="#DejaVuSans-34" transform="translate(222.65625 0)"/>
     </g>
    </g>
   </g>
   <g id="text_34">
    <g clip-path="url(#p82225e2eb5)">
     <!-- $\mathrm{R_Z}$ -->
     <g transform="translate(109.525791 79.710533) scale(0.085588 -0.085588)">
      <use xlink:href="#DejaVuSans-52" transform="translate(0 0.09375)"/>
      <use xlink:href="#DejaVuSans-5a" transform="translate(70.439453 -16.3125) scale(0.7)"/>
     </g>
    </g>
   </g>
   <g id="text_35">
    <g clip-path="url(#p82225e2eb5)">
     <!-- X -->
     <g style="fill: #ffffff" transform="translate(111.815283 102.058801) scale(0.085588 -0.085588)">
      <use xlink:href="#DejaVuSans-58"/>
     </g>
    </g>
   </g>
   <g id="text_36">
    <g clip-path="url(#p82225e2eb5)">
     <!-- X -->
     <g style="fill: #ffffff" transform="translate(111.815283 183.510347) scale(0.085588 -0.085588)">
      <use xlink:href="#DejaVuSans-58"/>
     </g>
    </g>
   </g>
   <g id="text_37">
    <g clip-path="url(#p82225e2eb5)">
     <!-- 0.343 -->
     <g transform="translate(127.570383 186.572761) scale(0.05267 -0.05267)">
      <use xlink:href="#DejaVuSans-30"/>
      <use xlink:href="#DejaVuSans-2e" transform="translate(63.623047 0)"/>
      <use xlink:href="#DejaVuSans-33" transform="translate(95.410156 0)"/>
      <use xlink:href="#DejaVuSans-34" transform="translate(159.033203 0)"/>
      <use xlink:href="#DejaVuSans-33" transform="translate(222.65625 0)"/>
     </g>
    </g>
   </g>
   <g id="text_38">
    <g clip-path="url(#p82225e2eb5)">
     <!-- $\mathrm{R_Z}$ -->
     <g transform="translate(129.888678 181.524966) scale(0.085588 -0.085588)">
      <use xlink:href="#DejaVuSans-52" transform="translate(0 0.09375)"/>
      <use xlink:href="#DejaVuSans-5a" transform="translate(70.439453 -16.3125) scale(0.7)"/>
     </g>
    </g>
   </g>
   <g id="text_39">
    <g clip-path="url(#p82225e2eb5)">
     <!-- 0.217 -->
     <g transform="translate(147.933269 186.572761) scale(0.05267 -0.05267)">
      <use xlink:href="#DejaVuSans-30"/>
      <use xlink:href="#DejaVuSans-2e" transform="translate(63.623047 0)"/>
      <use xlink:href="#DejaVuSans-32" transform="translate(95.410156 0)"/>
      <use xlink:href="#DejaVuSans-31" transform="translate(159.033203 0)"/>
      <use xlink:href="#DejaVuSans-37" transform="translate(222.65625 0)"/>
     </g>
    </g>
   </g>
   <g id="text_40">
    <g clip-path="url(#p82225e2eb5)">
     <!-- $\mathrm{R_Z}$ -->
     <g transform="translate(150.251565 181.524966) scale(0.085588 -0.085588)">
      <use xlink:href="#DejaVuSans-52" transform="translate(0 0.09375)"/>
      <use xlink:href="#DejaVuSans-5a" transform="translate(70.439453 -16.3125) scale(0.7)"/>
     </g>
    </g>
   </g>
   <g id="text_41">
    <g clip-path="url(#p82225e2eb5)">
     <!-- H -->
     <g transform="translate(192.979974 61.333027) scale(0.085588 -0.085588)">
      <use xlink:href="#DejaVuSans-48"/>
     </g>
    </g>
   </g>
   <g id="text_42">
    <g clip-path="url(#p82225e2eb5)">
     <!-- X -->
     <g style="fill: #ffffff" transform="translate(193.266829 122.421687) scale(0.085588 -0.085588)">
      <use xlink:href="#DejaVuSans-58"/>
     </g>
    </g>
   </g>
   <g id="text_43">
    <g clip-path="url(#p82225e2eb5)">
     <!-- X -->
     <g style="fill: #ffffff" transform="translate(193.266829 40.970141) scale(0.085588 -0.085588)">
      <use xlink:href="#DejaVuSans-58"/>
     </g>
    </g>
   </g>
   <g id="text_44">
    <g clip-path="url(#p82225e2eb5)">
     <!-- X -->
     <g style="fill: #ffffff" transform="translate(193.266829 81.695914) scale(0.085588 -0.085588)">
      <use xlink:href="#DejaVuSans-58"/>
     </g>
    </g>
   </g>
   <g id="text_45">
    <g clip-path="url(#p82225e2eb5)">
     <!-- 1.04 -->
     <g transform="translate(231.060375 84.758328) scale(0.05267 -0.05267)">
      <use xlink:href="#DejaVuSans-31"/>
      <use xlink:href="#DejaVuSans-2e" transform="translate(63.623047 0)"/>
      <use xlink:href="#DejaVuSans-30" transform="translate(95.410156 0)"/>
      <use xlink:href="#DejaVuSans-34" transform="translate(159.033203 0)"/>
     </g>
    </g>
   </g>
   <g id="text_46">
    <g clip-path="url(#p82225e2eb5)">
     <!-- $\mathrm{R_Z}$ -->
     <g transform="translate(231.703111 79.710533) scale(0.085588 -0.085588)">
      <use xlink:href="#DejaVuSans-52" transform="translate(0 0.09375)"/>
      <use xlink:href="#DejaVuSans-5a" transform="translate(70.439453 -16.3125) scale(0.7)"/>
     </g>
    </g>
   </g>
   <g id="text_47">
    <g clip-path="url(#p82225e2eb5)">
     <!-- 0.6 -->
     <g transform="translate(232.735933 64.395442) scale(0.05267 -0.05267)">
      <use xlink:href="#DejaVuSans-30"/>
      <use xlink:href="#DejaVuSans-2e" transform="translate(63.623047 0)"/>
      <use xlink:href="#DejaVuSans-36" transform="translate(95.410156 0)"/>
     </g>
    </g>
   </g>
   <g id="text_48">
    <g clip-path="url(#p82225e2eb5)">
     <!-- $\mathrm{R_Z}$ -->
     <g transform="translate(231.703111 59.347646) scale(0.085588 -0.085588)">
      <use xlink:href="#DejaVuSans-52" transform="translate(0 0.09375)"/>
      <use xlink:href="#DejaVuSans-5a" transform="translate(70.439453 -16.3125) scale(0.7)"/>
     </g>
    </g>
   </g>
   <g id="text_49">
    <g clip-path="url(#p82225e2eb5)">
     <!-- H -->
     <g transform="translate(254.068634 61.333027) scale(0.085588 -0.085588)">
      <use xlink:href="#DejaVuSans-48"/>
     </g>
    </g>
   </g>
   <g id="text_50">
    <g clip-path="url(#p82225e2eb5)">
     <!-- 1.72 -->
     <g transform="translate(271.786148 64.395442) scale(0.05267 -0.05267)">
      <use xlink:href="#DejaVuSans-31"/>
      <use xlink:href="#DejaVuSans-2e" transform="translate(63.623047 0)"/>
      <use xlink:href="#DejaVuSans-37" transform="translate(95.410156 0)"/>
      <use xlink:href="#DejaVuSans-32" transform="translate(159.033203 0)"/>
     </g>
    </g>
   </g>
   <g id="text_51">
    <g clip-path="url(#p82225e2eb5)">
     <!-- $\mathrm{R_Z}$ -->
     <g transform="translate(272.428884 59.347646) scale(0.085588 -0.085588)">
      <use xlink:href="#DejaVuSans-52" transform="translate(0 0.09375)"/>
      <use xlink:href="#DejaVuSans-5a" transform="translate(70.439453 -16.3125) scale(0.7)"/>
     </g>
    </g>
   </g>
   <g id="text_52">
    <g clip-path="url(#p82225e2eb5)">
     <!-- H -->
     <g transform="translate(315.157294 61.333027) scale(0.085588 -0.085588)">
      <use xlink:href="#DejaVuSans-48"/>
     </g>
    </g>
   </g>
   <g id="text_53">
    <g clip-path="url(#p82225e2eb5)">
     <!-- X -->
     <g style="fill: #ffffff" transform="translate(335.807035 122.421687) scale(0.085588 -0.085588)">
      <use xlink:href="#DejaVuSans-58"/>
     </g>
    </g>
   </g>
   <g id="text_54">
    <g clip-path="url(#p82225e2eb5)">
     <!-- 1.53 -->
     <g transform="translate(332.874808 64.395442) scale(0.05267 -0.05267)">
      <use xlink:href="#DejaVuSans-31"/>
      <use xlink:href="#DejaVuSans-2e" transform="translate(63.623047 0)"/>
      <use xlink:href="#DejaVuSans-35" transform="translate(95.410156 0)"/>
      <use xlink:href="#DejaVuSans-33" transform="translate(159.033203 0)"/>
     </g>
    </g>
   </g>
   <g id="text_55">
    <g clip-path="url(#p82225e2eb5)">
     <!-- $\mathrm{R_Z}$ -->
     <g transform="translate(333.517544 59.347646) scale(0.085588 -0.085588)">
      <use xlink:href="#DejaVuSans-52" transform="translate(0 0.09375)"/>
      <use xlink:href="#DejaVuSans-5a" transform="translate(70.439453 -16.3125) scale(0.7)"/>
     </g>
    </g>
   </g>
   <g id="text_56">
    <g clip-path="url(#p82225e2eb5)">
     <!-- 2.22 -->
     <g transform="translate(373.600581 64.395442) scale(0.05267 -0.05267)">
      <use xlink:href="#DejaVuSans-32"/>
      <use xlink:href="#DejaVuSans-2e" transform="translate(63.623047 0)"/>
      <use xlink:href="#DejaVuSans-32" transform="translate(95.410156 0)"/>
      <use xlink:href="#DejaVuSans-32" transform="translate(159.033203 0)"/>
     </g>
    </g>
   </g>
   <g id="text_57">
    <g clip-path="url(#p82225e2eb5)">
     <!-- $\mathrm{R_Z}$ -->
     <g transform="translate(374.243317 59.347646) scale(0.085588 -0.085588)">
      <use xlink:href="#DejaVuSans-52" transform="translate(0 0.09375)"/>
      <use xlink:href="#DejaVuSans-5a" transform="translate(70.439453 -16.3125) scale(0.7)"/>
     </g>
    </g>
   </g>
   <g id="text_58">
    <g clip-path="url(#p82225e2eb5)">
     <!-- H -->
     <g transform="translate(396.60884 61.333027) scale(0.085588 -0.085588)">
      <use xlink:href="#DejaVuSans-48"/>
     </g>
    </g>
   </g>
   <g id="text_59">
    <g clip-path="url(#p82225e2eb5)">
     <!-- 0.764 -->
     <g transform="translate(412.650795 105.121215) scale(0.05267 -0.05267)">
      <use xlink:href="#DejaVuSans-30"/>
      <use xlink:href="#DejaVuSans-2e" transform="translate(63.623047 0)"/>
      <use xlink:href="#DejaVuSans-37" transform="translate(95.410156 0)"/>
      <use xlink:href="#DejaVuSans-36" transform="translate(159.033203 0)"/>
      <use xlink:href="#DejaVuSans-34" transform="translate(222.65625 0)"/>
     </g>
    </g>
   </g>
   <g id="text_60">
    <g clip-path="url(#p82225e2eb5)">
     <!-- $\mathrm{R_Z}$ -->
     <g transform="translate(414.96909 100.073419) scale(0.085588 -0.085588)">
      <use xlink:href="#DejaVuSans-52" transform="translate(0 0.09375)"/>
      <use xlink:href="#DejaVuSans-5a" transform="translate(70.439453 -16.3125) scale(0.7)"/>
     </g>
    </g>
   </g>
   <g id="text_61">
    <g clip-path="url(#p82225e2eb5)">
     <!-- H -->
     <g transform="translate(416.971727 61.333027) scale(0.085588 -0.085588)">
      <use xlink:href="#DejaVuSans-48"/>
     </g>
    </g>
   </g>
   <g id="text_62">
    <g clip-path="url(#p82225e2eb5)">
     <!-- X -->
     <g style="fill: #ffffff" transform="translate(437.621468 102.058801) scale(0.085588 -0.085588)">
      <use xlink:href="#DejaVuSans-58"/>
     </g>
    </g>
   </g>
   <g id="line2d_82">
    <path d="M 460.91576 28.426991 
L 460.91576 48.789878 
" clip-path="url(#p82225e2eb5)" style="fill: none; stroke-dasharray: 2.435979,1.053396; stroke-dashoffset: 0; stroke: #000000; stroke-width: 0.658373"/>
   </g>
   <g id="line2d_83">
    <path d="M 460.91576 48.789878 
L 460.91576 69.152764 
" clip-path="url(#p82225e2eb5)" style="fill: none; stroke-dasharray: 2.435979,1.053396; stroke-dashoffset: 0; stroke: #000000; stroke-width: 0.658373"/>
   </g>
   <g id="line2d_84">
    <path d="M 460.91576 69.152764 
L 460.91576 89.515651 
" clip-path="url(#p82225e2eb5)" style="fill: none; stroke-dasharray: 2.435979,1.053396; stroke-dashoffset: 0; stroke: #000000; stroke-width: 0.658373"/>
   </g>
   <g id="line2d_85">
    <path d="M 460.91576 89.515651 
L 460.91576 109.878537 
" clip-path="url(#p82225e2eb5)" style="fill: none; stroke-dasharray: 2.435979,1.053396; stroke-dashoffset: 0; stroke: #000000; stroke-width: 0.658373"/>
   </g>
   <g id="line2d_86">
    <path d="M 460.91576 109.878537 
L 460.91576 130.241424 
" clip-path="url(#p82225e2eb5)" style="fill: none; stroke-dasharray: 2.435979,1.053396; stroke-dashoffset: 0; stroke: #000000; stroke-width: 0.658373"/>
   </g>
   <g id="line2d_87">
    <path d="M 460.91576 130.241424 
L 460.91576 150.604311 
" clip-path="url(#p82225e2eb5)" style="fill: none; stroke-dasharray: 2.435979,1.053396; stroke-dashoffset: 0; stroke: #000000; stroke-width: 0.658373"/>
   </g>
   <g id="line2d_88">
    <path d="M 460.91576 150.604311 
L 460.91576 170.967197 
" clip-path="url(#p82225e2eb5)" style="fill: none; stroke-dasharray: 2.435979,1.053396; stroke-dashoffset: 0; stroke: #000000; stroke-width: 0.658373"/>
   </g>
   <g id="line2d_89">
    <path d="M 460.91576 170.967197 
L 460.91576 191.330084 
" clip-path="url(#p82225e2eb5)" style="fill: none; stroke-dasharray: 2.435979,1.053396; stroke-dashoffset: 0; stroke: #000000; stroke-width: 0.658373"/>
   </g>
   <g id="text_63">
    <g clip-path="url(#p82225e2eb5)">
     <!-- 0 -->
     <g transform="translate(486.369368 198.05126) scale(0.068471 -0.068471)">
      <use xlink:href="#DejaVuSans-30"/>
     </g>
    </g>
   </g>
   <g id="text_64">
    <g clip-path="url(#p82225e2eb5)">
     <!-- 1 -->
     <g transform="translate(506.732254 198.05126) scale(0.068471 -0.068471)">
      <use xlink:href="#DejaVuSans-31"/>
     </g>
    </g>
   </g>
   <g id="text_65">
    <g clip-path="url(#p82225e2eb5)">
     <!-- 2 -->
     <g transform="translate(527.095141 198.05126) scale(0.068471 -0.068471)">
      <use xlink:href="#DejaVuSans-32"/>
     </g>
    </g>
   </g>
   <g id="text_66">
    <g clip-path="url(#p82225e2eb5)">
     <!-- 3 -->
     <g transform="translate(547.458028 198.05126) scale(0.068471 -0.068471)">
      <use xlink:href="#DejaVuSans-33"/>
     </g>
    </g>
   </g>
   <g id="text_67">
    <g clip-path="url(#p82225e2eb5)">
     <!-- 4 -->
     <g transform="translate(58.748749 401.680126) scale(0.068471 -0.068471)">
      <use xlink:href="#DejaVuSans-34"/>
     </g>
    </g>
   </g>
   <g id="text_68">
    <g clip-path="url(#p82225e2eb5)">
     <!-- 5 -->
     <g transform="translate(79.111636 401.680126) scale(0.068471 -0.068471)">
      <use xlink:href="#DejaVuSans-35"/>
     </g>
    </g>
   </g>
   <g id="text_69">
    <g clip-path="url(#p82225e2eb5)">
     <!-- 6 -->
     <g transform="translate(99.474522 401.680126) scale(0.068471 -0.068471)">
      <use xlink:href="#DejaVuSans-36"/>
     </g>
    </g>
   </g>
   <g id="text_70">
    <g clip-path="url(#p82225e2eb5)">
     <!-- 7 -->
     <g transform="translate(119.837409 401.680126) scale(0.068471 -0.068471)">
      <use xlink:href="#DejaVuSans-37"/>
     </g>
    </g>
   </g>
  </g>
 </g>
 <defs>
  <clipPath id="p82225e2eb5">
   <rect x="7.2" y="22.318125" width="548.606811" height="395.04"/>
  </clipPath>
 </defs>
</svg>
