<?xml version="1.0" encoding="utf-8" standalone="no"?>
<!DOCTYPE svg PUBLIC "-//W3C//DTD SVG 1.1//EN"
  "http://www.w3.org/Graphics/SVG/1.1/DTD/svg11.dtd">
<svg xmlns:xlink="http://www.w3.org/1999/xlink" width="562.00692pt" height="423.838125pt" viewBox="0 0 562.00692 423.838125" xmlns="http://www.w3.org/2000/svg" version="1.1">
 <metadata>
  <rdf:RDF xmlns:dc="http://purl.org/dc/elements/1.1/" xmlns:cc="http://creativecommons.org/ns#" xmlns:rdf="http://www.w3.org/1999/02/22-rdf-syntax-ns#">
   <cc:Work>
    <dc:type rdf:resource="http://purl.org/dc/dcmitype/StillImage"/>
    <dc:date>2026-03-20T02:23:03.533475</dc:date>
    <dc:format>image/svg+xml</dc:format>
    <dc:creator>
     <cc:Agent>
      <dc:title>Matplotlib v3.10.8, https://matplotlib.org/</dc:title>
     </cc:Agent>
    </dc:creator>
   </cc:Work>
  </rdf:RDF>
 </metadata>
 <defs>
  <style type="text/css">*{stroke-linejoin: round; stroke-linecap: butt}</style>
 </defs>
 <g id="figure_1">
  <g id="patch_1">
   <path d="M 0 423.838125 
L 562.00692 423.838125 
L 562.00692 0 
L 0 0 
z
" style="fill: #ffffff"/>
  </g>
  <g id="axes_1">
   <g id="line2d_1">
    <path d="M 42.597436 38.578744 
L 552.774343 38.578744 
" clip-path="url(#p35d5812380)" style="fill: none; stroke: #000000; stroke-width: 1.316746; stroke-linecap: square"/>
   </g>
   <g id="line2d_2">
    <path d="M 42.597436 58.904517 
L 552.774343 58.904517 
" clip-path="url(#p35d5812380)" style="fill: none; stroke: #000000; stroke-width: 1.316746; stroke-linecap: square"/>
   </g>
   <g id="line2d_3">
    <path d="M 42.597436 79.23029 
L 552.774343 79.23029 
" clip-path="url(#p35d5812380)" style="fill: none; stroke: #000000; stroke-width: 1.316746; stroke-linecap: square"/>
   </g>
   <g id="line2d_4">
    <path d="M 42.597436 99.556063 
L 552.774343 99.556063 
" clip-path="url(#p35d5812380)" style="fill: none; stroke: #000000; stroke-width: 1.316746; stroke-linecap: square"/>
   </g>
   <g id="line2d_5">
    <path d="M 42.597436 119.881836 
L 552.774343 119.881836 
" clip-path="url(#p35d5812380)" style="fill: none; stroke: #000000; stroke-width: 1.316746; stroke-linecap: square"/>
   </g>
   <g id="line2d_6">
    <path d="M 42.597436 140.20761 
L 552.774343 140.20761 
" clip-path="url(#p35d5812380)" style="fill: none; stroke: #000000; stroke-width: 1.316746; stroke-linecap: square"/>
   </g>
   <g id="line2d_7">
    <path d="M 42.597436 160.533383 
L 552.774343 160.533383 
" clip-path="url(#p35d5812380)" style="fill: none; stroke: #000000; stroke-width: 1.316746; stroke-linecap: square"/>
   </g>
   <g id="line2d_8">
    <path d="M 42.597436 180.859156 
L 552.774343 180.859156 
" clip-path="url(#p35d5812380)" style="fill: none; stroke: #000000; stroke-width: 1.316746; stroke-linecap: square"/>
   </g>
   <g id="line2d_9">
    <path d="M 46.66259 203.217506 
L 48.695168 199.152352 
" clip-path="url(#p35d5812380)" style="fill: none; stroke: #778899; stroke-width: 1.5; stroke-linecap: square"/>
   </g>
   <g id="line2d_10">
    <path d="M 42.597436 200.524341 
L 552.774343 200.524341 
" clip-path="url(#p35d5812380)" style="fill: none; stroke: #778899; stroke-width: 1.316746; stroke-linecap: square"/>
   </g>
   <g id="line2d_11">
    <path d="M 42.597436 201.845517 
L 552.774343 201.845517 
" clip-path="url(#p35d5812380)" style="fill: none; stroke: #778899; stroke-width: 1.316746; stroke-linecap: square"/>
   </g>
   <g id="line2d_12">
    <path d="M 552.774343 38.578744 
L 552.774343 201.184929 
" clip-path="url(#p35d5812380)" style="fill: none; stroke: #000000; stroke-width: 0.987559; stroke-linecap: square"/>
   </g>
   <g id="line2d_13">
    <path d="M 42.597436 241.836476 
L 552.774343 241.836476 
" clip-path="url(#p35d5812380)" style="fill: none; stroke: #000000; stroke-width: 1.316746; stroke-linecap: square"/>
   </g>
   <g id="line2d_14">
    <path d="M 42.597436 262.162249 
L 552.774343 262.162249 
" clip-path="url(#p35d5812380)" style="fill: none; stroke: #000000; stroke-width: 1.316746; stroke-linecap: square"/>
   </g>
   <g id="line2d_15">
    <path d="M 42.597436 282.488022 
L 552.774343 282.488022 
" clip-path="url(#p35d5812380)" style="fill: none; stroke: #000000; stroke-width: 1.316746; stroke-linecap: square"/>
   </g>
   <g id="line2d_16">
    <path d="M 42.597436 302.813795 
L 552.774343 302.813795 
" clip-path="url(#p35d5812380)" style="fill: none; stroke: #000000; stroke-width: 1.316746; stroke-linecap: square"/>
   </g>
   <g id="line2d_17">
    <path d="M 42.597436 323.139568 
L 552.774343 323.139568 
" clip-path="url(#p35d5812380)" style="fill: none; stroke: #000000; stroke-width: 1.316746; stroke-linecap: square"/>
   </g>
   <g id="line2d_18">
    <path d="M 42.597436 343.465341 
L 552.774343 343.465341 
" clip-path="url(#p35d5812380)" style="fill: none; stroke: #000000; stroke-width: 1.316746; stroke-linecap: square"/>
   </g>
   <g id="line2d_19">
    <path d="M 42.597436 363.791115 
L 552.774343 363.791115 
" clip-path="url(#p35d5812380)" style="fill: none; stroke: #000000; stroke-width: 1.316746; stroke-linecap: square"/>
   </g>
   <g id="line2d_20">
    <path d="M 42.597436 384.116888 
L 552.774343 384.116888 
" clip-path="url(#p35d5812380)" style="fill: none; stroke: #000000; stroke-width: 1.316746; stroke-linecap: square"/>
   </g>
   <g id="line2d_21">
    <path d="M 46.66259 406.475238 
L 48.695168 402.410084 
" clip-path="url(#p35d5812380)" style="fill: none; stroke: #778899; stroke-width: 1.5; stroke-linecap: square"/>
   </g>
   <g id="line2d_22">
    <path d="M 42.597436 403.782073 
L 552.774343 403.782073 
" clip-path="url(#p35d5812380)" style="fill: none; stroke: #778899; stroke-width: 1.316746; stroke-linecap: square"/>
   </g>
   <g id="line2d_23">
    <path d="M 42.597436 405.103249 
L 552.774343 405.103249 
" clip-path="url(#p35d5812380)" style="fill: none; stroke: #778899; stroke-width: 1.316746; stroke-linecap: square"/>
   </g>
   <g id="line2d_24">
    <path d="M 42.394178 241.836476 
L 42.394178 404.442661 
" clip-path="url(#p35d5812380)" style="fill: none; stroke: #000000; stroke-width: 0.987559; stroke-linecap: square"/>
   </g>
   <g id="patch_2">
    <path d="M 477.77224 196.560816 
L 483.056941 196.560816 
L 480.41459 200.371898 
z
" clip-path="url(#p35d5812380)" style="fill: #778899"/>
   </g>
   <g id="patch_3">
    <path d="M 498.098013 196.560816 
L 503.382714 196.560816 
L 500.740363 200.371898 
z
" clip-path="url(#p35d5812380)" style="fill: #778899"/>
   </g>
   <g id="patch_4">
    <path d="M 518.423786 196.560816 
L 523.708487 196.560816 
L 521.066137 200.371898 
z
" clip-path="url(#p35d5812380)" style="fill: #778899"/>
   </g>
   <g id="patch_5">
    <path d="M 538.749559 196.560816 
L 544.03426 196.560816 
L 541.39191 200.371898 
z
" clip-path="url(#p35d5812380)" style="fill: #778899"/>
   </g>
   <g id="patch_6">
    <path d="M 50.931003 399.818548 
L 56.215704 399.818548 
L 53.573353 403.62963 
z
" clip-path="url(#p35d5812380)" style="fill: #778899"/>
   </g>
   <g id="patch_7">
    <path d="M 71.256776 399.818548 
L 76.541477 399.818548 
L 73.899126 403.62963 
z
" clip-path="url(#p35d5812380)" style="fill: #778899"/>
   </g>
   <g id="patch_8">
    <path d="M 91.582549 399.818548 
L 96.86725 399.818548 
L 94.2249 403.62963 
z
" clip-path="url(#p35d5812380)" style="fill: #778899"/>
   </g>
   <g id="patch_9">
    <path d="M 111.908322 399.818548 
L 117.193023 399.818548 
L 114.550673 403.62963 
z
" clip-path="url(#p35d5812380)" style="fill: #778899"/>
   </g>
   <g id="text_1">
    <!-- original circuit (seed=0) -->
    <g transform="translate(208.499085 16.318125) scale(0.12 -0.12)">
     <defs>
      <path id="DejaVuSans-6f" d="M 1959 3097 
Q 1497 3097 1228 2736 
Q 959 2375 959 1747 
Q 959 1119 1226 758 
Q 1494 397 1959 397 
Q 2419 397 2687 759 
Q 2956 1122 2956 1747 
Q 2956 2369 2687 2733 
Q 2419 3097 1959 3097 
z
M 1959 3584 
Q 2709 3584 3137 3096 
Q 3566 2609 3566 1747 
Q 3566 888 3137 398 
Q 2709 -91 1959 -91 
Q 1206 -91 779 398 
Q 353 888 353 1747 
Q 353 2609 779 3096 
Q 1206 3584 1959 3584 
z
" transform="scale(0.015625)"/>
      <path id="DejaVuSans-72" d="M 2631 2963 
Q 2534 3019 2420 3045 
Q 2306 3072 2169 3072 
Q 1681 3072 1420 2755 
Q 1159 2438 1159 1844 
L 1159 0 
L 581 0 
L 581 3500 
L 1159 3500 
L 1159 2956 
Q 1341 3275 1631 3429 
Q 1922 3584 2338 3584 
Q 2397 3584 2469 3576 
Q 2541 3569 2628 3553 
L 2631 2963 
z
" transform="scale(0.015625)"/>
      <path id="DejaVuSans-69" d="M 603 3500 
L 1178 3500 
L 1178 0 
L 603 0 
L 603 3500 
z
M 603 4863 
L 1178 4863 
L 1178 4134 
L 603 4134 
L 603 4863 
z
" transform="scale(0.015625)"/>
      <path id="DejaVuSans-67" d="M 2906 1791 
Q 2906 2416 2648 2759 
Q 2391 3103 1925 3103 
Q 1463 3103 1205 2759 
Q 947 2416 947 1791 
Q 947 1169 1205 825 
Q 1463 481 1925 481 
Q 2391 481 2648 825 
Q 2906 1169 2906 1791 
z
M 3481 434 
Q 3481 -459 3084 -895 
Q 2688 -1331 1869 -1331 
Q 1566 -1331 1297 -1286 
Q 1028 -1241 775 -1147 
L 775 -588 
Q 1028 -725 1275 -790 
Q 1522 -856 1778 -856 
Q 2344 -856 2625 -561 
Q 2906 -266 2906 331 
L 2906 616 
Q 2728 306 2450 153 
Q 2172 0 1784 0 
Q 1141 0 747 490 
Q 353 981 353 1791 
Q 353 2603 747 3093 
Q 1141 3584 1784 3584 
Q 2172 3584 2450 3431 
Q 2728 3278 2906 2969 
L 2906 3500 
L 3481 3500 
L 3481 434 
z
" transform="scale(0.015625)"/>
      <path id="DejaVuSans-6e" d="M 3513 2113 
L 3513 0 
L 2938 0 
L 2938 2094 
Q 2938 2591 2744 2837 
Q 2550 3084 2163 3084 
Q 1697 3084 1428 2787 
Q 1159 2491 1159 1978 
L 1159 0 
L 581 0 
L 581 3500 
L 1159 3500 
L 1159 2956 
Q 1366 3272 1645 3428 
Q 1925 3584 2291 3584 
Q 2894 3584 3203 3211 
Q 3513 2838 3513 2113 
z
" transform="scale(0.015625)"/>
      <path id="DejaVuSans-61" d="M 2194 1759 
Q 1497 1759 1228 1600 
Q 959 1441 959 1056 
Q 959 750 1161 570 
Q 1363 391 1709 391 
Q 2188 391 2477 730 
Q 2766 1069 2766 1631 
L 2766 1759 
L 2194 1759 
z
M 3341 1997 
L 3341 0 
L 2766 0 
L 2766 531 
Q 2569 213 2275 61 
Q 1981 -91 1556 -91 
Q 1019 -91 701 211 
Q 384 513 384 1019 
Q 384 1609 779 1909 
Q 1175 2209 1959 2209 
L 2766 2209 
L 2766 2266 
Q 2766 2663 2505 2880 
Q 2244 3097 1772 3097 
Q 1472 3097 1187 3025 
Q 903 2953 641 2809 
L 641 3341 
Q 956 3463 1253 3523 
Q 1550 3584 1831 3584 
Q 2591 3584 2966 3190 
Q 3341 2797 3341 1997 
z
" transform="scale(0.015625)"/>
      <path id="DejaVuSans-6c" d="M 603 4863 
L 1178 4863 
L 1178 0 
L 603 0 
L 603 4863 
z
" transform="scale(0.015625)"/>
      <path id="DejaVuSans-20" transform="scale(0.015625)"/>
      <path id="DejaVuSans-63" d="M 3122 3366 
L 3122 2828 
Q 2878 2963 2633 3030 
Q 2388 3097 2138 3097 
Q 1578 3097 1268 2742 
Q 959 2388 959 1747 
Q 959 1106 1268 751 
Q 1578 397 2138 397 
Q 2388 397 2633 464 
Q 2878 531 3122 666 
L 3122 134 
Q 2881 22 2623 -34 
Q 2366 -91 2075 -91 
Q 1284 -91 818 406 
Q 353 903 353 1747 
Q 353 2603 823 3093 
Q 1294 3584 2113 3584 
Q 2378 3584 2631 3529 
Q 2884 3475 3122 3366 
z
" transform="scale(0.015625)"/>
      <path id="DejaVuSans-75" d="M 544 1381 
L 544 3500 
L 1119 3500 
L 1119 1403 
Q 1119 906 1312 657 
Q 1506 409 1894 409 
Q 2359 409 2629 706 
Q 2900 1003 2900 1516 
L 2900 3500 
L 3475 3500 
L 3475 0 
L 2900 0 
L 2900 538 
Q 2691 219 2414 64 
Q 2138 -91 1772 -91 
Q 1169 -91 856 284 
Q 544 659 544 1381 
z
M 1991 3584 
L 1991 3584 
z
" transform="scale(0.015625)"/>
      <path id="DejaVuSans-74" d="M 1172 4494 
L 1172 3500 
L 2356 3500 
L 2356 3053 
L 1172 3053 
L 1172 1153 
Q 1172 725 1289 603 
Q 1406 481 1766 481 
L 2356 481 
L 2356 0 
L 1766 0 
Q 1100 0 847 248 
Q 594 497 594 1153 
L 594 3053 
L 172 3053 
L 172 3500 
L 594 3500 
L 594 4494 
L 1172 4494 
z
" transform="scale(0.015625)"/>
      <path id="DejaVuSans-28" d="M 1984 4856 
Q 1566 4138 1362 3434 
Q 1159 2731 1159 2009 
Q 1159 1288 1364 580 
Q 1569 -128 1984 -844 
L 1484 -844 
Q 1016 -109 783 600 
Q 550 1309 550 2009 
Q 550 2706 781 3412 
Q 1013 4119 1484 4856 
L 1984 4856 
z
" transform="scale(0.015625)"/>
      <path id="DejaVuSans-73" d="M 2834 3397 
L 2834 2853 
Q 2591 2978 2328 3040 
Q 2066 3103 1784 3103 
Q 1356 3103 1142 2972 
Q 928 2841 928 2578 
Q 928 2378 1081 2264 
Q 1234 2150 1697 2047 
L 1894 2003 
Q 2506 1872 2764 1633 
Q 3022 1394 3022 966 
Q 3022 478 2636 193 
Q 2250 -91 1575 -91 
Q 1294 -91 989 -36 
Q 684 19 347 128 
L 347 722 
Q 666 556 975 473 
Q 1284 391 1588 391 
Q 1994 391 2212 530 
Q 2431 669 2431 922 
Q 2431 1156 2273 1281 
Q 2116 1406 1581 1522 
L 1381 1569 
Q 847 1681 609 1914 
Q 372 2147 372 2553 
Q 372 3047 722 3315 
Q 1072 3584 1716 3584 
Q 2034 3584 2315 3537 
Q 2597 3491 2834 3397 
z
" transform="scale(0.015625)"/>
      <path id="DejaVuSans-65" d="M 3597 1894 
L 3597 1613 
L 953 1613 
Q 991 1019 1311 708 
Q 1631 397 2203 397 
Q 2534 397 2845 478 
Q 3156 559 3463 722 
L 3463 178 
Q 3153 47 2828 -22 
Q 2503 -91 2169 -91 
Q 1331 -91 842 396 
Q 353 884 353 1716 
Q 353 2575 817 3079 
Q 1281 3584 2069 3584 
Q 2775 3584 3186 3129 
Q 3597 2675 3597 1894 
z
M 3022 2063 
Q 3016 2534 2758 2815 
Q 2500 3097 2075 3097 
Q 1594 3097 1305 2825 
Q 1016 2553 972 2059 
L 3022 2063 
z
" transform="scale(0.015625)"/>
      <path id="DejaVuSans-64" d="M 2906 2969 
L 2906 4863 
L 3481 4863 
L 3481 0 
L 2906 0 
L 2906 525 
Q 2725 213 2448 61 
Q 2172 -91 1784 -91 
Q 1150 -91 751 415 
Q 353 922 353 1747 
Q 353 2572 751 3078 
Q 1150 3584 1784 3584 
Q 2172 3584 2448 3432 
Q 2725 3281 2906 2969 
z
M 947 1747 
Q 947 1113 1208 752 
Q 1469 391 1925 391 
Q 2381 391 2643 752 
Q 2906 1113 2906 1747 
Q 2906 2381 2643 2742 
Q 2381 3103 1925 3103 
Q 1469 3103 1208 2742 
Q 947 2381 947 1747 
z
" transform="scale(0.015625)"/>
      <path id="DejaVuSans-3d" d="M 678 2906 
L 4684 2906 
L 4684 2381 
L 678 2381 
L 678 2906 
z
M 678 1631 
L 4684 1631 
L 4684 1100 
L 678 1100 
L 678 1631 
z
" transform="scale(0.015625)"/>
      <path id="DejaVuSans-30" d="M 2034 4250 
Q 1547 4250 1301 3770 
Q 1056 3291 1056 2328 
Q 1056 1369 1301 889 
Q 1547 409 2034 409 
Q 2525 409 2770 889 
Q 3016 1369 3016 2328 
Q 3016 3291 2770 3770 
Q 2525 4250 2034 4250 
z
M 2034 4750 
Q 2819 4750 3233 4129 
Q 3647 3509 3647 2328 
Q 3647 1150 3233 529 
Q 2819 -91 2034 -91 
Q 1250 -91 836 529 
Q 422 1150 422 2328 
Q 422 3509 836 4129 
Q 1250 4750 2034 4750 
z
" transform="scale(0.015625)"/>
      <path id="DejaVuSans-29" d="M 513 4856 
L 1013 4856 
Q 1481 4119 1714 3412 
Q 1947 2706 1947 2009 
Q 1947 1309 1714 600 
Q 1481 -109 1013 -844 
L 513 -844 
Q 928 -128 1133 580 
Q 1338 1288 1338 2009 
Q 1338 2731 1133 3434 
Q 928 4138 513 4856 
z
" transform="scale(0.015625)"/>
     </defs>
     <use xlink:href="#DejaVuSans-6f"/>
     <use xlink:href="#DejaVuSans-72" transform="translate(61.181641 0)"/>
     <use xlink:href="#DejaVuSans-69" transform="translate(102.294922 0)"/>
     <use xlink:href="#DejaVuSans-67" transform="translate(130.078125 0)"/>
     <use xlink:href="#DejaVuSans-69" transform="translate(193.554688 0)"/>
     <use xlink:href="#DejaVuSans-6e" transform="translate(221.337891 0)"/>
     <use xlink:href="#DejaVuSans-61" transform="translate(284.716797 0)"/>
     <use xlink:href="#DejaVuSans-6c" transform="translate(345.996094 0)"/>
     <use xlink:href="#DejaVuSans-20" transform="translate(373.779297 0)"/>
     <use xlink:href="#DejaVuSans-63" transform="translate(405.566406 0)"/>
     <use xlink:href="#DejaVuSans-69" transform="translate(460.546875 0)"/>
     <use xlink:href="#DejaVuSans-72" transform="translate(488.330078 0)"/>
     <use xlink:href="#DejaVuSans-63" transform="translate(527.193359 0)"/>
     <use xlink:href="#DejaVuSans-75" transform="translate(582.173828 0)"/>
     <use xlink:href="#DejaVuSans-69" transform="translate(645.552734 0)"/>
     <use xlink:href="#DejaVuSans-74" transform="translate(673.335938 0)"/>
     <use xlink:href="#DejaVuSans-20" transform="translate(712.544922 0)"/>
     <use xlink:href="#DejaVuSans-28" transform="translate(744.332031 0)"/>
     <use xlink:href="#DejaVuSans-73" transform="translate(783.345703 0)"/>
     <use xlink:href="#DejaVuSans-65" transform="translate(835.445312 0)"/>
     <use xlink:href="#DejaVuSans-65" transform="translate(896.96875 0)"/>
     <use xlink:href="#DejaVuSans-64" transform="translate(958.492188 0)"/>
     <use xlink:href="#DejaVuSans-3d" transform="translate(1021.96875 0)"/>
     <use xlink:href="#DejaVuSans-30" transform="translate(1105.757812 0)"/>
     <use xlink:href="#DejaVuSans-29" transform="translate(1169.380859 0)"/>
    </g>
   </g>
   <g id="patch_10">
    <path d="M 40.564858 28.415857 
L -467.579472 28.415857 
L -467.579472 231.673589 
L 40.564858 231.673589 
z
" clip-path="url(#p35d5812380)" style="fill: #ffffff; stroke: #ffffff; stroke-width: 0.987559; stroke-linejoin: miter"/>
   </g>
   <g id="patch_11">
    <path d="M 40.564858 231.673589 
L -467.579472 231.673589 
L -467.579472 638.189053 
L 40.564858 638.189053 
z
" clip-path="url(#p35d5812380)" style="fill: #ffffff; stroke: #ffffff; stroke-width: 0.987559; stroke-linejoin: miter"/>
   </g>
   <g id="line2d_25">
    <path d="M 53.573353 160.533383 
L 53.573353 38.578744 
" clip-path="url(#p35d5812380)" style="fill: none; stroke: #002d9c; stroke-width: 1.316746; stroke-linecap: square"/>
   </g>
   <g id="line2d_26">
    <path d="M 94.2249 140.20761 
L 94.2249 119.881836 
" clip-path="url(#p35d5812380)" style="fill: none; stroke: #002d9c; stroke-width: 1.316746; stroke-linecap: square"/>
   </g>
   <g id="line2d_27">
    <path d="M 134.876446 119.881836 
L 134.876446 38.578744 
" clip-path="url(#p35d5812380)" style="fill: none; stroke: #002d9c; stroke-width: 1.316746; stroke-linecap: square"/>
   </g>
   <g id="line2d_28">
    <path d="M 155.202219 79.23029 
L 155.202219 58.904517 
" clip-path="url(#p35d5812380)" style="fill: none; stroke: #002d9c; stroke-width: 1.316746; stroke-linecap: square"/>
   </g>
   <g id="line2d_29">
    <path d="M 175.527992 119.881836 
L 175.527992 38.578744 
" clip-path="url(#p35d5812380)" style="fill: none; stroke: #002d9c; stroke-width: 1.316746; stroke-linecap: square"/>
   </g>
   <g id="line2d_30">
    <path d="M 216.179539 140.20761 
L 216.179539 58.904517 
" clip-path="url(#p35d5812380)" style="fill: none; stroke: #002d9c; stroke-width: 1.316746; stroke-linecap: square"/>
   </g>
   <g id="line2d_31">
    <path d="M 297.482632 119.881836 
L 297.482632 58.904517 
" clip-path="url(#p35d5812380)" style="fill: none; stroke: #002d9c; stroke-width: 1.316746; stroke-linecap: square"/>
   </g>
   <g id="line2d_32">
    <path d="M 317.808405 140.20761 
L 317.808405 119.881836 
" clip-path="url(#p35d5812380)" style="fill: none; stroke: #002d9c; stroke-width: 1.316746; stroke-linecap: square"/>
   </g>
   <g id="line2d_33">
    <path d="M 358.459951 140.20761 
L 358.459951 38.578744 
" clip-path="url(#p35d5812380)" style="fill: none; stroke: #002d9c; stroke-width: 1.316746; stroke-linecap: square"/>
   </g>
   <g id="line2d_34">
    <path d="M 378.785724 180.859156 
L 378.785724 119.881836 
" clip-path="url(#p35d5812380)" style="fill: none; stroke: #002d9c; stroke-width: 1.316746; stroke-linecap: square"/>
   </g>
   <g id="line2d_35">
    <path d="M 399.111498 119.881836 
L 399.111498 99.556063 
" clip-path="url(#p35d5812380)" style="fill: none; stroke: #002d9c; stroke-width: 1.316746; stroke-linecap: square"/>
   </g>
   <g id="line2d_36">
    <path d="M 481.075178 38.578744 
L 481.075178 196.560816 
" clip-path="url(#p35d5812380)" style="fill: none; stroke: #778899; stroke-width: 1.316746; stroke-linecap: square"/>
   </g>
   <g id="line2d_37">
    <path d="M 479.754003 38.578744 
L 479.754003 196.560816 
" clip-path="url(#p35d5812380)" style="fill: none; stroke: #778899; stroke-width: 1.316746; stroke-linecap: square"/>
   </g>
   <g id="line2d_38">
    <path d="M 501.400951 58.904517 
L 501.400951 196.560816 
" clip-path="url(#p35d5812380)" style="fill: none; stroke: #778899; stroke-width: 1.316746; stroke-linecap: square"/>
   </g>
   <g id="line2d_39">
    <path d="M 500.079776 58.904517 
L 500.079776 196.560816 
" clip-path="url(#p35d5812380)" style="fill: none; stroke: #778899; stroke-width: 1.316746; stroke-linecap: square"/>
   </g>
   <g id="line2d_40">
    <path d="M 521.726724 79.23029 
L 521.726724 196.560816 
" clip-path="url(#p35d5812380)" style="fill: none; stroke: #778899; stroke-width: 1.316746; stroke-linecap: square"/>
   </g>
   <g id="line2d_41">
    <path d="M 520.405549 79.23029 
L 520.405549 196.560816 
" clip-path="url(#p35d5812380)" style="fill: none; stroke: #778899; stroke-width: 1.316746; stroke-linecap: square"/>
   </g>
   <g id="line2d_42">
    <path d="M 542.052498 99.556063 
L 542.052498 196.560816 
" clip-path="url(#p35d5812380)" style="fill: none; stroke: #778899; stroke-width: 1.316746; stroke-linecap: square"/>
   </g>
   <g id="line2d_43">
    <path d="M 540.731322 99.556063 
L 540.731322 196.560816 
" clip-path="url(#p35d5812380)" style="fill: none; stroke: #778899; stroke-width: 1.316746; stroke-linecap: square"/>
   </g>
   <g id="line2d_44">
    <path d="M 54.233941 323.139568 
L 54.233941 399.818548 
" clip-path="url(#p35d5812380)" style="fill: none; stroke: #778899; stroke-width: 1.316746; stroke-linecap: square"/>
   </g>
   <g id="line2d_45">
    <path d="M 52.912766 323.139568 
L 52.912766 399.818548 
" clip-path="url(#p35d5812380)" style="fill: none; stroke: #778899; stroke-width: 1.316746; stroke-linecap: square"/>
   </g>
   <g id="line2d_46">
    <path d="M 74.559714 343.465341 
L 74.559714 399.818548 
" clip-path="url(#p35d5812380)" style="fill: none; stroke: #778899; stroke-width: 1.316746; stroke-linecap: square"/>
   </g>
   <g id="line2d_47">
    <path d="M 73.238539 343.465341 
L 73.238539 399.818548 
" clip-path="url(#p35d5812380)" style="fill: none; stroke: #778899; stroke-width: 1.316746; stroke-linecap: square"/>
   </g>
   <g id="line2d_48">
    <path d="M 94.885487 363.791115 
L 94.885487 399.818548 
" clip-path="url(#p35d5812380)" style="fill: none; stroke: #778899; stroke-width: 1.316746; stroke-linecap: square"/>
   </g>
   <g id="line2d_49">
    <path d="M 93.564312 363.791115 
L 93.564312 399.818548 
" clip-path="url(#p35d5812380)" style="fill: none; stroke: #778899; stroke-width: 1.316746; stroke-linecap: square"/>
   </g>
   <g id="line2d_50">
    <path d="M 115.21126 384.116888 
L 115.21126 399.818548 
" clip-path="url(#p35d5812380)" style="fill: none; stroke: #778899; stroke-width: 1.316746; stroke-linecap: square"/>
   </g>
   <g id="line2d_51">
    <path d="M 113.890085 384.116888 
L 113.890085 399.818548 
" clip-path="url(#p35d5812380)" style="fill: none; stroke: #778899; stroke-width: 1.316746; stroke-linecap: square"/>
   </g>
   <g id="patch_12">
    <path d="M 456.125291 48.74163 
L 464.052343 48.74163 
L 464.052343 28.415857 
L 456.125291 28.415857 
z
" clip-path="url(#p35d5812380)" style="fill: #a8a8a8; opacity: 0.6"/>
   </g>
   <g id="patch_13">
    <path d="M 456.125291 69.067403 
L 464.052343 69.067403 
L 464.052343 48.74163 
L 456.125291 48.74163 
z
" clip-path="url(#p35d5812380)" style="fill: #a8a8a8; opacity: 0.6"/>
   </g>
   <g id="patch_14">
    <path d="M 456.125291 89.393177 
L 464.052343 89.393177 
L 464.052343 69.067403 
L 456.125291 69.067403 
z
" clip-path="url(#p35d5812380)" style="fill: #a8a8a8; opacity: 0.6"/>
   </g>
   <g id="patch_15">
    <path d="M 456.125291 109.71895 
L 464.052343 109.71895 
L 464.052343 89.393177 
L 456.125291 89.393177 
z
" clip-path="url(#p35d5812380)" style="fill: #a8a8a8; opacity: 0.6"/>
   </g>
   <g id="patch_16">
    <path d="M 456.125291 130.044723 
L 464.052343 130.044723 
L 464.052343 109.71895 
L 456.125291 109.71895 
z
" clip-path="url(#p35d5812380)" style="fill: #a8a8a8; opacity: 0.6"/>
   </g>
   <g id="patch_17">
    <path d="M 456.125291 150.370496 
L 464.052343 150.370496 
L 464.052343 130.044723 
L 456.125291 130.044723 
z
" clip-path="url(#p35d5812380)" style="fill: #a8a8a8; opacity: 0.6"/>
   </g>
   <g id="patch_18">
    <path d="M 456.125291 170.696269 
L 464.052343 170.696269 
L 464.052343 150.370496 
L 456.125291 150.370496 
z
" clip-path="url(#p35d5812380)" style="fill: #a8a8a8; opacity: 0.6"/>
   </g>
   <g id="patch_19">
    <path d="M 456.125291 191.022043 
L 464.052343 191.022043 
L 464.052343 170.696269 
L 456.125291 170.696269 
z
" clip-path="url(#p35d5812380)" style="fill: #a8a8a8; opacity: 0.6"/>
   </g>
   <g id="patch_20">
    <path d="M 53.573353 162.515146 
C 54.098923 162.515146 54.603037 162.306335 54.974671 161.934701 
C 55.346305 161.563067 55.555116 161.058952 55.555116 160.533383 
C 55.555116 160.007813 55.346305 159.503699 54.974671 159.132065 
C 54.603037 158.760431 54.098923 158.55162 53.573353 158.55162 
C 53.047784 158.55162 52.543669 158.760431 52.172035 159.132065 
C 51.800401 159.503699 51.59159 160.007813 51.59159 160.533383 
C 51.59159 161.058952 51.800401 161.563067 52.172035 161.934701 
C 52.543669 162.306335 53.047784 162.515146 53.573353 162.515146 
z
" clip-path="url(#p35d5812380)" style="fill: #002d9c; stroke: #002d9c; stroke-width: 0.987559; stroke-linejoin: miter"/>
   </g>
   <g id="patch_21">
    <path d="M 53.573353 43.202857 
C 54.799682 43.202857 55.975949 42.715631 56.843095 41.848486 
C 57.710241 40.98134 58.197467 39.805073 58.197467 38.578744 
C 58.197467 37.352414 57.710241 36.176147 56.843095 35.309002 
C 55.975949 34.441856 54.799682 33.95463 53.573353 33.95463 
C 52.347024 33.95463 51.170757 34.441856 50.303611 35.309002 
C 49.436466 36.176147 48.94924 37.352414 48.94924 38.578744 
C 48.94924 39.805073 49.436466 40.98134 50.303611 41.848486 
C 51.170757 42.715631 52.347024 43.202857 53.573353 43.202857 
z
" clip-path="url(#p35d5812380)" style="fill: #002d9c; stroke: #002d9c; stroke-width: 1.316746; stroke-linejoin: miter"/>
   </g>
   <g id="patch_22">
    <path d="M 46.967477 187.465032 
L 60.179229 187.465032 
L 60.179229 174.25328 
L 46.967477 174.25328 
z
" clip-path="url(#p35d5812380)" style="fill: #33b1ff; stroke: #33b1ff; stroke-width: 0.987559; stroke-linejoin: miter"/>
   </g>
   <g id="patch_23">
    <path d="M 67.29325 85.836166 
L 80.505003 85.836166 
L 80.505003 72.624414 
L 67.29325 72.624414 
z
" clip-path="url(#p35d5812380)" style="fill: #002d9c; stroke: #002d9c; stroke-width: 0.987559; stroke-linejoin: miter"/>
   </g>
   <g id="patch_24">
    <path d="M 67.29325 146.813486 
L 80.505003 146.813486 
L 80.505003 133.601733 
L 67.29325 133.601733 
z
" clip-path="url(#p35d5812380)" style="fill: #fa4d56; stroke: #fa4d56; stroke-width: 0.987559; stroke-linejoin: miter"/>
   </g>
   <g id="patch_25">
    <path d="M 67.29325 106.161939 
L 80.505003 106.161939 
L 80.505003 92.950187 
L 67.29325 92.950187 
z
" clip-path="url(#p35d5812380)" style="fill: #002d9c; stroke: #002d9c; stroke-width: 0.987559; stroke-linejoin: miter"/>
   </g>
   <g id="patch_26">
    <path d="M 67.29325 187.465032 
L 80.505003 187.465032 
L 80.505003 174.25328 
L 67.29325 174.25328 
z
" clip-path="url(#p35d5812380)" style="fill: #33b1ff; stroke: #33b1ff; stroke-width: 0.987559; stroke-linejoin: miter"/>
   </g>
   <g id="patch_27">
    <path d="M 87.619023 85.836166 
L 100.830776 85.836166 
L 100.830776 72.624414 
L 87.619023 72.624414 
z
" clip-path="url(#p35d5812380)" style="fill: #33b1ff; stroke: #33b1ff; stroke-width: 0.987559; stroke-linejoin: miter"/>
   </g>
   <g id="patch_28">
    <path d="M 94.2249 142.189372 
C 94.750469 142.189372 95.254584 141.980561 95.626218 141.608928 
C 95.997851 141.237294 96.206662 140.733179 96.206662 140.20761 
C 96.206662 139.68204 95.997851 139.177925 95.626218 138.806292 
C 95.254584 138.434658 94.750469 138.225847 94.2249 138.225847 
C 93.69933 138.225847 93.195215 138.434658 92.823582 138.806292 
C 92.451948 139.177925 92.243137 139.68204 92.243137 140.20761 
C 92.243137 140.733179 92.451948 141.237294 92.823582 141.608928 
C 93.195215 141.980561 93.69933 142.189372 94.2249 142.189372 
z
" clip-path="url(#p35d5812380)" style="fill: #002d9c; stroke: #002d9c; stroke-width: 0.987559; stroke-linejoin: miter"/>
   </g>
   <g id="patch_29">
    <path d="M 94.2249 124.50595 
C 95.451229 124.50595 96.627496 124.018724 97.494642 123.151578 
C 98.361787 122.284433 98.849013 121.108166 98.849013 119.881836 
C 98.849013 118.655507 98.361787 117.47924 97.494642 116.612094 
C 96.627496 115.744949 95.451229 115.257723 94.2249 115.257723 
C 92.99857 115.257723 91.822303 115.744949 90.955158 116.612094 
C 90.088012 117.47924 89.600786 118.655507 89.600786 119.881836 
C 89.600786 121.108166 90.088012 122.284433 90.955158 123.151578 
C 91.822303 124.018724 92.99857 124.50595 94.2249 124.50595 
z
" clip-path="url(#p35d5812380)" style="fill: #002d9c; stroke: #002d9c; stroke-width: 1.316746; stroke-linejoin: miter"/>
   </g>
   <g id="patch_30">
    <path d="M 87.619023 106.161939 
L 100.830776 106.161939 
L 100.830776 92.950187 
L 87.619023 92.950187 
z
" clip-path="url(#p35d5812380)" style="fill: #002d9c; stroke: #002d9c; stroke-width: 0.987559; stroke-linejoin: miter"/>
   </g>
   <g id="patch_31">
    <path d="M 87.619023 187.465032 
L 100.830776 187.465032 
L 100.830776 174.25328 
L 87.619023 174.25328 
z
" clip-path="url(#p35d5812380)" style="fill: #002d9c; stroke: #002d9c; stroke-width: 0.987559; stroke-linejoin: miter"/>
   </g>
   <g id="patch_32">
    <path d="M 107.944796 85.836166 
L 121.156549 85.836166 
L 121.156549 72.624414 
L 107.944796 72.624414 
z
" clip-path="url(#p35d5812380)" style="fill: #33b1ff; stroke: #33b1ff; stroke-width: 0.987559; stroke-linejoin: miter"/>
   </g>
   <g id="patch_33">
    <path d="M 107.944796 106.161939 
L 121.156549 106.161939 
L 121.156549 92.950187 
L 107.944796 92.950187 
z
" clip-path="url(#p35d5812380)" style="fill: #002d9c; stroke: #002d9c; stroke-width: 0.987559; stroke-linejoin: miter"/>
   </g>
   <g id="patch_34">
    <path d="M 107.944796 187.465032 
L 121.156549 187.465032 
L 121.156549 174.25328 
L 107.944796 174.25328 
z
" clip-path="url(#p35d5812380)" style="fill: #002d9c; stroke: #002d9c; stroke-width: 0.987559; stroke-linejoin: miter"/>
   </g>
   <g id="patch_35">
    <path d="M 134.876446 121.863599 
C 135.402016 121.863599 135.90613 121.654788 136.277764 121.283154 
C 136.649398 120.91152 136.858209 120.407406 136.858209 119.881836 
C 136.858209 119.356267 136.649398 118.852152 136.277764 118.480518 
C 135.90613 118.108884 135.402016 117.900073 134.876446 117.900073 
C 134.350876 117.900073 133.846762 118.108884 133.475128 118.480518 
C 133.103494 118.852152 132.894683 119.356267 132.894683 119.881836 
C 132.894683 120.407406 133.103494 120.91152 133.475128 121.283154 
C 133.846762 121.654788 134.350876 121.863599 134.876446 121.863599 
z
" clip-path="url(#p35d5812380)" style="fill: #002d9c; stroke: #002d9c; stroke-width: 0.987559; stroke-linejoin: miter"/>
   </g>
   <g id="patch_36">
    <path d="M 134.876446 43.202857 
C 136.102775 43.202857 137.279042 42.715631 138.146188 41.848486 
C 139.013334 40.98134 139.500559 39.805073 139.500559 38.578744 
C 139.500559 37.352414 139.013334 36.176147 138.146188 35.309002 
C 137.279042 34.441856 136.102775 33.95463 134.876446 33.95463 
C 133.650117 33.95463 132.47385 34.441856 131.606704 35.309002 
C 130.739558 36.176147 130.252333 37.352414 130.252333 38.578744 
C 130.252333 39.805073 130.739558 40.98134 131.606704 41.848486 
C 132.47385 42.715631 133.650117 43.202857 134.876446 43.202857 
z
" clip-path="url(#p35d5812380)" style="fill: #002d9c; stroke: #002d9c; stroke-width: 1.316746; stroke-linejoin: miter"/>
   </g>
   <g id="patch_37">
    <path d="M 128.27057 187.465032 
L 141.482322 187.465032 
L 141.482322 174.25328 
L 128.27057 174.25328 
z
" clip-path="url(#p35d5812380)" style="fill: #33b1ff; stroke: #33b1ff; stroke-width: 0.987559; stroke-linejoin: miter"/>
   </g>
   <g id="patch_38">
    <path d="M 155.202219 60.88628 
C 155.727789 60.88628 156.231903 60.677469 156.603537 60.305835 
C 156.975171 59.934201 157.183982 59.430086 157.183982 58.904517 
C 157.183982 58.378947 156.975171 57.874833 156.603537 57.503199 
C 156.231903 57.131565 155.727789 56.922754 155.202219 56.922754 
C 154.676649 56.922754 154.172535 57.131565 153.800901 57.503199 
C 153.429267 57.874833 153.220456 58.378947 153.220456 58.904517 
C 153.220456 59.430086 153.429267 59.934201 153.800901 60.305835 
C 154.172535 60.677469 154.676649 60.88628 155.202219 60.88628 
z
" clip-path="url(#p35d5812380)" style="fill: #002d9c; stroke: #002d9c; stroke-width: 0.987559; stroke-linejoin: miter"/>
   </g>
   <g id="patch_39">
    <path d="M 155.202219 83.854403 
C 156.428548 83.854403 157.604815 83.367178 158.471961 82.500032 
C 159.339107 81.632886 159.826333 80.456619 159.826333 79.23029 
C 159.826333 78.003961 159.339107 76.827694 158.471961 75.960548 
C 157.604815 75.093402 156.428548 74.606177 155.202219 74.606177 
C 153.97589 74.606177 152.799623 75.093402 151.932477 75.960548 
C 151.065332 76.827694 150.578106 78.003961 150.578106 79.23029 
C 150.578106 80.456619 151.065332 81.632886 151.932477 82.500032 
C 152.799623 83.367178 153.97589 83.854403 155.202219 83.854403 
z
" clip-path="url(#p35d5812380)" style="fill: #002d9c; stroke: #002d9c; stroke-width: 1.316746; stroke-linejoin: miter"/>
   </g>
   <g id="patch_40">
    <path d="M 148.596343 187.465032 
L 161.808095 187.465032 
L 161.808095 174.25328 
L 148.596343 174.25328 
z
" clip-path="url(#p35d5812380)" style="fill: #33b1ff; stroke: #33b1ff; stroke-width: 0.987559; stroke-linejoin: miter"/>
   </g>
   <g id="patch_41">
    <path d="M 175.527992 40.560506 
C 176.053562 40.560506 176.557676 40.351695 176.92931 39.980062 
C 177.300944 39.608428 177.509755 39.104313 177.509755 38.578744 
C 177.509755 38.053174 177.300944 37.549059 176.92931 37.177426 
C 176.557676 36.805792 176.053562 36.596981 175.527992 36.596981 
C 175.002423 36.596981 174.498308 36.805792 174.126674 37.177426 
C 173.755041 37.549059 173.546229 38.053174 173.546229 38.578744 
C 173.546229 39.104313 173.755041 39.608428 174.126674 39.980062 
C 174.498308 40.351695 175.002423 40.560506 175.527992 40.560506 
z
" clip-path="url(#p35d5812380)" style="fill: #002d9c; stroke: #002d9c; stroke-width: 0.987559; stroke-linejoin: miter"/>
   </g>
   <g id="patch_42">
    <path d="M 175.527992 124.50595 
C 176.754322 124.50595 177.930589 124.018724 178.797734 123.151578 
C 179.66488 122.284433 180.152106 121.108166 180.152106 119.881836 
C 180.152106 118.655507 179.66488 117.47924 178.797734 116.612094 
C 177.930589 115.744949 176.754322 115.257723 175.527992 115.257723 
C 174.301663 115.257723 173.125396 115.744949 172.25825 116.612094 
C 171.391105 117.47924 170.903879 118.655507 170.903879 119.881836 
C 170.903879 121.108166 171.391105 122.284433 172.25825 123.151578 
C 173.125396 124.018724 174.301663 124.50595 175.527992 124.50595 
z
" clip-path="url(#p35d5812380)" style="fill: #002d9c; stroke: #002d9c; stroke-width: 1.316746; stroke-linejoin: miter"/>
   </g>
   <g id="patch_43">
    <path d="M 189.247889 65.510393 
L 202.459642 65.510393 
L 202.459642 52.29864 
L 189.247889 52.29864 
z
" clip-path="url(#p35d5812380)" style="fill: #fa4d56; stroke: #fa4d56; stroke-width: 0.987559; stroke-linejoin: miter"/>
   </g>
   <g id="patch_44">
    <path d="M 189.247889 126.487713 
L 202.459642 126.487713 
L 202.459642 113.27596 
L 189.247889 113.27596 
z
" clip-path="url(#p35d5812380)" style="fill: #002d9c; stroke: #002d9c; stroke-width: 0.987559; stroke-linejoin: miter"/>
   </g>
   <g id="patch_45">
    <path d="M 189.247889 45.18462 
L 202.459642 45.18462 
L 202.459642 31.972867 
L 189.247889 31.972867 
z
" clip-path="url(#p35d5812380)" style="fill: #002d9c; stroke: #002d9c; stroke-width: 0.987559; stroke-linejoin: miter"/>
   </g>
   <g id="patch_46">
    <path d="M 189.247889 85.836166 
L 202.459642 85.836166 
L 202.459642 72.624414 
L 189.247889 72.624414 
z
" clip-path="url(#p35d5812380)" style="fill: #002d9c; stroke: #002d9c; stroke-width: 0.987559; stroke-linejoin: miter"/>
   </g>
   <g id="patch_47">
    <path d="M 216.179539 142.189372 
C 216.705108 142.189372 217.209223 141.980561 217.580857 141.608928 
C 217.952491 141.237294 218.161302 140.733179 218.161302 140.20761 
C 218.161302 139.68204 217.952491 139.177925 217.580857 138.806292 
C 217.209223 138.434658 216.705108 138.225847 216.179539 138.225847 
C 215.653969 138.225847 215.149855 138.434658 214.778221 138.806292 
C 214.406587 139.177925 214.197776 139.68204 214.197776 140.20761 
C 214.197776 140.733179 214.406587 141.237294 214.778221 141.608928 
C 215.149855 141.980561 215.653969 142.189372 216.179539 142.189372 
z
" clip-path="url(#p35d5812380)" style="fill: #002d9c; stroke: #002d9c; stroke-width: 0.987559; stroke-linejoin: miter"/>
   </g>
   <g id="patch_48">
    <path d="M 216.179539 63.52863 
C 217.405868 63.52863 218.582135 63.041404 219.449281 62.174259 
C 220.316426 61.307113 220.803652 60.130846 220.803652 58.904517 
C 220.803652 57.678188 220.316426 56.501921 219.449281 55.634775 
C 218.582135 54.767629 217.405868 54.280403 216.179539 54.280403 
C 214.95321 54.280403 213.776942 54.767629 212.909797 55.634775 
C 212.042651 56.501921 211.555425 57.678188 211.555425 58.904517 
C 211.555425 60.130846 212.042651 61.307113 212.909797 62.174259 
C 213.776942 63.041404 214.95321 63.52863 216.179539 63.52863 
z
" clip-path="url(#p35d5812380)" style="fill: #002d9c; stroke: #002d9c; stroke-width: 1.316746; stroke-linejoin: miter"/>
   </g>
   <g id="patch_49">
    <path d="M 229.899436 85.836166 
L 243.111188 85.836166 
L 243.111188 72.624414 
L 229.899436 72.624414 
z
" clip-path="url(#p35d5812380)" style="fill: #33b1ff; stroke: #33b1ff; stroke-width: 0.987559; stroke-linejoin: miter"/>
   </g>
   <g id="patch_50">
    <path d="M 229.899436 65.510393 
L 243.111188 65.510393 
L 243.111188 52.29864 
L 229.899436 52.29864 
z
" clip-path="url(#p35d5812380)" style="fill: #33b1ff; stroke: #33b1ff; stroke-width: 0.987559; stroke-linejoin: miter"/>
   </g>
   <g id="patch_51">
    <path d="M 250.225209 65.510393 
L 263.436961 65.510393 
L 263.436961 52.29864 
L 250.225209 52.29864 
z
" clip-path="url(#p35d5812380)" style="fill: #fa4d56; stroke: #fa4d56; stroke-width: 0.987559; stroke-linejoin: miter"/>
   </g>
   <g id="patch_52">
    <path d="M 270.550982 65.510393 
L 283.762735 65.510393 
L 283.762735 52.29864 
L 270.550982 52.29864 
z
" clip-path="url(#p35d5812380)" style="fill: #33b1ff; stroke: #33b1ff; stroke-width: 0.987559; stroke-linejoin: miter"/>
   </g>
   <g id="patch_53">
    <path d="M 297.482632 60.88628 
C 298.008201 60.88628 298.512316 60.677469 298.88395 60.305835 
C 299.255583 59.934201 299.464394 59.430086 299.464394 58.904517 
C 299.464394 58.378947 299.255583 57.874833 298.88395 57.503199 
C 298.512316 57.131565 298.008201 56.922754 297.482632 56.922754 
C 296.957062 56.922754 296.452947 57.131565 296.081314 57.503199 
C 295.70968 57.874833 295.500869 58.378947 295.500869 58.904517 
C 295.500869 59.430086 295.70968 59.934201 296.081314 60.305835 
C 296.452947 60.677469 296.957062 60.88628 297.482632 60.88628 
z
" clip-path="url(#p35d5812380)" style="fill: #002d9c; stroke: #002d9c; stroke-width: 0.987559; stroke-linejoin: miter"/>
   </g>
   <g id="patch_54">
    <path d="M 297.482632 124.50595 
C 298.708961 124.50595 299.885228 124.018724 300.752373 123.151578 
C 301.619519 122.284433 302.106745 121.108166 302.106745 119.881836 
C 302.106745 118.655507 301.619519 117.47924 300.752373 116.612094 
C 299.885228 115.744949 298.708961 115.257723 297.482632 115.257723 
C 296.256302 115.257723 295.080035 115.744949 294.21289 116.612094 
C 293.345744 117.47924 292.858518 118.655507 292.858518 119.881836 
C 292.858518 121.108166 293.345744 122.284433 294.21289 123.151578 
C 295.080035 124.018724 296.256302 124.50595 297.482632 124.50595 
z
" clip-path="url(#p35d5812380)" style="fill: #002d9c; stroke: #002d9c; stroke-width: 1.316746; stroke-linejoin: miter"/>
   </g>
   <g id="patch_55">
    <path d="M 317.808405 142.189372 
C 318.333974 142.189372 318.838089 141.980561 319.209723 141.608928 
C 319.581357 141.237294 319.790168 140.733179 319.790168 140.20761 
C 319.790168 139.68204 319.581357 139.177925 319.209723 138.806292 
C 318.838089 138.434658 318.333974 138.225847 317.808405 138.225847 
C 317.282835 138.225847 316.778721 138.434658 316.407087 138.806292 
C 316.035453 139.177925 315.826642 139.68204 315.826642 140.20761 
C 315.826642 140.733179 316.035453 141.237294 316.407087 141.608928 
C 316.778721 141.980561 317.282835 142.189372 317.808405 142.189372 
z
" clip-path="url(#p35d5812380)" style="fill: #002d9c; stroke: #002d9c; stroke-width: 0.987559; stroke-linejoin: miter"/>
   </g>
   <g id="patch_56">
    <path d="M 317.808405 124.50595 
C 319.034734 124.50595 320.211001 124.018724 321.078147 123.151578 
C 321.945292 122.284433 322.432518 121.108166 322.432518 119.881836 
C 322.432518 118.655507 321.945292 117.47924 321.078147 116.612094 
C 320.211001 115.744949 319.034734 115.257723 317.808405 115.257723 
C 316.582076 115.257723 315.405808 115.744949 314.538663 116.612094 
C 313.671517 117.47924 313.184291 118.655507 313.184291 119.881836 
C 313.184291 121.108166 313.671517 122.284433 314.538663 123.151578 
C 315.405808 124.018724 316.582076 124.50595 317.808405 124.50595 
z
" clip-path="url(#p35d5812380)" style="fill: #002d9c; stroke: #002d9c; stroke-width: 1.316746; stroke-linejoin: miter"/>
   </g>
   <g id="patch_57">
    <path d="M 311.202528 65.510393 
L 324.414281 65.510393 
L 324.414281 52.29864 
L 311.202528 52.29864 
z
" clip-path="url(#p35d5812380)" style="fill: #fa4d56; stroke: #fa4d56; stroke-width: 0.987559; stroke-linejoin: miter"/>
   </g>
   <g id="patch_58">
    <path d="M 331.528302 126.487713 
L 344.740054 126.487713 
L 344.740054 113.27596 
L 331.528302 113.27596 
z
" clip-path="url(#p35d5812380)" style="fill: #002d9c; stroke: #002d9c; stroke-width: 0.987559; stroke-linejoin: miter"/>
   </g>
   <g id="patch_59">
    <path d="M 331.528302 65.510393 
L 344.740054 65.510393 
L 344.740054 52.29864 
L 331.528302 52.29864 
z
" clip-path="url(#p35d5812380)" style="fill: #33b1ff; stroke: #33b1ff; stroke-width: 0.987559; stroke-linejoin: miter"/>
   </g>
   <g id="patch_60">
    <path d="M 358.459951 142.189372 
C 358.985521 142.189372 359.489635 141.980561 359.861269 141.608928 
C 360.232903 141.237294 360.441714 140.733179 360.441714 140.20761 
C 360.441714 139.68204 360.232903 139.177925 359.861269 138.806292 
C 359.489635 138.434658 358.985521 138.225847 358.459951 138.225847 
C 357.934381 138.225847 357.430267 138.434658 357.058633 138.806292 
C 356.686999 139.177925 356.478188 139.68204 356.478188 140.20761 
C 356.478188 140.733179 356.686999 141.237294 357.058633 141.608928 
C 357.430267 141.980561 357.934381 142.189372 358.459951 142.189372 
z
" clip-path="url(#p35d5812380)" style="fill: #002d9c; stroke: #002d9c; stroke-width: 0.987559; stroke-linejoin: miter"/>
   </g>
   <g id="patch_61">
    <path d="M 358.459951 43.202857 
C 359.68628 43.202857 360.862547 42.715631 361.729693 41.848486 
C 362.596839 40.98134 363.084065 39.805073 363.084065 38.578744 
C 363.084065 37.352414 362.596839 36.176147 361.729693 35.309002 
C 360.862547 34.441856 359.68628 33.95463 358.459951 33.95463 
C 357.233622 33.95463 356.057355 34.441856 355.190209 35.309002 
C 354.323063 36.176147 353.835838 37.352414 353.835838 38.578744 
C 353.835838 39.805073 354.323063 40.98134 355.190209 41.848486 
C 356.057355 42.715631 357.233622 43.202857 358.459951 43.202857 
z
" clip-path="url(#p35d5812380)" style="fill: #002d9c; stroke: #002d9c; stroke-width: 1.316746; stroke-linejoin: miter"/>
   </g>
   <g id="patch_62">
    <path d="M 378.785724 121.863599 
C 379.311294 121.863599 379.815408 121.654788 380.187042 121.283154 
C 380.558676 120.91152 380.767487 120.407406 380.767487 119.881836 
C 380.767487 119.356267 380.558676 118.852152 380.187042 118.480518 
C 379.815408 118.108884 379.311294 117.900073 378.785724 117.900073 
C 378.260155 117.900073 377.75604 118.108884 377.384406 118.480518 
C 377.012772 118.852152 376.803961 119.356267 376.803961 119.881836 
C 376.803961 120.407406 377.012772 120.91152 377.384406 121.283154 
C 377.75604 121.654788 378.260155 121.863599 378.785724 121.863599 
z
" clip-path="url(#p35d5812380)" style="fill: #002d9c; stroke: #002d9c; stroke-width: 0.987559; stroke-linejoin: miter"/>
   </g>
   <g id="patch_63">
    <path d="M 378.785724 185.483269 
C 380.012054 185.483269 381.188321 184.996044 382.055466 184.128898 
C 382.922612 183.261752 383.409838 182.085485 383.409838 180.859156 
C 383.409838 179.632827 382.922612 178.45656 382.055466 177.589414 
C 381.188321 176.722268 380.012054 176.235043 378.785724 176.235043 
C 377.559395 176.235043 376.383128 176.722268 375.515982 177.589414 
C 374.648837 178.45656 374.161611 179.632827 374.161611 180.859156 
C 374.161611 182.085485 374.648837 183.261752 375.515982 184.128898 
C 376.383128 184.996044 377.559395 185.483269 378.785724 185.483269 
z
" clip-path="url(#p35d5812380)" style="fill: #002d9c; stroke: #002d9c; stroke-width: 1.316746; stroke-linejoin: miter"/>
   </g>
   <g id="patch_64">
    <path d="M 372.179848 65.510393 
L 385.391601 65.510393 
L 385.391601 52.29864 
L 372.179848 52.29864 
z
" clip-path="url(#p35d5812380)" style="fill: #33b1ff; stroke: #33b1ff; stroke-width: 0.987559; stroke-linejoin: miter"/>
   </g>
   <g id="patch_65">
    <path d="M 399.111498 121.863599 
C 399.637067 121.863599 400.141182 121.654788 400.512815 121.283154 
C 400.884449 120.91152 401.09326 120.407406 401.09326 119.881836 
C 401.09326 119.356267 400.884449 118.852152 400.512815 118.480518 
C 400.141182 118.108884 399.637067 117.900073 399.111498 117.900073 
C 398.585928 117.900073 398.081813 118.108884 397.71018 118.480518 
C 397.338546 118.852152 397.129735 119.356267 397.129735 119.881836 
C 397.129735 120.407406 397.338546 120.91152 397.71018 121.283154 
C 398.081813 121.654788 398.585928 121.863599 399.111498 121.863599 
z
" clip-path="url(#p35d5812380)" style="fill: #002d9c; stroke: #002d9c; stroke-width: 0.987559; stroke-linejoin: miter"/>
   </g>
   <g id="patch_66">
    <path d="M 399.111498 104.180177 
C 400.337827 104.180177 401.514094 103.692951 402.381239 102.825805 
C 403.248385 101.958659 403.735611 100.782392 403.735611 99.556063 
C 403.735611 98.329734 403.248385 97.153467 402.381239 96.286321 
C 401.514094 95.419176 400.337827 94.93195 399.111498 94.93195 
C 397.885168 94.93195 396.708901 95.419176 395.841756 96.286321 
C 394.97461 97.153467 394.487384 98.329734 394.487384 99.556063 
C 394.487384 100.782392 394.97461 101.958659 395.841756 102.825805 
C 396.708901 103.692951 397.885168 104.180177 399.111498 104.180177 
z
" clip-path="url(#p35d5812380)" style="fill: #002d9c; stroke: #002d9c; stroke-width: 1.316746; stroke-linejoin: miter"/>
   </g>
   <g id="patch_67">
    <path d="M 392.505621 65.510393 
L 405.717374 65.510393 
L 405.717374 52.29864 
L 392.505621 52.29864 
z
" clip-path="url(#p35d5812380)" style="fill: #fa4d56; stroke: #fa4d56; stroke-width: 0.987559; stroke-linejoin: miter"/>
   </g>
   <g id="patch_68">
    <path d="M 412.831394 106.161939 
L 426.043147 106.161939 
L 426.043147 92.950187 
L 412.831394 92.950187 
z
" clip-path="url(#p35d5812380)" style="fill: #33b1ff; stroke: #33b1ff; stroke-width: 0.987559; stroke-linejoin: miter"/>
   </g>
   <g id="patch_69">
    <path d="M 412.831394 65.510393 
L 426.043147 65.510393 
L 426.043147 52.29864 
L 412.831394 52.29864 
z
" clip-path="url(#p35d5812380)" style="fill: #fa4d56; stroke: #fa4d56; stroke-width: 0.987559; stroke-linejoin: miter"/>
   </g>
   <g id="patch_70">
    <path d="M 433.157168 106.161939 
L 446.36892 106.161939 
L 446.36892 92.950187 
L 433.157168 92.950187 
z
" clip-path="url(#p35d5812380)" style="fill: #002d9c; stroke: #002d9c; stroke-width: 0.987559; stroke-linejoin: miter"/>
   </g>
   <g id="patch_71">
    <path d="M 473.808714 45.18462 
L 487.020467 45.18462 
L 487.020467 31.972867 
L 473.808714 31.972867 
z
" clip-path="url(#p35d5812380)" style="fill: #a8a8a8; stroke: #a8a8a8; stroke-width: 0.987559; stroke-linejoin: miter"/>
   </g>
   <g id="patch_72">
    <path d="M 485.038704 40.560506 
C 485.038704 39.334586 484.551189 38.157621 483.684332 37.290764 
C 482.817475 36.423908 481.640511 35.936393 480.41459 35.936393 
C 479.18867 35.936393 478.011705 36.423908 477.144848 37.290764 
C 476.277991 38.157621 475.790477 39.334586 475.790477 40.560506 
" clip-path="url(#p35d5812380)" style="fill: none; stroke: #000000; stroke-width: 1.316746; stroke-linejoin: miter"/>
   </g>
   <g id="line2d_52">
    <path d="M 480.41459 40.560506 
L 485.038704 35.936393 
" clip-path="url(#p35d5812380)" style="fill: none; stroke: #000000; stroke-width: 1.316746; stroke-linecap: square"/>
   </g>
   <g id="patch_73">
    <path d="M 494.134487 65.510393 
L 507.34624 65.510393 
L 507.34624 52.29864 
L 494.134487 52.29864 
z
" clip-path="url(#p35d5812380)" style="fill: #a8a8a8; stroke: #a8a8a8; stroke-width: 0.987559; stroke-linejoin: miter"/>
   </g>
   <g id="patch_74">
    <path d="M 505.364477 60.88628 
C 505.364477 59.660359 504.876962 58.483395 504.010105 57.616538 
C 503.143249 56.749681 501.966284 56.262166 500.740363 56.262166 
C 499.514443 56.262166 498.337478 56.749681 497.470622 57.616538 
C 496.603765 58.483395 496.11625 59.660359 496.11625 60.88628 
" clip-path="url(#p35d5812380)" style="fill: none; stroke: #000000; stroke-width: 1.316746; stroke-linejoin: miter"/>
   </g>
   <g id="line2d_53">
    <path d="M 500.740363 60.88628 
L 505.364477 56.262166 
" clip-path="url(#p35d5812380)" style="fill: none; stroke: #000000; stroke-width: 1.316746; stroke-linecap: square"/>
   </g>
   <g id="patch_75">
    <path d="M 514.46026 85.836166 
L 527.672013 85.836166 
L 527.672013 72.624414 
L 514.46026 72.624414 
z
" clip-path="url(#p35d5812380)" style="fill: #a8a8a8; stroke: #a8a8a8; stroke-width: 0.987559; stroke-linejoin: miter"/>
   </g>
   <g id="patch_76">
    <path d="M 525.69025 81.212053 
C 525.69025 79.986132 525.202736 78.809168 524.335879 77.942311 
C 523.469022 77.075454 522.292057 76.587939 521.066137 76.587939 
C 519.840216 76.587939 518.663252 77.075454 517.796395 77.942311 
C 516.929538 78.809168 516.442023 79.986132 516.442023 81.212053 
" clip-path="url(#p35d5812380)" style="fill: none; stroke: #000000; stroke-width: 1.316746; stroke-linejoin: miter"/>
   </g>
   <g id="line2d_54">
    <path d="M 521.066137 81.212053 
L 525.69025 76.587939 
" clip-path="url(#p35d5812380)" style="fill: none; stroke: #000000; stroke-width: 1.316746; stroke-linecap: square"/>
   </g>
   <g id="patch_77">
    <path d="M 534.786034 106.161939 
L 547.997786 106.161939 
L 547.997786 92.950187 
L 534.786034 92.950187 
z
" clip-path="url(#p35d5812380)" style="fill: #a8a8a8; stroke: #a8a8a8; stroke-width: 0.987559; stroke-linejoin: miter"/>
   </g>
   <g id="patch_78">
    <path d="M 546.016023 101.537826 
C 546.016023 100.311905 545.528509 99.134941 544.661652 98.268084 
C 543.794795 97.401227 542.617831 96.913713 541.39191 96.913713 
C 540.165989 96.913713 538.989025 97.401227 538.122168 98.268084 
C 537.255311 99.134941 536.767796 100.311905 536.767796 101.537826 
" clip-path="url(#p35d5812380)" style="fill: none; stroke: #000000; stroke-width: 1.316746; stroke-linejoin: miter"/>
   </g>
   <g id="line2d_55">
    <path d="M 541.39191 101.537826 
L 546.016023 96.913713 
" clip-path="url(#p35d5812380)" style="fill: none; stroke: #000000; stroke-width: 1.316746; stroke-linecap: square"/>
   </g>
   <g id="patch_79">
    <path d="M 46.967477 329.745445 
L 60.179229 329.745445 
L 60.179229 316.533692 
L 46.967477 316.533692 
z
" clip-path="url(#p35d5812380)" style="fill: #a8a8a8; stroke: #a8a8a8; stroke-width: 0.987559; stroke-linejoin: miter"/>
   </g>
   <g id="patch_80">
    <path d="M 58.197467 325.121331 
C 58.197467 323.89541 57.709952 322.718446 56.843095 321.851589 
C 55.976238 320.984732 54.799274 320.497218 53.573353 320.497218 
C 52.347432 320.497218 51.170468 320.984732 50.303611 321.851589 
C 49.436754 322.718446 48.94924 323.89541 48.94924 325.121331 
" clip-path="url(#p35d5812380)" style="fill: none; stroke: #000000; stroke-width: 1.316746; stroke-linejoin: miter"/>
   </g>
   <g id="line2d_56">
    <path d="M 53.573353 325.121331 
L 58.197467 320.497218 
" clip-path="url(#p35d5812380)" style="fill: none; stroke: #000000; stroke-width: 1.316746; stroke-linecap: square"/>
   </g>
   <g id="patch_81">
    <path d="M 67.29325 350.071218 
L 80.505003 350.071218 
L 80.505003 336.859465 
L 67.29325 336.859465 
z
" clip-path="url(#p35d5812380)" style="fill: #a8a8a8; stroke: #a8a8a8; stroke-width: 0.987559; stroke-linejoin: miter"/>
   </g>
   <g id="patch_82">
    <path d="M 78.52324 345.447104 
C 78.52324 344.221184 78.035725 343.044219 77.168868 342.177362 
C 76.302011 341.310506 75.125047 340.822991 73.899126 340.822991 
C 72.673206 340.822991 71.496241 341.310506 70.629384 342.177362 
C 69.762528 343.044219 69.275013 344.221184 69.275013 345.447104 
" clip-path="url(#p35d5812380)" style="fill: none; stroke: #000000; stroke-width: 1.316746; stroke-linejoin: miter"/>
   </g>
   <g id="line2d_57">
    <path d="M 73.899126 345.447104 
L 78.52324 340.822991 
" clip-path="url(#p35d5812380)" style="fill: none; stroke: #000000; stroke-width: 1.316746; stroke-linecap: square"/>
   </g>
   <g id="patch_83">
    <path d="M 87.619023 370.396991 
L 100.830776 370.396991 
L 100.830776 357.185238 
L 87.619023 357.185238 
z
" clip-path="url(#p35d5812380)" style="fill: #a8a8a8; stroke: #a8a8a8; stroke-width: 0.987559; stroke-linejoin: miter"/>
   </g>
   <g id="patch_84">
    <path d="M 98.849013 365.772878 
C 98.849013 364.546957 98.361498 363.369993 97.494642 362.503136 
C 96.627785 361.636279 95.45082 361.148764 94.2249 361.148764 
C 92.998979 361.148764 91.822015 361.636279 90.955158 362.503136 
C 90.088301 363.369993 89.600786 364.546957 89.600786 365.772878 
" clip-path="url(#p35d5812380)" style="fill: none; stroke: #000000; stroke-width: 1.316746; stroke-linejoin: miter"/>
   </g>
   <g id="line2d_58">
    <path d="M 94.2249 365.772878 
L 98.849013 361.148764 
" clip-path="url(#p35d5812380)" style="fill: none; stroke: #000000; stroke-width: 1.316746; stroke-linecap: square"/>
   </g>
   <g id="patch_85">
    <path d="M 107.944796 390.722764 
L 121.156549 390.722764 
L 121.156549 377.511012 
L 107.944796 377.511012 
z
" clip-path="url(#p35d5812380)" style="fill: #a8a8a8; stroke: #a8a8a8; stroke-width: 0.987559; stroke-linejoin: miter"/>
   </g>
   <g id="patch_86">
    <path d="M 119.174786 386.098651 
C 119.174786 384.87273 118.687272 383.695766 117.820415 382.828909 
C 116.953558 381.962052 115.776594 381.474537 114.550673 381.474537 
C 113.324752 381.474537 112.147788 381.962052 111.280931 382.828909 
C 110.414074 383.695766 109.926559 384.87273 109.926559 386.098651 
" clip-path="url(#p35d5812380)" style="fill: none; stroke: #000000; stroke-width: 1.316746; stroke-linejoin: miter"/>
   </g>
   <g id="line2d_59">
    <path d="M 114.550673 386.098651 
L 119.174786 381.474537 
" clip-path="url(#p35d5812380)" style="fill: none; stroke: #000000; stroke-width: 1.316746; stroke-linecap: square"/>
   </g>
   <g id="line2d_60">
    <path d="M 53.573353 41.221094 
L 53.573353 35.936393 
" clip-path="url(#p35d5812380)" style="fill: none; stroke: #ffffff; stroke-width: 1.316746; stroke-linecap: square"/>
   </g>
   <g id="line2d_61">
    <path d="M 50.931003 38.578744 
L 56.215704 38.578744 
" clip-path="url(#p35d5812380)" style="fill: none; stroke: #ffffff; stroke-width: 1.316746; stroke-linecap: square"/>
   </g>
   <g id="line2d_62">
    <path d="M 94.2249 122.524187 
L 94.2249 117.239486 
" clip-path="url(#p35d5812380)" style="fill: none; stroke: #ffffff; stroke-width: 1.316746; stroke-linecap: square"/>
   </g>
   <g id="line2d_63">
    <path d="M 91.582549 119.881836 
L 96.86725 119.881836 
" clip-path="url(#p35d5812380)" style="fill: none; stroke: #ffffff; stroke-width: 1.316746; stroke-linecap: square"/>
   </g>
   <g id="line2d_64">
    <path d="M 134.876446 41.221094 
L 134.876446 35.936393 
" clip-path="url(#p35d5812380)" style="fill: none; stroke: #ffffff; stroke-width: 1.316746; stroke-linecap: square"/>
   </g>
   <g id="line2d_65">
    <path d="M 132.234095 38.578744 
L 137.518796 38.578744 
" clip-path="url(#p35d5812380)" style="fill: none; stroke: #ffffff; stroke-width: 1.316746; stroke-linecap: square"/>
   </g>
   <g id="line2d_66">
    <path d="M 155.202219 81.87264 
L 155.202219 76.587939 
" clip-path="url(#p35d5812380)" style="fill: none; stroke: #ffffff; stroke-width: 1.316746; stroke-linecap: square"/>
   </g>
   <g id="line2d_67">
    <path d="M 152.559869 79.23029 
L 157.84457 79.23029 
" clip-path="url(#p35d5812380)" style="fill: none; stroke: #ffffff; stroke-width: 1.316746; stroke-linecap: square"/>
   </g>
   <g id="line2d_68">
    <path d="M 175.527992 122.524187 
L 175.527992 117.239486 
" clip-path="url(#p35d5812380)" style="fill: none; stroke: #ffffff; stroke-width: 1.316746; stroke-linecap: square"/>
   </g>
   <g id="line2d_69">
    <path d="M 172.885642 119.881836 
L 178.170343 119.881836 
" clip-path="url(#p35d5812380)" style="fill: none; stroke: #ffffff; stroke-width: 1.316746; stroke-linecap: square"/>
   </g>
   <g id="line2d_70">
    <path d="M 216.179539 61.546867 
L 216.179539 56.262166 
" clip-path="url(#p35d5812380)" style="fill: none; stroke: #ffffff; stroke-width: 1.316746; stroke-linecap: square"/>
   </g>
   <g id="line2d_71">
    <path d="M 213.537188 58.904517 
L 218.821889 58.904517 
" clip-path="url(#p35d5812380)" style="fill: none; stroke: #ffffff; stroke-width: 1.316746; stroke-linecap: square"/>
   </g>
   <g id="line2d_72">
    <path d="M 297.482632 122.524187 
L 297.482632 117.239486 
" clip-path="url(#p35d5812380)" style="fill: none; stroke: #ffffff; stroke-width: 1.316746; stroke-linecap: square"/>
   </g>
   <g id="line2d_73">
    <path d="M 294.840281 119.881836 
L 300.124982 119.881836 
" clip-path="url(#p35d5812380)" style="fill: none; stroke: #ffffff; stroke-width: 1.316746; stroke-linecap: square"/>
   </g>
   <g id="line2d_74">
    <path d="M 317.808405 122.524187 
L 317.808405 117.239486 
" clip-path="url(#p35d5812380)" style="fill: none; stroke: #ffffff; stroke-width: 1.316746; stroke-linecap: square"/>
   </g>
   <g id="line2d_75">
    <path d="M 315.166054 119.881836 
L 320.450755 119.881836 
" clip-path="url(#p35d5812380)" style="fill: none; stroke: #ffffff; stroke-width: 1.316746; stroke-linecap: square"/>
   </g>
   <g id="line2d_76">
    <path d="M 358.459951 41.221094 
L 358.459951 35.936393 
" clip-path="url(#p35d5812380)" style="fill: none; stroke: #ffffff; stroke-width: 1.316746; stroke-linecap: square"/>
   </g>
   <g id="line2d_77">
    <path d="M 355.817601 38.578744 
L 361.102302 38.578744 
" clip-path="url(#p35d5812380)" style="fill: none; stroke: #ffffff; stroke-width: 1.316746; stroke-linecap: square"/>
   </g>
   <g id="line2d_78">
    <path d="M 378.785724 183.501506 
L 378.785724 178.216805 
" clip-path="url(#p35d5812380)" style="fill: none; stroke: #ffffff; stroke-width: 1.316746; stroke-linecap: square"/>
   </g>
   <g id="line2d_79">
    <path d="M 376.143374 180.859156 
L 381.428075 180.859156 
" clip-path="url(#p35d5812380)" style="fill: none; stroke: #ffffff; stroke-width: 1.316746; stroke-linecap: square"/>
   </g>
   <g id="line2d_80">
    <path d="M 399.111498 102.198414 
L 399.111498 96.913713 
" clip-path="url(#p35d5812380)" style="fill: none; stroke: #ffffff; stroke-width: 1.316746; stroke-linecap: square"/>
   </g>
   <g id="line2d_81">
    <path d="M 396.469147 99.556063 
L 401.753848 99.556063 
" clip-path="url(#p35d5812380)" style="fill: none; stroke: #ffffff; stroke-width: 1.316746; stroke-linecap: square"/>
   </g>
   <g id="text_2">
    <g clip-path="url(#p35d5812380)">
     <!-- ${q}_{0}$ -->
     <g transform="translate(26.656882 41.509145) scale(0.106986 -0.106986)">
      <defs>
       <path id="DejaVuSans-Oblique-71" d="M 2669 525 
Q 2438 222 2123 65 
Q 1809 -91 1428 -91 
Q 897 -91 595 267 
Q 294 625 294 1253 
Q 294 1759 480 2231 
Q 666 2703 1013 3078 
Q 1238 3322 1530 3453 
Q 1822 3584 2144 3584 
Q 2531 3584 2781 3431 
Q 3031 3278 3144 2969 
L 3244 3494 
L 3822 3494 
L 2888 -1319 
L 2309 -1319 
L 2669 525 
z
M 891 1338 
Q 891 875 1084 633 
Q 1278 391 1644 391 
Q 2188 391 2572 911 
Q 2956 1431 2956 2175 
Q 2956 2625 2757 2864 
Q 2559 3103 2188 3103 
Q 1916 3103 1684 2976 
Q 1453 2850 1281 2606 
Q 1100 2350 995 2006 
Q 891 1663 891 1338 
z
" transform="scale(0.015625)"/>
      </defs>
      <use xlink:href="#DejaVuSans-Oblique-71"/>
      <use xlink:href="#DejaVuSans-30" transform="translate(63.476562 -16.40625) scale(0.7)"/>
     </g>
    </g>
   </g>
   <g id="text_3">
    <g clip-path="url(#p35d5812380)">
     <!-- ${q}_{1}$ -->
     <g transform="translate(26.656882 61.834918) scale(0.106986 -0.106986)">
      <defs>
       <path id="DejaVuSans-31" d="M 794 531 
L 1825 531 
L 1825 4091 
L 703 3866 
L 703 4441 
L 1819 4666 
L 2450 4666 
L 2450 531 
L 3481 531 
L 3481 0 
L 794 0 
L 794 531 
z
" transform="scale(0.015625)"/>
      </defs>
      <use xlink:href="#DejaVuSans-Oblique-71"/>
      <use xlink:href="#DejaVuSans-31" transform="translate(63.476562 -16.40625) scale(0.7)"/>
     </g>
    </g>
   </g>
   <g id="text_4">
    <g clip-path="url(#p35d5812380)">
     <!-- ${q}_{2}$ -->
     <g transform="translate(26.656882 82.160692) scale(0.106986 -0.106986)">
      <defs>
       <path id="DejaVuSans-32" d="M 1228 531 
L 3431 531 
L 3431 0 
L 469 0 
L 469 531 
Q 828 903 1448 1529 
Q 2069 2156 2228 2338 
Q 2531 2678 2651 2914 
Q 2772 3150 2772 3378 
Q 2772 3750 2511 3984 
Q 2250 4219 1831 4219 
Q 1534 4219 1204 4116 
Q 875 4013 500 3803 
L 500 4441 
Q 881 4594 1212 4672 
Q 1544 4750 1819 4750 
Q 2544 4750 2975 4387 
Q 3406 4025 3406 3419 
Q 3406 3131 3298 2873 
Q 3191 2616 2906 2266 
Q 2828 2175 2409 1742 
Q 1991 1309 1228 531 
z
" transform="scale(0.015625)"/>
      </defs>
      <use xlink:href="#DejaVuSans-Oblique-71"/>
      <use xlink:href="#DejaVuSans-32" transform="translate(63.476562 -16.40625) scale(0.7)"/>
     </g>
    </g>
   </g>
   <g id="text_5">
    <g clip-path="url(#p35d5812380)">
     <!-- ${q}_{3}$ -->
     <g transform="translate(26.656882 102.486465) scale(0.106986 -0.106986)">
      <defs>
       <path id="DejaVuSans-33" d="M 2597 2516 
Q 3050 2419 3304 2112 
Q 3559 1806 3559 1356 
Q 3559 666 3084 287 
Q 2609 -91 1734 -91 
Q 1441 -91 1130 -33 
Q 819 25 488 141 
L 488 750 
Q 750 597 1062 519 
Q 1375 441 1716 441 
Q 2309 441 2620 675 
Q 2931 909 2931 1356 
Q 2931 1769 2642 2001 
Q 2353 2234 1838 2234 
L 1294 2234 
L 1294 2753 
L 1863 2753 
Q 2328 2753 2575 2939 
Q 2822 3125 2822 3475 
Q 2822 3834 2567 4026 
Q 2313 4219 1838 4219 
Q 1578 4219 1281 4162 
Q 984 4106 628 3988 
L 628 4550 
Q 988 4650 1302 4700 
Q 1616 4750 1894 4750 
Q 2613 4750 3031 4423 
Q 3450 4097 3450 3541 
Q 3450 3153 3228 2886 
Q 3006 2619 2597 2516 
z
" transform="scale(0.015625)"/>
      </defs>
      <use xlink:href="#DejaVuSans-Oblique-71"/>
      <use xlink:href="#DejaVuSans-33" transform="translate(63.476562 -16.40625) scale(0.7)"/>
     </g>
    </g>
   </g>
   <g id="text_6">
    <g clip-path="url(#p35d5812380)">
     <!-- ${q}_{4}$ -->
     <g transform="translate(26.656882 122.812238) scale(0.106986 -0.106986)">
      <defs>
       <path id="DejaVuSans-34" d="M 2419 4116 
L 825 1625 
L 2419 1625 
L 2419 4116 
z
M 2253 4666 
L 3047 4666 
L 3047 1625 
L 3713 1625 
L 3713 1100 
L 3047 1100 
L 3047 0 
L 2419 0 
L 2419 1100 
L 313 1100 
L 313 1709 
L 2253 4666 
z
" transform="scale(0.015625)"/>
      </defs>
      <use xlink:href="#DejaVuSans-Oblique-71"/>
      <use xlink:href="#DejaVuSans-34" transform="translate(63.476562 -16.40625) scale(0.7)"/>
     </g>
    </g>
   </g>
   <g id="text_7">
    <g clip-path="url(#p35d5812380)">
     <!-- ${q}_{5}$ -->
     <g transform="translate(26.656882 143.138011) scale(0.106986 -0.106986)">
      <defs>
       <path id="DejaVuSans-35" d="M 691 4666 
L 3169 4666 
L 3169 4134 
L 1269 4134 
L 1269 2991 
Q 1406 3038 1543 3061 
Q 1681 3084 1819 3084 
Q 2600 3084 3056 2656 
Q 3513 2228 3513 1497 
Q 3513 744 3044 326 
Q 2575 -91 1722 -91 
Q 1428 -91 1123 -41 
Q 819 9 494 109 
L 494 744 
Q 775 591 1075 516 
Q 1375 441 1709 441 
Q 2250 441 2565 725 
Q 2881 1009 2881 1497 
Q 2881 1984 2565 2268 
Q 2250 2553 1709 2553 
Q 1456 2553 1204 2497 
Q 953 2441 691 2322 
L 691 4666 
z
" transform="scale(0.015625)"/>
      </defs>
      <use xlink:href="#DejaVuSans-Oblique-71"/>
      <use xlink:href="#DejaVuSans-35" transform="translate(63.476562 -16.40625) scale(0.7)"/>
     </g>
    </g>
   </g>
   <g id="text_8">
    <g clip-path="url(#p35d5812380)">
     <!-- ${q}_{6}$ -->
     <g transform="translate(26.656882 163.463784) scale(0.106986 -0.106986)">
      <defs>
       <path id="DejaVuSans-36" d="M 2113 2584 
Q 1688 2584 1439 2293 
Q 1191 2003 1191 1497 
Q 1191 994 1439 701 
Q 1688 409 2113 409 
Q 2538 409 2786 701 
Q 3034 994 3034 1497 
Q 3034 2003 2786 2293 
Q 2538 2584 2113 2584 
z
M 3366 4563 
L 3366 3988 
Q 3128 4100 2886 4159 
Q 2644 4219 2406 4219 
Q 1781 4219 1451 3797 
Q 1122 3375 1075 2522 
Q 1259 2794 1537 2939 
Q 1816 3084 2150 3084 
Q 2853 3084 3261 2657 
Q 3669 2231 3669 1497 
Q 3669 778 3244 343 
Q 2819 -91 2113 -91 
Q 1303 -91 875 529 
Q 447 1150 447 2328 
Q 447 3434 972 4092 
Q 1497 4750 2381 4750 
Q 2619 4750 2861 4703 
Q 3103 4656 3366 4563 
z
" transform="scale(0.015625)"/>
      </defs>
      <use xlink:href="#DejaVuSans-Oblique-71"/>
      <use xlink:href="#DejaVuSans-36" transform="translate(63.476562 -16.40625) scale(0.7)"/>
     </g>
    </g>
   </g>
   <g id="text_9">
    <g clip-path="url(#p35d5812380)">
     <!-- ${q}_{7}$ -->
     <g transform="translate(26.656882 183.789558) scale(0.106986 -0.106986)">
      <defs>
       <path id="DejaVuSans-37" d="M 525 4666 
L 3525 4666 
L 3525 4397 
L 1831 0 
L 1172 0 
L 2766 4134 
L 525 4134 
L 525 4666 
z
" transform="scale(0.015625)"/>
      </defs>
      <use xlink:href="#DejaVuSans-Oblique-71"/>
      <use xlink:href="#DejaVuSans-37" transform="translate(63.476562 -16.40625) scale(0.7)"/>
     </g>
    </g>
   </g>
   <g id="text_10">
    <g clip-path="url(#p35d5812380)">
     <!-- 8 -->
     <g transform="translate(44.630013 197.728374) scale(0.068471 -0.068471)">
      <defs>
       <path id="DejaVuSans-38" d="M 2034 2216 
Q 1584 2216 1326 1975 
Q 1069 1734 1069 1313 
Q 1069 891 1326 650 
Q 1584 409 2034 409 
Q 2484 409 2743 651 
Q 3003 894 3003 1313 
Q 3003 1734 2745 1975 
Q 2488 2216 2034 2216 
z
M 1403 2484 
Q 997 2584 770 2862 
Q 544 3141 544 3541 
Q 544 4100 942 4425 
Q 1341 4750 2034 4750 
Q 2731 4750 3128 4425 
Q 3525 4100 3525 3541 
Q 3525 3141 3298 2862 
Q 3072 2584 2669 2484 
Q 3125 2378 3379 2068 
Q 3634 1759 3634 1313 
Q 3634 634 3220 271 
Q 2806 -91 2034 -91 
Q 1263 -91 848 271 
Q 434 634 434 1313 
Q 434 1759 690 2068 
Q 947 2378 1403 2484 
z
M 1172 3481 
Q 1172 3119 1398 2916 
Q 1625 2713 2034 2713 
Q 2441 2713 2670 2916 
Q 2900 3119 2900 3481 
Q 2900 3844 2670 4047 
Q 2441 4250 2034 4250 
Q 1625 4250 1398 4047 
Q 1172 3844 1172 3481 
z
" transform="scale(0.015625)"/>
      </defs>
      <use xlink:href="#DejaVuSans-38"/>
     </g>
    </g>
   </g>
   <g id="text_11">
    <g clip-path="url(#p35d5812380)">
     <!-- meas -->
     <g transform="translate(9.398772 204.137062) scale(0.106986 -0.106986)">
      <defs>
       <path id="DejaVuSans-6d" d="M 3328 2828 
Q 3544 3216 3844 3400 
Q 4144 3584 4550 3584 
Q 5097 3584 5394 3201 
Q 5691 2819 5691 2113 
L 5691 0 
L 5113 0 
L 5113 2094 
Q 5113 2597 4934 2840 
Q 4756 3084 4391 3084 
Q 3944 3084 3684 2787 
Q 3425 2491 3425 1978 
L 3425 0 
L 2847 0 
L 2847 2094 
Q 2847 2600 2669 2842 
Q 2491 3084 2119 3084 
Q 1678 3084 1418 2786 
Q 1159 2488 1159 1978 
L 1159 0 
L 581 0 
L 581 3500 
L 1159 3500 
L 1159 2956 
Q 1356 3278 1631 3431 
Q 1906 3584 2284 3584 
Q 2666 3584 2933 3390 
Q 3200 3197 3328 2828 
z
" transform="scale(0.015625)"/>
      </defs>
      <use xlink:href="#DejaVuSans-6d"/>
      <use xlink:href="#DejaVuSans-65" transform="translate(97.412109 0)"/>
      <use xlink:href="#DejaVuSans-61" transform="translate(158.935547 0)"/>
      <use xlink:href="#DejaVuSans-73" transform="translate(220.214844 0)"/>
     </g>
    </g>
   </g>
   <g id="text_12">
    <g clip-path="url(#p35d5812380)">
     <!-- ${q}_{0}$ -->
     <g transform="translate(26.656882 244.766877) scale(0.106986 -0.106986)">
      <use xlink:href="#DejaVuSans-Oblique-71"/>
      <use xlink:href="#DejaVuSans-30" transform="translate(63.476562 -16.40625) scale(0.7)"/>
     </g>
    </g>
   </g>
   <g id="text_13">
    <g clip-path="url(#p35d5812380)">
     <!-- ${q}_{1}$ -->
     <g transform="translate(26.656882 265.09265) scale(0.106986 -0.106986)">
      <use xlink:href="#DejaVuSans-Oblique-71"/>
      <use xlink:href="#DejaVuSans-31" transform="translate(63.476562 -16.40625) scale(0.7)"/>
     </g>
    </g>
   </g>
   <g id="text_14">
    <g clip-path="url(#p35d5812380)">
     <!-- ${q}_{2}$ -->
     <g transform="translate(26.656882 285.418424) scale(0.106986 -0.106986)">
      <use xlink:href="#DejaVuSans-Oblique-71"/>
      <use xlink:href="#DejaVuSans-32" transform="translate(63.476562 -16.40625) scale(0.7)"/>
     </g>
    </g>
   </g>
   <g id="text_15">
    <g clip-path="url(#p35d5812380)">
     <!-- ${q}_{3}$ -->
     <g transform="translate(26.656882 305.744197) scale(0.106986 -0.106986)">
      <use xlink:href="#DejaVuSans-Oblique-71"/>
      <use xlink:href="#DejaVuSans-33" transform="translate(63.476562 -16.40625) scale(0.7)"/>
     </g>
    </g>
   </g>
   <g id="text_16">
    <g clip-path="url(#p35d5812380)">
     <!-- ${q}_{4}$ -->
     <g transform="translate(26.656882 326.06997) scale(0.106986 -0.106986)">
      <use xlink:href="#DejaVuSans-Oblique-71"/>
      <use xlink:href="#DejaVuSans-34" transform="translate(63.476562 -16.40625) scale(0.7)"/>
     </g>
    </g>
   </g>
   <g id="text_17">
    <g clip-path="url(#p35d5812380)">
     <!-- ${q}_{5}$ -->
     <g transform="translate(26.656882 346.395743) scale(0.106986 -0.106986)">
      <use xlink:href="#DejaVuSans-Oblique-71"/>
      <use xlink:href="#DejaVuSans-35" transform="translate(63.476562 -16.40625) scale(0.7)"/>
     </g>
    </g>
   </g>
   <g id="text_18">
    <g clip-path="url(#p35d5812380)">
     <!-- ${q}_{6}$ -->
     <g transform="translate(26.656882 366.721516) scale(0.106986 -0.106986)">
      <use xlink:href="#DejaVuSans-Oblique-71"/>
      <use xlink:href="#DejaVuSans-36" transform="translate(63.476562 -16.40625) scale(0.7)"/>
     </g>
    </g>
   </g>
   <g id="text_19">
    <g clip-path="url(#p35d5812380)">
     <!-- ${q}_{7}$ -->
     <g transform="translate(26.656882 387.04729) scale(0.106986 -0.106986)">
      <use xlink:href="#DejaVuSans-Oblique-71"/>
      <use xlink:href="#DejaVuSans-37" transform="translate(63.476562 -16.40625) scale(0.7)"/>
     </g>
    </g>
   </g>
   <g id="text_20">
    <g clip-path="url(#p35d5812380)">
     <!-- 8 -->
     <g transform="translate(44.630013 400.986106) scale(0.068471 -0.068471)">
      <use xlink:href="#DejaVuSans-38"/>
     </g>
    </g>
   </g>
   <g id="text_21">
    <g clip-path="url(#p35d5812380)">
     <!-- meas -->
     <g transform="translate(9.398772 407.394794) scale(0.106986 -0.106986)">
      <use xlink:href="#DejaVuSans-6d"/>
      <use xlink:href="#DejaVuSans-65" transform="translate(97.412109 0)"/>
      <use xlink:href="#DejaVuSans-61" transform="translate(158.935547 0)"/>
      <use xlink:href="#DejaVuSans-73" transform="translate(220.214844 0)"/>
     </g>
    </g>
   </g>
   <g id="text_22">
    <g clip-path="url(#p35d5812380)">
     <!-- 1.27 -->
     <g transform="translate(47.709721 186.27604) scale(0.05267 -0.05267)">
      <defs>
       <path id="DejaVuSans-2e" d="M 684 794 
L 1344 794 
L 1344 0 
L 684 0 
L 684 794 
z
" transform="scale(0.015625)"/>
      </defs>
      <use xlink:href="#DejaVuSans-31"/>
      <use xlink:href="#DejaVuSans-2e" transform="translate(63.623047 0)"/>
      <use xlink:href="#DejaVuSans-32" transform="translate(95.410156 0)"/>
      <use xlink:href="#DejaVuSans-37" transform="translate(159.033203 0)"/>
     </g>
    </g>
   </g>
   <g id="text_23">
    <g clip-path="url(#p35d5812380)">
     <!-- $\mathrm{R_Z}$ -->
     <g transform="translate(48.352457 181.2391) scale(0.085588 -0.085588)">
      <defs>
       <path id="DejaVuSans-52" d="M 2841 2188 
Q 3044 2119 3236 1894 
Q 3428 1669 3622 1275 
L 4263 0 
L 3584 0 
L 2988 1197 
Q 2756 1666 2539 1819 
Q 2322 1972 1947 1972 
L 1259 1972 
L 1259 0 
L 628 0 
L 628 4666 
L 2053 4666 
Q 2853 4666 3247 4331 
Q 3641 3997 3641 3322 
Q 3641 2881 3436 2590 
Q 3231 2300 2841 2188 
z
M 1259 4147 
L 1259 2491 
L 2053 2491 
Q 2509 2491 2742 2702 
Q 2975 2913 2975 3322 
Q 2975 3731 2742 3939 
Q 2509 4147 2053 4147 
L 1259 4147 
z
" transform="scale(0.015625)"/>
       <path id="DejaVuSans-5a" d="M 359 4666 
L 4025 4666 
L 4025 4184 
L 1075 531 
L 4097 531 
L 4097 0 
L 288 0 
L 288 481 
L 3238 4134 
L 359 4134 
L 359 4666 
z
" transform="scale(0.015625)"/>
      </defs>
      <use xlink:href="#DejaVuSans-52" transform="translate(0 0.09375)"/>
      <use xlink:href="#DejaVuSans-5a" transform="translate(70.439453 -16.3125) scale(0.7)"/>
     </g>
    </g>
   </g>
   <g id="text_24">
    <g clip-path="url(#p35d5812380)">
     <!-- X -->
     <g style="fill: #ffffff" transform="translate(70.967722 81.591996) scale(0.085588 -0.085588)">
      <defs>
       <path id="DejaVuSans-58" d="M 403 4666 
L 1081 4666 
L 2241 2931 
L 3406 4666 
L 4084 4666 
L 2584 2425 
L 4184 0 
L 3506 0 
L 2194 1984 
L 872 0 
L 191 0 
L 1856 2491 
L 403 4666 
z
" transform="scale(0.015625)"/>
      </defs>
      <use xlink:href="#DejaVuSans-58"/>
     </g>
    </g>
   </g>
   <g id="text_25">
    <g clip-path="url(#p35d5812380)">
     <!-- H -->
     <g transform="translate(70.680867 142.569316) scale(0.085588 -0.085588)">
      <defs>
       <path id="DejaVuSans-48" d="M 628 4666 
L 1259 4666 
L 1259 2753 
L 3553 2753 
L 3553 4666 
L 4184 4666 
L 4184 0 
L 3553 0 
L 3553 2222 
L 1259 2222 
L 1259 0 
L 628 0 
L 628 4666 
z
" transform="scale(0.015625)"/>
      </defs>
      <use xlink:href="#DejaVuSans-48"/>
     </g>
    </g>
   </g>
   <g id="text_26">
    <g clip-path="url(#p35d5812380)">
     <!-- X -->
     <g style="fill: #ffffff" transform="translate(70.967722 101.91777) scale(0.085588 -0.085588)">
      <use xlink:href="#DejaVuSans-58"/>
     </g>
    </g>
   </g>
   <g id="text_27">
    <g clip-path="url(#p35d5812380)">
     <!-- 1.12 -->
     <g transform="translate(68.035494 186.27604) scale(0.05267 -0.05267)">
      <use xlink:href="#DejaVuSans-31"/>
      <use xlink:href="#DejaVuSans-2e" transform="translate(63.623047 0)"/>
      <use xlink:href="#DejaVuSans-31" transform="translate(95.410156 0)"/>
      <use xlink:href="#DejaVuSans-32" transform="translate(159.033203 0)"/>
     </g>
    </g>
   </g>
   <g id="text_28">
    <g clip-path="url(#p35d5812380)">
     <!-- $\mathrm{R_Z}$ -->
     <g transform="translate(68.67823 181.2391) scale(0.085588 -0.085588)">
      <use xlink:href="#DejaVuSans-52" transform="translate(0 0.09375)"/>
      <use xlink:href="#DejaVuSans-5a" transform="translate(70.439453 -16.3125) scale(0.7)"/>
     </g>
    </g>
   </g>
   <g id="text_29">
    <g clip-path="url(#p35d5812380)">
     <!-- 2.37 -->
     <g transform="translate(88.361267 84.647174) scale(0.05267 -0.05267)">
      <use xlink:href="#DejaVuSans-32"/>
      <use xlink:href="#DejaVuSans-2e" transform="translate(63.623047 0)"/>
      <use xlink:href="#DejaVuSans-33" transform="translate(95.410156 0)"/>
      <use xlink:href="#DejaVuSans-37" transform="translate(159.033203 0)"/>
     </g>
    </g>
   </g>
   <g id="text_30">
    <g clip-path="url(#p35d5812380)">
     <!-- $\mathrm{R_Z}$ -->
     <g transform="translate(89.004004 79.610234) scale(0.085588 -0.085588)">
      <use xlink:href="#DejaVuSans-52" transform="translate(0 0.09375)"/>
      <use xlink:href="#DejaVuSans-5a" transform="translate(70.439453 -16.3125) scale(0.7)"/>
     </g>
    </g>
   </g>
   <g id="text_31">
    <g clip-path="url(#p35d5812380)">
     <!-- X -->
     <g style="fill: #ffffff" transform="translate(91.293495 101.91777) scale(0.085588 -0.085588)">
      <use xlink:href="#DejaVuSans-58"/>
     </g>
    </g>
   </g>
   <g id="text_32">
    <g clip-path="url(#p35d5812380)">
     <!-- X -->
     <g style="fill: #ffffff" transform="translate(91.293495 183.220862) scale(0.085588 -0.085588)">
      <use xlink:href="#DejaVuSans-58"/>
     </g>
    </g>
   </g>
   <g id="text_33">
    <g clip-path="url(#p35d5812380)">
     <!-- 0.974 -->
     <g transform="translate(107.011482 84.647174) scale(0.05267 -0.05267)">
      <defs>
       <path id="DejaVuSans-39" d="M 703 97 
L 703 672 
Q 941 559 1184 500 
Q 1428 441 1663 441 
Q 2288 441 2617 861 
Q 2947 1281 2994 2138 
Q 2813 1869 2534 1725 
Q 2256 1581 1919 1581 
Q 1219 1581 811 2004 
Q 403 2428 403 3163 
Q 403 3881 828 4315 
Q 1253 4750 1959 4750 
Q 2769 4750 3195 4129 
Q 3622 3509 3622 2328 
Q 3622 1225 3098 567 
Q 2575 -91 1691 -91 
Q 1453 -91 1209 -44 
Q 966 3 703 97 
z
M 1959 2075 
Q 2384 2075 2632 2365 
Q 2881 2656 2881 3163 
Q 2881 3666 2632 3958 
Q 2384 4250 1959 4250 
Q 1534 4250 1286 3958 
Q 1038 3666 1038 3163 
Q 1038 2656 1286 2365 
Q 1534 2075 1959 2075 
z
" transform="scale(0.015625)"/>
      </defs>
      <use xlink:href="#DejaVuSans-30"/>
      <use xlink:href="#DejaVuSans-2e" transform="translate(63.623047 0)"/>
      <use xlink:href="#DejaVuSans-39" transform="translate(95.410156 0)"/>
      <use xlink:href="#DejaVuSans-37" transform="translate(159.033203 0)"/>
      <use xlink:href="#DejaVuSans-34" transform="translate(222.65625 0)"/>
     </g>
    </g>
   </g>
   <g id="text_34">
    <g clip-path="url(#p35d5812380)">
     <!-- $\mathrm{R_Z}$ -->
     <g transform="translate(109.329777 79.610234) scale(0.085588 -0.085588)">
      <use xlink:href="#DejaVuSans-52" transform="translate(0 0.09375)"/>
      <use xlink:href="#DejaVuSans-5a" transform="translate(70.439453 -16.3125) scale(0.7)"/>
     </g>
    </g>
   </g>
   <g id="text_35">
    <g clip-path="url(#p35d5812380)">
     <!-- X -->
     <g style="fill: #ffffff" transform="translate(111.619268 101.91777) scale(0.085588 -0.085588)">
      <use xlink:href="#DejaVuSans-58"/>
     </g>
    </g>
   </g>
   <g id="text_36">
    <g clip-path="url(#p35d5812380)">
     <!-- X -->
     <g style="fill: #ffffff" transform="translate(111.619268 183.220862) scale(0.085588 -0.085588)">
      <use xlink:href="#DejaVuSans-58"/>
     </g>
    </g>
   </g>
   <g id="text_37">
    <g clip-path="url(#p35d5812380)">
     <!-- 0.343 -->
     <g transform="translate(127.337255 186.27604) scale(0.05267 -0.05267)">
      <use xlink:href="#DejaVuSans-30"/>
      <use xlink:href="#DejaVuSans-2e" transform="translate(63.623047 0)"/>
      <use xlink:href="#DejaVuSans-33" transform="translate(95.410156 0)"/>
      <use xlink:href="#DejaVuSans-34" transform="translate(159.033203 0)"/>
      <use xlink:href="#DejaVuSans-33" transform="translate(222.65625 0)"/>
     </g>
    </g>
   </g>
   <g id="text_38">
    <g clip-path="url(#p35d5812380)">
     <!-- $\mathrm{R_Z}$ -->
     <g transform="translate(129.65555 181.2391) scale(0.085588 -0.085588)">
      <use xlink:href="#DejaVuSans-52" transform="translate(0 0.09375)"/>
      <use xlink:href="#DejaVuSans-5a" transform="translate(70.439453 -16.3125) scale(0.7)"/>
     </g>
    </g>
   </g>
   <g id="text_39">
    <g clip-path="url(#p35d5812380)">
     <!-- 0.217 -->
     <g transform="translate(147.663028 186.27604) scale(0.05267 -0.05267)">
      <use xlink:href="#DejaVuSans-30"/>
      <use xlink:href="#DejaVuSans-2e" transform="translate(63.623047 0)"/>
      <use xlink:href="#DejaVuSans-32" transform="translate(95.410156 0)"/>
      <use xlink:href="#DejaVuSans-31" transform="translate(159.033203 0)"/>
      <use xlink:href="#DejaVuSans-37" transform="translate(222.65625 0)"/>
     </g>
    </g>
   </g>
   <g id="text_40">
    <g clip-path="url(#p35d5812380)">
     <!-- $\mathrm{R_Z}$ -->
     <g transform="translate(149.981323 181.2391) scale(0.085588 -0.085588)">
      <use xlink:href="#DejaVuSans-52" transform="translate(0 0.09375)"/>
      <use xlink:href="#DejaVuSans-5a" transform="translate(70.439453 -16.3125) scale(0.7)"/>
     </g>
    </g>
   </g>
   <g id="text_41">
    <g clip-path="url(#p35d5812380)">
     <!-- H -->
     <g transform="translate(192.635506 61.266223) scale(0.085588 -0.085588)">
      <use xlink:href="#DejaVuSans-48"/>
     </g>
    </g>
   </g>
   <g id="text_42">
    <g clip-path="url(#p35d5812380)">
     <!-- X -->
     <g style="fill: #ffffff" transform="translate(192.922361 122.243543) scale(0.085588 -0.085588)">
      <use xlink:href="#DejaVuSans-58"/>
     </g>
    </g>
   </g>
   <g id="text_43">
    <g clip-path="url(#p35d5812380)">
     <!-- X -->
     <g style="fill: #ffffff" transform="translate(192.922361 40.94045) scale(0.085588 -0.085588)">
      <use xlink:href="#DejaVuSans-58"/>
     </g>
    </g>
   </g>
   <g id="text_44">
    <g clip-path="url(#p35d5812380)">
     <!-- X -->
     <g style="fill: #ffffff" transform="translate(192.922361 81.591996) scale(0.085588 -0.085588)">
      <use xlink:href="#DejaVuSans-58"/>
     </g>
    </g>
   </g>
   <g id="text_45">
    <g clip-path="url(#p35d5812380)">
     <!-- 1.04 -->
     <g transform="translate(230.64168 84.647174) scale(0.05267 -0.05267)">
      <use xlink:href="#DejaVuSans-31"/>
      <use xlink:href="#DejaVuSans-2e" transform="translate(63.623047 0)"/>
      <use xlink:href="#DejaVuSans-30" transform="translate(95.410156 0)"/>
      <use xlink:href="#DejaVuSans-34" transform="translate(159.033203 0)"/>
     </g>
    </g>
   </g>
   <g id="text_46">
    <g clip-path="url(#p35d5812380)">
     <!-- $\mathrm{R_Z}$ -->
     <g transform="translate(231.284416 79.610234) scale(0.085588 -0.085588)">
      <use xlink:href="#DejaVuSans-52" transform="translate(0 0.09375)"/>
      <use xlink:href="#DejaVuSans-5a" transform="translate(70.439453 -16.3125) scale(0.7)"/>
     </g>
    </g>
   </g>
   <g id="text_47">
    <g clip-path="url(#p35d5812380)">
     <!-- 0.6 -->
     <g transform="translate(232.317238 64.3214) scale(0.05267 -0.05267)">
      <use xlink:href="#DejaVuSans-30"/>
      <use xlink:href="#DejaVuSans-2e" transform="translate(63.623047 0)"/>
      <use xlink:href="#DejaVuSans-36" transform="translate(95.410156 0)"/>
     </g>
    </g>
   </g>
   <g id="text_48">
    <g clip-path="url(#p35d5812380)">
     <!-- $\mathrm{R_Z}$ -->
     <g transform="translate(231.284416 59.28446) scale(0.085588 -0.085588)">
      <use xlink:href="#DejaVuSans-52" transform="translate(0 0.09375)"/>
      <use xlink:href="#DejaVuSans-5a" transform="translate(70.439453 -16.3125) scale(0.7)"/>
     </g>
    </g>
   </g>
   <g id="text_49">
    <g clip-path="url(#p35d5812380)">
     <!-- H -->
     <g transform="translate(253.612825 61.266223) scale(0.085588 -0.085588)">
      <use xlink:href="#DejaVuSans-48"/>
     </g>
    </g>
   </g>
   <g id="text_50">
    <g clip-path="url(#p35d5812380)">
     <!-- 1.72 -->
     <g transform="translate(271.293226 64.3214) scale(0.05267 -0.05267)">
      <use xlink:href="#DejaVuSans-31"/>
      <use xlink:href="#DejaVuSans-2e" transform="translate(63.623047 0)"/>
      <use xlink:href="#DejaVuSans-37" transform="translate(95.410156 0)"/>
      <use xlink:href="#DejaVuSans-32" transform="translate(159.033203 0)"/>
     </g>
    </g>
   </g>
   <g id="text_51">
    <g clip-path="url(#p35d5812380)">
     <!-- $\mathrm{R_Z}$ -->
     <g transform="translate(271.935962 59.28446) scale(0.085588 -0.085588)">
      <use xlink:href="#DejaVuSans-52" transform="translate(0 0.09375)"/>
      <use xlink:href="#DejaVuSans-5a" transform="translate(70.439453 -16.3125) scale(0.7)"/>
     </g>
    </g>
   </g>
   <g id="text_52">
    <g clip-path="url(#p35d5812380)">
     <!-- H -->
     <g transform="translate(314.590145 61.266223) scale(0.085588 -0.085588)">
      <use xlink:href="#DejaVuSans-48"/>
     </g>
    </g>
   </g>
   <g id="text_53">
    <g clip-path="url(#p35d5812380)">
     <!-- X -->
     <g style="fill: #ffffff" transform="translate(335.202773 122.243543) scale(0.085588 -0.085588)">
      <use xlink:href="#DejaVuSans-58"/>
     </g>
    </g>
   </g>
   <g id="text_54">
    <g clip-path="url(#p35d5812380)">
     <!-- 1.53 -->
     <g transform="translate(332.270546 64.3214) scale(0.05267 -0.05267)">
      <use xlink:href="#DejaVuSans-31"/>
      <use xlink:href="#DejaVuSans-2e" transform="translate(63.623047 0)"/>
      <use xlink:href="#DejaVuSans-35" transform="translate(95.410156 0)"/>
      <use xlink:href="#DejaVuSans-33" transform="translate(159.033203 0)"/>
     </g>
    </g>
   </g>
   <g id="text_55">
    <g clip-path="url(#p35d5812380)">
     <!-- $\mathrm{R_Z}$ -->
     <g transform="translate(332.913282 59.28446) scale(0.085588 -0.085588)">
      <use xlink:href="#DejaVuSans-52" transform="translate(0 0.09375)"/>
      <use xlink:href="#DejaVuSans-5a" transform="translate(70.439453 -16.3125) scale(0.7)"/>
     </g>
    </g>
   </g>
   <g id="text_56">
    <g clip-path="url(#p35d5812380)">
     <!-- 2.22 -->
     <g transform="translate(372.922092 64.3214) scale(0.05267 -0.05267)">
      <use xlink:href="#DejaVuSans-32"/>
      <use xlink:href="#DejaVuSans-2e" transform="translate(63.623047 0)"/>
      <use xlink:href="#DejaVuSans-32" transform="translate(95.410156 0)"/>
      <use xlink:href="#DejaVuSans-32" transform="translate(159.033203 0)"/>
     </g>
    </g>
   </g>
   <g id="text_57">
    <g clip-path="url(#p35d5812380)">
     <!-- $\mathrm{R_Z}$ -->
     <g transform="translate(373.564828 59.28446) scale(0.085588 -0.085588)">
      <use xlink:href="#DejaVuSans-52" transform="translate(0 0.09375)"/>
      <use xlink:href="#DejaVuSans-5a" transform="translate(70.439453 -16.3125) scale(0.7)"/>
     </g>
    </g>
   </g>
   <g id="text_58">
    <g clip-path="url(#p35d5812380)">
     <!-- H -->
     <g transform="translate(395.893238 61.266223) scale(0.085588 -0.085588)">
      <use xlink:href="#DejaVuSans-48"/>
     </g>
    </g>
   </g>
   <g id="text_59">
    <g clip-path="url(#p35d5812380)">
     <!-- 0.764 -->
     <g transform="translate(411.89808 104.972947) scale(0.05267 -0.05267)">
      <use xlink:href="#DejaVuSans-30"/>
      <use xlink:href="#DejaVuSans-2e" transform="translate(63.623047 0)"/>
      <use xlink:href="#DejaVuSans-37" transform="translate(95.410156 0)"/>
      <use xlink:href="#DejaVuSans-36" transform="translate(159.033203 0)"/>
      <use xlink:href="#DejaVuSans-34" transform="translate(222.65625 0)"/>
     </g>
    </g>
   </g>
   <g id="text_60">
    <g clip-path="url(#p35d5812380)">
     <!-- $\mathrm{R_Z}$ -->
     <g transform="translate(414.216375 99.936007) scale(0.085588 -0.085588)">
      <use xlink:href="#DejaVuSans-52" transform="translate(0 0.09375)"/>
      <use xlink:href="#DejaVuSans-5a" transform="translate(70.439453 -16.3125) scale(0.7)"/>
     </g>
    </g>
   </g>
   <g id="text_61">
    <g clip-path="url(#p35d5812380)">
     <!-- H -->
     <g transform="translate(416.219011 61.266223) scale(0.085588 -0.085588)">
      <use xlink:href="#DejaVuSans-48"/>
     </g>
    </g>
   </g>
   <g id="text_62">
    <g clip-path="url(#p35d5812380)">
     <!-- X -->
     <g style="fill: #ffffff" transform="translate(436.831639 101.91777) scale(0.085588 -0.085588)">
      <use xlink:href="#DejaVuSans-58"/>
     </g>
    </g>
   </g>
   <g id="line2d_82">
    <path d="M 460.088817 28.415857 
L 460.088817 48.74163 
" clip-path="url(#p35d5812380)" style="fill: none; stroke-dasharray: 2.435979,1.053396; stroke-dashoffset: 0; stroke: #000000; stroke-width: 0.658373"/>
   </g>
   <g id="line2d_83">
    <path d="M 460.088817 48.74163 
L 460.088817 69.067403 
" clip-path="url(#p35d5812380)" style="fill: none; stroke-dasharray: 2.435979,1.053396; stroke-dashoffset: 0; stroke: #000000; stroke-width: 0.658373"/>
   </g>
   <g id="line2d_84">
    <path d="M 460.088817 69.067403 
L 460.088817 89.393177 
" clip-path="url(#p35d5812380)" style="fill: none; stroke-dasharray: 2.435979,1.053396; stroke-dashoffset: 0; stroke: #000000; stroke-width: 0.658373"/>
   </g>
   <g id="line2d_85">
    <path d="M 460.088817 89.393177 
L 460.088817 109.71895 
" clip-path="url(#p35d5812380)" style="fill: none; stroke-dasharray: 2.435979,1.053396; stroke-dashoffset: 0; stroke: #000000; stroke-width: 0.658373"/>
   </g>
   <g id="line2d_86">
    <path d="M 460.088817 109.71895 
L 460.088817 130.044723 
" clip-path="url(#p35d5812380)" style="fill: none; stroke-dasharray: 2.435979,1.053396; stroke-dashoffset: 0; stroke: #000000; stroke-width: 0.658373"/>
   </g>
   <g id="line2d_87">
    <path d="M 460.088817 130.044723 
L 460.088817 150.370496 
" clip-path="url(#p35d5812380)" style="fill: none; stroke-dasharray: 2.435979,1.053396; stroke-dashoffset: 0; stroke: #000000; stroke-width: 0.658373"/>
   </g>
   <g id="line2d_88">
    <path d="M 460.088817 150.370496 
L 460.088817 170.696269 
" clip-path="url(#p35d5812380)" style="fill: none; stroke-dasharray: 2.435979,1.053396; stroke-dashoffset: 0; stroke: #000000; stroke-width: 0.658373"/>
   </g>
   <g id="line2d_89">
    <path d="M 460.088817 170.696269 
L 460.088817 191.022043 
" clip-path="url(#p35d5812380)" style="fill: none; stroke-dasharray: 2.435979,1.053396; stroke-dashoffset: 0; stroke: #000000; stroke-width: 0.658373"/>
   </g>
   <g id="text_63">
    <g clip-path="url(#p35d5812380)">
     <!-- 0 -->
     <g transform="translate(485.496034 197.728374) scale(0.068471 -0.068471)">
      <use xlink:href="#DejaVuSans-30"/>
     </g>
    </g>
   </g>
   <g id="text_64">
    <g clip-path="url(#p35d5812380)">
     <!-- 1 -->
     <g transform="translate(505.821807 197.728374) scale(0.068471 -0.068471)">
      <use xlink:href="#DejaVuSans-31"/>
     </g>
    </g>
   </g>
   <g id="text_65">
    <g clip-path="url(#p35d5812380)">
     <!-- 2 -->
     <g transform="translate(526.14758 197.728374) scale(0.068471 -0.068471)">
      <use xlink:href="#DejaVuSans-32"/>
     </g>
    </g>
   </g>
   <g id="text_66">
    <g clip-path="url(#p35d5812380)">
     <!-- 3 -->
     <g transform="translate(546.473353 197.728374) scale(0.068471 -0.068471)">
      <use xlink:href="#DejaVuSans-33"/>
     </g>
    </g>
   </g>
   <g id="text_67">
    <g clip-path="url(#p35d5812380)">
     <!-- 4 -->
     <g transform="translate(58.654796 400.986106) scale(0.068471 -0.068471)">
      <use xlink:href="#DejaVuSans-34"/>
     </g>
    </g>
   </g>
   <g id="text_68">
    <g clip-path="url(#p35d5812380)">
     <!-- 5 -->
     <g transform="translate(78.98057 400.986106) scale(0.068471 -0.068471)">
      <use xlink:href="#DejaVuSans-35"/>
     </g>
    </g>
   </g>
   <g id="text_69">
    <g clip-path="url(#p35d5812380)">
     <!-- 6 -->
     <g transform="translate(99.306343 400.986106) scale(0.068471 -0.068471)">
      <use xlink:href="#DejaVuSans-36"/>
     </g>
    </g>
   </g>
   <g id="text_70">
    <g clip-path="url(#p35d5812380)">
     <!-- 7 -->
     <g transform="translate(119.632116 400.986106) scale(0.068471 -0.068471)">
      <use xlink:href="#DejaVuSans-37"/>
     </g>
    </g>
   </g>
  </g>
 </g>
 <defs>
  <clipPath id="p35d5812380">
   <rect x="7.2" y="22.318125" width="547.60692" height="394.32"/>
  </clipPath>
 </defs>
</svg>
